<?xml version="1.0" encoding="utf-8"?>
<!-- Generator: Adobe Illustrator 15.1.0, SVG Export Plug-In . SVG Version: 6.00 Build 0)  -->
<!DOCTYPE svg PUBLIC "-//W3C//DTD SVG 1.1//EN" "http://www.w3.org/Graphics/SVG/1.1/DTD/svg11.dtd">
<svg version="1.1" id="Layer_1" xmlns="http://www.w3.org/2000/svg" xmlns:xlink="http://www.w3.org/1999/xlink" x="0px" y="0px"
	 width="1400px" height="466.666px" viewBox="0 0 1400 466.666" enable-background="new 0 0 1400 466.666" xml:space="preserve">
<g>
	<rect fill-rule="evenodd" clip-rule="evenodd" fill="#4BA1BD" width="1400" height="466.666"/>
	<path fill-rule="evenodd" clip-rule="evenodd" fill="#F2F5F5" d="M528.067,120.523c22.773,4.664,39.808,21.998,39.808,42.517l0,0
		c0,21.088-17.656,42.878-41.729,42.878H420.324c-25.767,0-45.627-20.646-45.627-42.878l0,0c0-20.519,17.037-37.854,39.806-42.515
		c-0.012-0.413-0.017-0.824-0.017-1.238c0-26.36,25.43-47.729,56.8-47.729c31.369,0,56.802,21.37,56.802,47.729
		C528.088,119.701,528.081,120.112,528.067,120.523z"/>
	<g>
		<polygon fill="#F2F5F5" points="1089.991,78.515 1070.796,92.46 1089.988,106.405 		"/>
		<polygon fill="#F2F5F5" points="1055.338,78.515 1036.14,92.46 1055.338,106.405 		"/>
		<polygon fill="#F2F5F5" points="1020.685,78.515 1001.489,92.46 1020.685,106.405 		"/>
		<polygon fill="#F2F5F5" points="986.03,78.515 966.835,92.46 986.03,106.405 		"/>
		<polygon fill="#F2F5F5" points="951.377,78.515 932.182,92.46 951.377,106.405 		"/>
		<polygon fill="#F2F5F5" points="916.724,78.515 897.528,92.46 916.721,106.405 		"/>
		<polygon fill="#F2F5F5" points="882.069,78.515 862.874,92.46 882.069,106.405 		"/>
		<polygon fill="#F2F5F5" points="847.416,78.515 828.221,92.46 847.416,106.405 		"/>
		<polygon fill="#F2F5F5" points="812.764,78.515 793.567,92.46 812.764,106.405 		"/>
	</g>
	<g>
		<polygon fill="#F2F5F5" points="746.571,358.992 765.767,345.049 746.571,331.103 		"/>
		<polygon fill="#F2F5F5" points="781.224,358.992 800.42,345.049 781.224,331.103 		"/>
		<polygon fill="#F2F5F5" points="815.877,358.992 835.072,345.049 815.877,331.103 		"/>
		<polygon fill="#F2F5F5" points="850.53,358.992 869.726,345.049 850.532,331.103 		"/>
		<polygon fill="#F2F5F5" points="885.184,358.992 904.38,345.049 885.185,331.103 		"/>
		<polygon fill="#F2F5F5" points="919.838,358.992 939.033,345.049 919.838,331.103 		"/>
		<polygon fill="#F2F5F5" points="954.492,358.992 973.688,345.049 954.492,331.103 		"/>
		<polygon fill="#F2F5F5" points="989.146,358.992 1008.341,345.049 989.146,331.103 		"/>
		<polygon fill="#F2F5F5" points="1023.796,358.992 1042.994,345.049 1023.799,331.103 		"/>
	</g>
	<path fill-rule="evenodd" clip-rule="evenodd" fill="#F2F5F5" d="M1121.103,306.636v-6.753c1.938,0.776,3.829,1.591,5.669,2.44
		C1124.935,303.822,1123.042,305.262,1121.103,306.636L1121.103,306.636z M1121.103,291.398v-19.185
		c4.182-14.006,6.677-29.712,7.021-46.325h36.766c-1.05,27.766-13.006,52.736-31.714,70.755
		C1129.364,294.742,1125.329,292.988,1121.103,291.398L1121.103,291.398z M1121.103,171.589V152.91
		c4.354-1.637,8.504-3.451,12.419-5.418c18.505,17.99,30.323,42.825,31.368,70.42h-36.766
		C1127.779,201.299,1125.284,185.596,1121.103,171.589L1121.103,171.589z M1121.103,144.424v-7.266
		c2.08,1.474,4.106,3.021,6.069,4.639C1125.204,142.713,1123.18,143.59,1121.103,144.424z M1121.103,137.158v7.266
		c-1.155,0.463-2.325,0.913-3.513,1.348v-10.993C1118.777,135.548,1119.947,136.341,1121.103,137.158L1121.103,137.158z
		 M1121.103,152.91v18.679c-1.065-3.563-2.237-7.014-3.513-10.346v-7.067C1118.775,153.766,1119.945,153.343,1121.103,152.91
		L1121.103,152.91z M1121.103,272.214v19.185c-1.157-0.436-2.327-0.857-3.513-1.269v-7.574
		C1118.865,279.227,1120.037,275.775,1121.103,272.214L1121.103,272.214z M1121.103,299.883v6.753
		c-1.155,0.816-2.325,1.609-3.513,2.38v-10.482C1118.777,298.971,1119.947,299.42,1121.103,299.883L1121.103,299.883z
		 M1117.59,252.475v-26.586h2.558C1119.95,235.109,1119.067,244.019,1117.59,252.475L1117.59,252.475z M1117.59,217.912v-26.588
		c1.478,8.455,2.36,17.367,2.558,26.588H1117.59z M1098.367,141.174c1.355,1.948,2.66,4.003,3.912,6.151
		c0.518,0.891,1.025,1.793,1.522,2.715c-1.784,0.458-3.597,0.887-5.435,1.287V141.174L1098.367,141.174z M1117.59,134.779
		c-6.009-3.894-12.443-7.184-19.223-9.783v3.524c3.928,4.363,7.555,9.405,10.826,15.025c0.811,1.393,1.601,2.821,2.365,4.284
		c2.053-0.647,4.064-1.334,6.031-2.058V134.779L1117.59,134.779z M1117.59,154.176v7.067c-0.812-2.119-1.664-4.191-2.557-6.208
		C1115.893,154.755,1116.745,154.468,1117.59,154.176L1117.59,154.176z M1117.59,191.324c-2.185-12.494-5.676-23.991-10.198-34.024
		c-2.939,0.792-5.952,1.507-9.024,2.149v58.463h19.223V191.324L1117.59,191.324z M1117.59,225.889v26.586
		c-2.217,12.683-5.779,24.338-10.4,34.478c-2.88-0.77-5.819-1.471-8.822-2.097v-58.967H1117.59L1117.59,225.889z M1117.59,282.556
		c-0.872,2.276-1.789,4.495-2.754,6.652c0.927,0.301,1.845,0.608,2.754,0.922V282.556L1117.59,282.556z M1117.59,298.533v10.482
		c-6.009,3.895-12.443,7.187-19.223,9.786v-3.522c3.928-4.365,7.555-9.407,10.826-15.026c0.73-1.255,1.443-2.537,2.138-3.848
		C1113.463,297.073,1115.551,297.784,1117.59,298.533L1117.59,298.533z M1098.367,302.625c1.355-1.951,2.66-4.003,3.912-6.153
		c0.433-0.745,0.857-1.502,1.28-2.27c-1.707-0.433-3.438-0.841-5.192-1.224V302.625z M1065.199,118.221
		c0.997,0.038,1.989,0.089,2.979,0.154c11.312,2.405,21.707,10.578,30.188,22.8v10.152c-10.366,2.26-21.52,3.6-33.168,3.849V118.221
		L1065.199,118.221z M1098.367,124.996c-1.787-0.686-3.6-1.324-5.432-1.913c1.865,1.67,3.68,3.485,5.432,5.437V124.996
		L1098.367,124.996z M1098.367,159.449v58.463h-33.168v-54.758C1076.787,162.913,1087.932,161.625,1098.367,159.449
		L1098.367,159.449z M1098.367,225.889v58.967c-10.436-2.175-21.58-3.462-33.168-3.703v-55.264H1098.367L1098.367,225.889z
		 M1098.367,292.979v9.646c-8.481,12.22-18.877,20.394-30.188,22.799c-0.99,0.065-1.982,0.116-2.979,0.153v-36.445
		C1076.848,289.38,1088.001,290.72,1098.367,292.979L1098.367,292.979z M1098.367,315.279c-1.752,1.95-3.566,3.765-5.432,5.435
		c1.832-0.587,3.645-1.225,5.432-1.912V315.279L1098.367,315.279z M1024.176,318.848v-3.436c1.715,1.901,3.487,3.67,5.313,5.302
		C1027.693,320.141,1025.924,319.517,1024.176,318.848L1024.176,318.848z M1024.176,302.799
		c8.457,12.125,18.811,20.229,30.066,22.625c0.99,0.065,1.982,0.116,2.98,0.153v-36.445c-11.604,0.248-22.718,1.578-33.047,3.82
		V302.799L1024.176,302.799z M1024.176,284.832v-58.943h33.047v55.264C1045.679,281.394,1034.575,282.67,1024.176,284.832
		L1024.176,284.832z M1024.176,217.912v-58.439c10.399,2.162,21.503,3.44,33.047,3.682v54.758H1024.176L1024.176,217.912z
		 M1024.176,151.353v-10.354c8.457-12.125,18.811-20.229,30.066-22.624c0.99-0.065,1.982-0.116,2.98-0.154v36.955
		C1045.619,154.926,1034.505,153.597,1024.176,151.353L1024.176,151.353z M1024.176,128.385c1.715-1.901,3.487-3.67,5.313-5.302
		c-1.795,0.575-3.564,1.196-5.313,1.865V128.385z M1024.176,124.948v3.437c-3.972,4.394-7.642,9.482-10.948,15.16
		c-0.813,1.393-1.6,2.821-2.365,4.284c-2.02-0.637-3.997-1.311-5.932-2.021v-11.094
		C1010.945,130.824,1017.39,127.541,1024.176,124.948L1024.176,124.948z M1024.176,140.999c-1.399,2.001-2.744,4.114-4.031,6.327
		c-0.521,0.891-1.027,1.793-1.525,2.715c1.822,0.468,3.675,0.906,5.557,1.313V140.999L1024.176,140.999z M1024.176,159.473v58.439
		h-19.245v-27.142c2.19-12.279,5.643-23.586,10.099-33.47C1018.01,158.101,1021.062,158.827,1024.176,159.473L1024.176,159.473z
		 M1024.176,225.889v58.943c-3.044,0.633-6.026,1.34-8.943,2.12c-4.552-9.99-8.079-21.454-10.302-33.92v-27.144H1024.176
		L1024.176,225.889z M1024.176,292.952v9.847c-1.399-2.001-2.744-4.113-4.031-6.327c-0.433-0.745-0.86-1.502-1.283-2.27
		C1020.609,293.76,1022.379,293.342,1024.176,292.952L1024.176,292.952z M1024.176,315.412c-3.972-4.395-7.642-9.481-10.948-15.159
		c-0.729-1.255-1.442-2.537-2.138-3.848c-2.1,0.658-4.154,1.356-6.159,2.092v10.581c6.015,3.892,12.459,7.177,19.245,9.77V315.412
		L1024.176,315.412z M1004.931,290.097c0.875-0.303,1.763-0.598,2.655-0.889c-0.928-2.075-1.813-4.21-2.655-6.397V290.097
		L1004.931,290.097z M1004.931,160.987c0.782-2.03,1.603-4.016,2.46-5.951c-0.827-0.27-1.647-0.545-2.46-0.825V160.987z
		 M1004.931,134.714v11.094c-1.117-0.411-2.225-0.833-3.312-1.265v-7.598C1002.706,136.182,1003.812,135.437,1004.931,134.714
		L1004.931,134.714z M1004.931,154.21v6.776c-1.194,3.101-2.302,6.309-3.312,9.614v-17.582
		C1002.709,153.427,1003.813,153.824,1004.931,154.21L1004.931,154.21z M1004.931,190.771v27.142h-2.657
		C1002.477,208.49,1003.391,199.391,1004.931,190.771L1004.931,190.771z M1004.931,225.889v27.144
		c-1.54-8.622-2.454-17.721-2.657-27.144H1004.931L1004.931,225.889z M1004.931,282.811v7.286c-1.117,0.386-2.222,0.782-3.312,1.19
		v-18.088C1002.629,276.504,1003.736,279.711,1004.931,282.811L1004.931,282.811z M1004.931,298.497v10.581
		c-1.119-0.723-2.225-1.466-3.312-2.232v-7.082C1002.706,299.329,1003.813,298.908,1004.931,298.497z M1001.619,136.946v7.598
		c-2.186-0.87-4.308-1.786-6.369-2.747C997.307,140.101,999.432,138.483,1001.619,136.946L1001.619,136.946z M1001.619,153.019
		v17.582c-4.365,14.254-6.97,30.307-7.324,47.311h-36.764c1.045-27.595,12.861-52.43,31.371-70.42
		C992.905,149.503,997.154,151.351,1001.619,153.019L1001.619,153.019z M1001.619,273.199v18.088
		c-4.337,1.619-8.472,3.41-12.374,5.356c-18.705-18.019-30.661-42.989-31.714-70.755h36.764
		C994.649,242.893,997.254,258.945,1001.619,273.199L1001.619,273.199z M1001.619,299.764v7.082
		c-2.045-1.438-4.037-2.946-5.967-4.522C997.584,301.43,999.576,300.577,1001.619,299.764z"/>
	<polygon opacity="0.1" fill-rule="evenodd" clip-rule="evenodd" fill="#010101" points="1400,266.101 1205.393,71.494 
		1104.734,291.259 966.578,153.103 937.188,183.32 822.281,68.416 658.572,172.03 632.382,239.972 696.13,303.72 665.352,335.367 
		486.314,156.33 510.687,290.157 687.195,466.666 1400,466.666 	"/>
	<text transform="matrix(1 0 0 1 53.7397 239.2808)"><tspan x="0" y="0" fill="#FFFFFF" font-family="'BloggerSans-Bold'" font-size="60">C</tspan><tspan x="34.799" y="0" fill="#FFFFFF" font-family="'BloggerSans-Bold'" font-size="60">o</tspan><tspan x="67.739" y="0" fill="#FFFFFF" font-family="'BloggerSans-Bold'" font-size="60">n</tspan><tspan x="101.039" y="0" fill="#FFFFFF" font-family="'BloggerSans-Bold'" font-size="60">t</tspan><tspan x="120.898" y="0" fill="#FFFFFF" font-family="'BloggerSans-Bold'" font-size="60">a</tspan><tspan x="149.818" y="0" fill="#FFFFFF" font-family="'BloggerSans-Bold'" font-size="60">c</tspan><tspan x="176.698" y="0" fill="#FFFFFF" font-family="'BloggerSans-Bold'" font-size="60">t</tspan><tspan x="196.557" y="0" fill="#FFFFFF" font-family="'BloggerSans-Bold'" font-size="60"> </tspan><tspan x="209.277" y="0" fill="#FFFFFF" font-family="'BloggerSans-Bold'" font-size="60">U</tspan><tspan x="248.096" y="0" fill="#FFFFFF" font-family="'BloggerSans-Bold'" font-size="60">s</tspan></text>
	<g>
		<g>
			<polygon fill-rule="evenodd" clip-rule="evenodd" fill="#F2F5F5" points="984.783,192.764 918.139,240.875 851.492,192.761 
				918.139,144.649 			"/>
			<rect x="869.696" y="153.102" fill-rule="evenodd" clip-rule="evenodd" fill="#5E827C" width="96.882" height="118.332"/>
			<g>
				<rect x="884.814" y="169.282" fill-rule="evenodd" clip-rule="evenodd" fill="#FFFFFF" width="27.677" height="5.581"/>
				<rect x="884.544" y="180.118" fill-rule="evenodd" clip-rule="evenodd" fill="#FFFFFF" width="67.188" height="5.581"/>
				<rect x="884.545" y="190.514" fill-rule="evenodd" clip-rule="evenodd" fill="#FFFFFF" width="67.186" height="5.581"/>
				<rect x="884.544" y="200.911" fill-rule="evenodd" clip-rule="evenodd" fill="#FFFFFF" width="67.186" height="5.58"/>
				<rect x="884.544" y="211.307" fill-rule="evenodd" clip-rule="evenodd" fill="#FFFFFF" width="67.186" height="5.581"/>
				<rect x="884.544" y="221.704" fill-rule="evenodd" clip-rule="evenodd" fill="#FFFFFF" width="67.186" height="5.58"/>
				<rect x="884.542" y="232.099" fill-rule="evenodd" clip-rule="evenodd" fill="#FFFFFF" width="67.188" height="5.581"/>
			</g>
			<polygon fill-rule="evenodd" clip-rule="evenodd" fill="#F2F5F5" points="851.49,271.433 984.783,271.435 984.783,192.764 
				918.136,240.875 851.492,192.761 			"/>
			<polygon fill-rule="evenodd" clip-rule="evenodd" fill="#FFFFFF" points="851.49,271.433 984.783,271.435 930.297,232.099 
				905.979,232.099 905.979,232.097 			"/>
		</g>
		<polygon fill-rule="evenodd" clip-rule="evenodd" fill="#5E827C" points="851.492,192.761 905.979,232.099 930.297,232.099 
			984.783,192.764 930.297,228.42 905.979,228.42 		"/>
	</g>
	<path fill-rule="evenodd" clip-rule="evenodd" fill="#FFFFFF" d="M486.314,156.33l-15.688,11.45
		c-37.359,27.261,50.27,168.784,91.688,143.427l16.055-9.828l-26.407-41.608l-13.537,8.814
		c-17.189,11.192-54.84-49.538-38.726-60.578l13.53-9.268L486.314,156.33z"/>
	<g>
		<path fill-rule="evenodd" clip-rule="evenodd" fill="#F2F5F5" d="M768.494,157.69c39.399,0,71.535-24.169,71.535-53.804
			c0-29.634-32.136-53.803-71.535-53.803s-71.535,24.169-71.535,53.803C696.959,133.521,729.095,157.69,768.494,157.69z"/>
		<polygon fill-rule="evenodd" clip-rule="evenodd" fill="#F2F5F5" points="794.978,139.176 803.537,189.313 776.635,153.852 		"/>
	</g>
	<g>
		<path fill-rule="evenodd" clip-rule="evenodd" fill="#B2E2F4" d="M667.425,208.351c39.399,0,71.535-24.171,71.535-53.804
			c0-29.635-32.136-53.804-71.535-53.804c-39.399,0-71.534,24.169-71.534,53.804C595.892,184.18,628.026,208.351,667.425,208.351z"
			/>
		<polygon fill-rule="evenodd" clip-rule="evenodd" fill="#B2E2F4" points="640.943,189.838 632.382,239.972 659.286,204.51 		"/>
	</g>
	<g>
		<path fill-rule="evenodd" clip-rule="evenodd" fill="#B2E2F4" d="M699.819,216.094l33.192,18.074
			c6.426,3.5,8.822,11.622,5.321,18.05l-47.982,88.123c-3.5,6.428-11.623,8.822-18.052,5.321l-33.19-18.071
			c-6.428-3.502-8.825-11.625-5.324-18.053l47.984-88.12C685.267,214.989,693.39,212.595,699.819,216.094z"/>
		<path fill-rule="evenodd" clip-rule="evenodd" fill="#F2F5F5" d="M688.18,221.877l46.287,25.206
			c0.091,0.049,0.123,0.163,0.075,0.252l-49.843,91.534c-0.049,0.09-0.162,0.124-0.251,0.075l-46.289-25.204
			c-0.091-0.051-0.123-0.163-0.075-0.254l49.842-91.533C687.976,221.862,688.089,221.829,688.18,221.877z"/>
		<path fill-rule="evenodd" clip-rule="evenodd" fill="#FFFFFF" d="M706.338,223.219l17.148,9.339
			c0.465,0.252,0.64,0.841,0.387,1.306h-0.001c-0.254,0.466-0.84,0.639-1.307,0.386l-17.149-9.339
			c-0.465-0.254-0.637-0.841-0.385-1.306v-0.001C705.284,223.139,705.872,222.967,706.338,223.219z"/>
		<circle fill-rule="evenodd" clip-rule="evenodd" fill="#FFFFFF" cx="658.59" cy="331.325" r="3.254"/>
	</g>
	<g>
		<g>
			<path fill-rule="evenodd" clip-rule="evenodd" fill="#B2E2F4" d="M1108.477,263.846c-26.717,17.347-32.911,56.804-34.051,93.584
				h98.423C1173.972,302.82,1137.173,245.213,1108.477,263.846L1108.477,263.846z M1271.05,357.43h-97.871
				c11.092-66.716,34.816-111.733,63.8-93.584C1263.693,280.573,1269.902,320.457,1271.05,357.43z"/>
			<path fill-rule="evenodd" clip-rule="evenodd" fill="#B2E2F4" d="M1239.471,133.866c7.072,18.965,1.976,47.275-4.324,58.044
				c-5.669,9.691,1.873,17.178,5.557,11.342c8.534,13.064-14.28,53.004-55.533,21.478
				C1143.92,193.205,1205.423,83.704,1239.471,133.866z"/>
			<path fill-rule="evenodd" clip-rule="evenodd" fill="#B2E2F4" d="M1104.689,134.936c-2.075,19.167-1.04,45.192,7.797,58.028
				c5.002,7.267-4.032,13.99-7.414,8.633c-8.532,13.064,14.28,53.008,55.535,21.479
				C1201.858,191.549,1138.74,84.776,1104.689,134.936z"/>
			<path fill-rule="evenodd" clip-rule="evenodd" fill="#B2E2F4" d="M1114.108,208.135c17.118,16.367-2.149,36.703-7.547,21.19
				c-11.271,10.792,1.91,54.861,49.229,33.493C1203.11,241.451,1158.628,166.984,1114.108,208.135z"/>
			<path fill-rule="evenodd" clip-rule="evenodd" fill="#B2E2F4" d="M1231.592,208.135c-17.12,16.367,2.15,36.703,7.545,21.19
				c11.271,10.792-1.908,54.861-49.228,33.493C1142.59,241.451,1187.072,166.984,1231.592,208.135z"/>
			<path fill-rule="evenodd" clip-rule="evenodd" fill="#FFFFFF" d="M1148.427,176.271h48.6v70.293c0,23.727-48.6,26.453-48.6,0
				V176.271z"/>
			<polygon fill-rule="evenodd" clip-rule="evenodd" fill="#F2F5F5" points="1197.026,220.401 1197.026,211.416 1148.427,211.416 
				1148.427,244.499 			"/>
			<path fill-rule="evenodd" clip-rule="evenodd" fill="#F2F5F5" d="M1172.724,86.881c102.924,0,61.201,135.955,0,135.955
				C1111.526,222.836,1069.804,86.881,1172.724,86.881z"/>
			<path fill-rule="evenodd" clip-rule="evenodd" fill="#FFFFFF" d="M1172.724,86.881c102.924,0,61.201,135.955,0,135.955V86.881z"
				/>
			
				<path fill-rule="evenodd" clip-rule="evenodd" fill="#FFFFFF" stroke="#FFFFFF" stroke-width="0.216" stroke-miterlimit="22.9256" d="
				M1172.757,308.459c0-8.917-24.018-41.022-24.018-58.355h48.037C1196.776,267.437,1172.757,299.542,1172.757,308.459z"/>
			<path fill-rule="evenodd" clip-rule="evenodd" fill="#177663" d="M1165.907,357.43c-11.406-54.743-30.854-62.998-41.947-61.607
				c-3.083-10.248-0.442-18.218,4.202-27.386c-5.592-0.937-9.097,0.042-16.141,3.457c-2.351-12.979,19.185-35.494,36.4-40.959
				c-3.614,16.138-2.558,31.883,6.557,40.047c12.264,10.986,15.886,51.138,17.035,86.448H1165.907z"/>
			<path fill-rule="evenodd" clip-rule="evenodd" fill="#5E827C" d="M1127.307,288.771c0.29-10.896,1.232-16.063,7.494-24.264
				c-8.609-1.367-14.865,0.219-21.91,3.633c2.143-12.98,22.21-32.819,35.536-38.285c0,9.565-3.402,31.009,9.852,45.071
				c10.176,10.797,13.251,34.282,14.131,82.504h-4.215C1163.563,324.023,1153.321,288.771,1127.307,288.771z"/>
			<path fill-rule="evenodd" clip-rule="evenodd" fill="#BECDCA" d="M1171.569,331.169c-0.715-41.838-30.719-50.634-40.883-50.655
				c2.145-10.095,7.651-21.207,11.583-25.497c-16.367,0.142-21.482,3.493-28.528,8.634c2.142-12.98,21.359-28.33,34.686-33.796
				c0,9.565-0.99,27.895,8.399,40.191C1166.217,282.344,1178.208,303.79,1171.569,331.169z"/>
			<path fill-rule="evenodd" clip-rule="evenodd" fill="#177663" d="M1221.445,295.822c3.083-10.248,0.44-18.218-4.204-27.386
				c5.592-0.937,9.102,0.042,16.146,3.457c2.345-12.979-17.495-33.493-34.713-38.958c0,9.565,8.063,29.302-4.763,38.818
				c-10.526,7.809-23.172,20.299-23.149,85.676h7.917C1184.067,325.341,1195.097,292.522,1221.445,295.822z"/>
			<path fill-rule="evenodd" clip-rule="evenodd" fill="#5E827C" d="M1218.099,288.771c-0.292-10.896-1.234-16.063-7.494-24.264
				c8.606-1.367,14.866,0.219,21.91,3.633c-2.143-12.98-22.21-32.819-35.536-38.285c0,9.565,1.34,39.664-12.296,52.737
				c-10.554,10.119-14.796,26.652-13.951,74.838h5.787C1180.398,320.096,1188.949,288.771,1218.099,288.771z"/>
			<path fill-rule="evenodd" clip-rule="evenodd" fill="#BECDCA" d="M1171.569,331.169c7.021-40.389,32.986-50.634,43.149-50.655
				c-2.145-10.095-7.654-21.207-11.583-25.497c16.368,0.142,21.482,3.493,28.526,8.634c-2.143-12.98-21.357-28.33-34.684-33.796
				c0,9.565,0.99,27.895-8.401,40.191C1179.186,282.344,1169.092,297.259,1171.569,331.169z"/>
			<path fill-rule="evenodd" clip-rule="evenodd" fill="#B2E2F4" d="M1170.984,103.21c34.516,0,51.227,22.677,52.331,40.152
				c1.105,17.474,7.199,19.113,14.663,3.183c7.462-15.931-10.818-84.636-64.197-84.636c-53.376,0-75.231,52.855-67.768,81.73
				c7.465,28.876,16.714,12.508,16.358,0.114C1122.015,131.36,1132.731,104.208,1170.984,103.21z"/>
			<g>
				
					<ellipse transform="matrix(0.2172 -0.9761 0.9761 0.2172 821.2516 1322.8015)" fill-rule="evenodd" clip-rule="evenodd" fill="#FFFFFF" cx="1235.367" cy="149.366" rx="16.09" ry="6.948"/>
				<path fill-rule="evenodd" clip-rule="evenodd" fill="#F2F5F5" d="M1106.654,133.661c-3.747,0.834-5.22,8.541-3.29,17.217
					c1.93,8.674,6.534,15.028,10.279,14.195c3.744-0.833,5.219-8.539,3.287-17.213
					C1115.001,139.183,1110.401,132.827,1106.654,133.661z"/>
			</g>
			<path fill-rule="evenodd" clip-rule="evenodd" fill="#B2E2F4" d="M1129.121,90.724c-3.334,20.414,35.669,49.418,80.541,51.373
				C1213.719,89.048,1164.237,70.99,1129.121,90.724z"/>
		</g>
		<g>
			<path fill="#FFFFFF" d="M1107.977,134.717c0-17.114,7.279-32.607,19.043-43.819c11.738-11.185,27.939-18.104,45.829-18.104
				c17.886,0,34.089,6.918,45.825,18.104c11.766,11.211,19.043,26.705,19.043,43.819h-4.38c0-15.875-6.754-30.249-17.673-40.656
				c-10.946-10.435-26.087-16.888-42.815-16.888c-16.732,0-31.871,6.454-42.817,16.888c-10.921,10.407-17.676,24.781-17.676,40.656
				H1107.977z"/>
			<g>
				<path fill-rule="evenodd" clip-rule="evenodd" fill="#FFFFFF" d="M1109.294,133.097h0.003c2.969,0,5.398,2.428,5.398,5.399
					v16.197c0,2.969-2.43,5.397-5.398,5.397h-0.003c-2.968,0-5.397-2.428-5.397-5.397v-16.197
					C1103.896,135.525,1106.326,133.097,1109.294,133.097z"/>
				<path fill-rule="evenodd" clip-rule="evenodd" fill="#FFFFFF" d="M1236.399,133.097L1236.399,133.097
					c2.97,0,5.399,2.428,5.399,5.399v16.197c0,2.969-2.43,5.397-5.399,5.397l0,0c-2.97,0-5.399-2.428-5.399-5.397v-16.197
					C1231,135.525,1233.43,133.097,1236.399,133.097z"/>
			</g>
			<path fill="#FFFFFF" d="M1111.486,160.091c0,9.081,5.509,19.429,14.4,27.282c8.024,7.081,18.768,12.082,30.687,12.256
				l-0.053,4.359c-13.053-0.188-24.787-5.637-33.523-13.35c-9.812-8.664-15.891-20.25-15.891-30.548H1111.486z"/>
			<path fill-rule="evenodd" clip-rule="evenodd" fill="#FFFFFF" d="M1158.128,207.825l-10.384-3.381
				c-4.547-1.48-3.354-7.286,1.423-7.089l10.971,0.455C1167.989,198.133,1165.995,209.969,1158.128,207.825z"/>
		</g>
	</g>
</g>
</svg>
