<?xml version="1.0" encoding="utf-8"?>
<!-- Generator: Adobe Illustrator 15.1.0, SVG Export Plug-In . SVG Version: 6.00 Build 0)  -->
<!DOCTYPE svg PUBLIC "-//W3C//DTD SVG 1.1//EN" "http://www.w3.org/Graphics/SVG/1.1/DTD/svg11.dtd">
<svg version="1.1" id="Layer_1" xmlns="http://www.w3.org/2000/svg" xmlns:xlink="http://www.w3.org/1999/xlink" x="0px" y="0px"
	 width="800px" height="800px" viewBox="0 0 800 800" enable-background="new 0 0 800 800" xml:space="preserve">
<g>
	<defs>
		<rect id="SVGID_1_" width="800" height="800"/>
	</defs>
	<clipPath id="SVGID_2_">
		<use xlink:href="#SVGID_1_"  overflow="visible"/>
	</clipPath>
	<path clip-path="url(#SVGID_2_)" fill="#2D2D2E" d="M396.152,759.978c0.484,0,0.843,0.039,1.252,0.108l0.115-0.736
		c0,0-1.131-0.352-2.617-0.227l-0.117-0.402c0.462-0.097,0.809-0.507,0.809-0.999c0-0.562-0.458-1.019-1.022-1.019
		c-0.563,0-1.02,0.457-1.02,1.019c0,0.492,0.346,0.902,0.807,0.999l0.131,0.448c-1.579,0.216-2.836,0.834-2.836,0.834l0.222,0.681
		c0.955-0.319,1.784-0.512,2.535-0.593C395.147,760.013,395.702,759.978,396.152,759.978"/>
</g>
<g>
	<defs>
		<rect id="SVGID_3_" width="800" height="800"/>
	</defs>
	<clipPath id="SVGID_4_">
		<use xlink:href="#SVGID_3_"  overflow="visible"/>
	</clipPath>
	<path clip-path="url(#SVGID_4_)" fill="#474647" d="M411.658,644.751c-1.273-6.912,0.248,10.457,1.348,11.006
		c1.098,0.551,10.071,1.648,10.896,1.648c0.823,0,5.584-0.457,6.499-0.732c0.917-0.275,0.275,2.015,4.121,3.113
		c3.845,1.098,17.029,1.646,22.34,1.189s10.254-1.74,10.254-3.754c0.641-2.287,1.465-5.034-1.557-5.676
		c-3.021-0.641-5.584-0.732-7.324-2.748c-1.74-2.014-8.77-8.826-10.326-11.297L411.658,644.751z"/>
	<path clip-path="url(#SVGID_4_)" fill="#474647" d="M333.534,633.509c0,0-12.178,13.367-13.733,14.559
		c-1.557,1.189-6.135,3.296-6.135,3.296s-5.951-1.282-6.684,3.388c-0.732,4.668,1.008,3.844,1.008,3.844s10.162,2.932,19.502,2.932
		c9.338,0,15.931-1.924,15.931-1.924s3.844-2.838,4.12-3.113c0.274-0.273,8.422,0.916,8.422,0.916l10.804-1.189
		c0,0,1.83-0.092,1.649-1.281c-0.184-1.191,0-5.219,0-5.219s0.64-0.459,0.823-1.648L333.534,633.509z"/>
	<path clip-path="url(#SVGID_4_)" fill="#E2B4A4" d="M608.397,399.698c-0.196-2.344-2.345-7.033-2.345-7.033
		c-8.204-0.779-15.433,1.367-15.433,1.367s0.027,0.29,0.079,0.699c0.091,0.715,0.26,1.806,0.51,2.427c0.388,0.976,0,3.906,0,5.274
		c0,1.367,0.976,5.86,1.365,6.641c0.392,0.783,1.563,4.104,2.539,5.469c0.423,0.591,1.537,1.436,2.729,2.285
		c1.569,1.117,3.273,2.238,3.717,2.795c0.783,0.977,2.735,1.563,2.735,1.563s0.391,0.781,1.562,0.586
		c1.173-0.197,0.978-3.127,0.978-3.127s1.367,0.393,1.759-1.171c0.391-1.563-1.173-3.32-2.343-4.493
		c-1.174-1.172-1.564-4.102-1.564-4.102s1.757,1.563,3.712,0.976c1.952-0.585,1.172-3.319,0.975-4.296
		C609.178,404.582,608.593,402.041,608.397,399.698"/>
	<path clip-path="url(#SVGID_4_)" fill="#E2B4A4" d="M653.445,244.834c-2.906,2.544-7.996,5.086-17.263,1.817
		c-3.274-1.155-5.446-3.666-6.905-6.4v8.856c1.644,0.862,6.783,10.812,8.764,13.339c0.119,0.151,0.229,0.283,0.322,0.377
		c0.344,0.343,0.726,0.81,1.13,1.344c1.74,2.291,3.903,5.787,5.229,5.787c1.199,0,2.908-3.35,4.58-6.281
		c0.46-0.807,0.914-1.583,1.359-2.247c0.142-0.213,0.283-0.415,0.421-0.604c1.394-1.889,2.743-3.387,3.299-10.837l0.284-6.718
		C654.256,243.938,653.847,244.482,653.445,244.834"/>
	<path clip-path="url(#SVGID_4_)" fill="#F5C2B0" d="M724.85,578.339c-2.088-1.648-3.467-6.572-3.921-8.418
		c-0.044,0.553-0.075,0.879-0.075,0.879l-11.544,2.061l-3.206,0.572c1.422,1.396,3.878,4.032,4.166,5.859
		c0.03,0.194,0.064,0.395,0.1,0.598c0.428,2.505,1.125,5.534,1.125,5.534s0.455-0.382,1.199-0.861
		c3.496-2.742,10.516-2.535,14.701-1.953c0.288,0.039,0.561,0.108,0.826,0.197C727.848,581.93,726.826,579.9,724.85,578.339"/>
	<path clip-path="url(#SVGID_4_)" fill="#F5C2B0" d="M638.363,579.158c-2.308,0-5.76-0.63-9.086-1.39v1.934
		c0,1.04-1.09,4.624-0.991,5.603l16.073-1.061c0-0.505-0.266-4.359-0.426-6.653C642.662,578.493,640.848,579.158,638.363,579.158"/>
	<path clip-path="url(#SVGID_4_)" fill="#F5C2B0" d="M700.32,392.009c-10.172-2.908-13.626-0.728-13.626-0.728
		s-0.181,3.634-0.362,5.453c-0.184,1.817,0,8.175,0.908,9.811s2.361,1.454,3.452,0c1.089-1.453,1.635-6.905,1.635-6.905l1.818,0.364
		c0,0,0.127,0.774,0.192,1.477c0.044,0.476,0.063,0.92-0.013,1.067c-0.181,0.364-1.817,5.451-1.817,5.451s-2.361,1.09-3.996,1.09
		c-1.636,0-3.452,1.271-5.452,1.816c-1.998,0.545,0.182,3.088,0.182,3.088l2.363-0.363l4.542-0.18c0,0-1.816,1.09-3.088,1.998
		c-1.273,0.908,0.543,2.18,0.543,2.18s2.363-0.18,2.908,0.183c0.391,0.259,2.455-1.435,3.799-2.686
		c0.53-0.497,0.953-0.925,1.108-1.132c0.544-0.725,0,0,1.634-1.09c1.637-1.09,3.635-7.812,3.817-8.539
		c0.181-0.727,1.089-1.271,1.452-2.543c0.227-0.799,0.598-2.168,0.08-4.512C702.094,395.916,701.475,394.177,700.32,392.009"/>
	<path clip-path="url(#SVGID_4_)" fill="#2D2D2E" d="M706.104,573.433l3.206-0.572l11.544-2.06c0,0,0.031-0.327,0.075-0.88
		c0.233-2.826,0.895-11.709,0.287-14.748c-0.727-3.634-4.724-27.255-6.177-34.521c-1.454-7.269-5.814-29.07-7.994-33.432
		c-2.182-4.36-2.908-5.09-2.908-9.087c0-3.995,1.091-10.901-2.182-15.262c-3.269-4.359-4.359-5.813-4.359-8.358
		c0-2.544,0.363-9.81-1.09-14.898c-1.453-5.086-2.181-5.815-2.545-10.901c-0.188-2.648,0.114-8.151,0.348-13.588
		c-1.344,1.251-3.408,2.944-3.798,2.686c-0.546-0.362-2.909-0.183-2.909-0.183s-1.816-1.271-0.543-2.18
		c1.271-0.908,3.088-1.998,3.088-1.998l-4.542,0.18l-2.363,0.363c0,0-2.18-2.543-0.182-3.088c2-0.545,3.816-1.816,5.452-1.816
		c1.635,0,3.996-1.09,3.996-1.09s1.637-5.087,1.817-5.451c-0.054-0.41-0.042-0.76,0.013-1.067c-0.065-0.702-0.192-1.477-0.192-1.477
		l-1.818-0.364c0,0-0.546,5.452-1.635,6.905c-1.091,1.454-2.544,1.636-3.452,0s-1.092-7.995-0.908-9.811
		c0.182-1.819,0.362-5.453,0.362-5.453s3.454-2.18,13.626,0.728c1.154,2.168,1.773,3.906,2.08,5.3
		c0.617-0.694,1.009-1.675,1.009-3.119c0-7.267-0.726-23.621-0.726-32.342c0-8.721-2.545-34.522-3.997-41.063
		c-1.455-6.542-1.092-10.902-1.455-14.172c-0.362-3.271-5.088-19.624-5.45-23.621c-0.364-3.998-2.18-10.539-2.906-11.629
		c-0.729-1.09-2.545-3.271-3.998-2.907c-1.453,0.364-7.631-2.907-11.265-4.724c-1.034-0.516-2.305-1.153-3.635-1.821
		c0.341-1.353,1.091-4.219,1.636-5.448c0.727-1.635,1.09-5.451,0.91-8.721c-0.182-3.271-0.546-5.451-0.183-6.904
		c0.362-1.453-0.909-4.361-0.909-6.724c0-2.362-0.363-7.631-0.909-15.081c-0.543-7.449-7.266-21.985-15.625-27.617
		c-8.356-5.633-17.261-0.908-17.261-0.908c-13.082-2.181-21.078,24.71-21.258,26.527c-0.182,1.817-2.181,5.995-3.09,9.448
		c-0.909,3.451-0.546,8.903,0,12.537c0.545,3.634,1.635,10.176,1.635,11.992c0,1.817,2,5.089,2.906,6.542
		c0.195,0.308,0.372,0.841,0.531,1.477c-0.625,0.479-1.143,0.869-1.438,1.067c-1.091,0.726-7.634,2.545-12.356,4.36
		c-4.724,1.818-11.264,1.455-13.809,10.903c-2.544,9.448-6.54,57.053-6.54,60.324c0,3.271,1.089,32.703,1.089,38.881
		c0,6.179,2.18,17.081,2.544,18.171s1.091,3.271,1.091,3.271l2.617-0.625c-0.049-0.38-0.073-0.649-0.073-0.649
		s6.724-1.997,14.354-1.272c0,0,1.998,4.361,2.182,6.542c0.181,2.181,0.724,4.543,0.906,5.45c0.183,0.908,0.91,3.452-0.906,3.996
		c-1.819,0.546-3.453-0.906-3.453-0.906s0.363,2.725,1.454,3.814c1.089,1.092,2.544,2.725,2.18,4.18
		c-0.364,1.453-1.636,1.09-1.636,1.09s0.182,2.725-0.909,2.908c-1.089,0.182-1.454-0.546-1.454-0.546s-1.814-0.544-2.543-1.452
		c-0.412-0.518-1.998-1.563-3.457-2.602c0.649,8.521,1.32,17.057,1.64,20.407c0.728,7.631,6.176,36.703,7.631,42.881
		c1.454,6.177,3.996,21.077,4.361,28.707c0.362,7.631,3.633,34.523,3.997,41.063c0.363,6.541,2.544,17.808,2.907,18.896
		c0.363,1.09,0.728,7.269,0.728,7.269s4.758,1.453,9.811,2.608c3.326,0.76,6.778,1.39,9.086,1.39c2.484,0,4.299-0.665,5.57-1.567
		c1.703-1.208,2.424-2.844,2.424-3.884c0-1.818,1.454-10.903,0.727-15.991c-0.727-5.085-4.725-7.63-5.089-14.173
		c-0.362-6.54,2.181-23.617,1.817-27.616c-0.361-3.998-1.088-15.262-2.543-22.531c-1.451-7.268-1.451-7.994-1.451-11.264
		c0-3.271,1.814-39.609,1.814-45.06c0-5.452,0.869-29.068,0.869-29.068s11.487,44.33,12.942,49.781
		c1.452,5.449,11.628,40.7,11.991,47.603c0.362,6.906,12.355,34.523,12.719,38.884c0.363,4.361,6.54,19.986,6.904,21.439
		c0.361,1.455,3.27,10.538,3.27,10.538l11.578-2.067c1.277,1.55,2.986,3.755,3.321,4.838c0.544,1.772,0.409,10.221,0.409,10.221
		l2.316,0.137c0,0,0-6.543,0.271-7.496c0.271-0.953,0.137-2.314,1.363-1.906c0.269,0.09,0.535,0.049,0.781-0.085
		c-0.035-0.203-0.069-0.403-0.1-0.598C709.981,577.465,707.525,574.829,706.104,573.433 M662.892,228.3
		c-1.417,3.948-3.146,1.582-3.146,1.582s-2.521,9.211-5.079,13.386l-0.283,6.719c0.005-0.069,0.012-0.131,0.016-0.202
		c0,0,2.043-1.362,3.407,5.043c0.017,0.075,0.031,0.157,0.048,0.237c0.276,1.431,0.459,3.457,0.576,5.611
		c0.045,0.834,0.082,1.687,0.109,2.531c0.145,4.384,0.082,8.518,0.082,8.518s-0.825-1.273-2.109-1.947
		c-0.664,12.233-1.658,27.768-2.523,29.93c-1.454,3.634-4.361,16.716-4.361,16.716s-8.357-19.26-9.448-24.348
		c-0.769-3.583-4.777-15.269-7.338-23.142c-0.55-0.123-1.032,0.143-1.335,1.157c-0.499,1.655-1.476-0.606-2.445-3.71
		c-0.168-0.536-0.333-1.095-0.497-1.664c-0.974-3.377-1.847-7.084-2.101-7.846c-0.253-0.758,0.024-2.252,0.502-3.744
		c0.551-1.721,1.367-3.439,1.951-4.022c0.087-0.087,0.212-0.076,0.361,0.002v-8.856c-2.67-5.007-2.953-10.767-3.204-10.37
		c-1.093,1.73-3.126-0.602-3.368-1.728c-0.125-0.577-0.76-1.232-1.258-5.276c1.682-1.104,4.38-3.117,5.467-5.297
		c1.637-3.271,1.456-10.357,2.91-11.992c1.105-1.246,3.997-4.593,5.316-7.003c0.547-0.202,1.109-0.389,1.685-0.559
		c2.977,3.922,11.858,15.352,16.801,18.645c5.994,3.999,9.085,5.271,9.085,5.271S663.762,225.883,662.892,228.3"/>
	<path clip-path="url(#SVGID_4_)" fill="#2D2D2E" d="M728.221,582.807c-0.265-0.089-0.538-0.158-0.826-0.198
		c-4.186-0.581-11.205-0.788-14.701,1.954c-0.602,0.472-1.11,1.021-1.471,1.679c-0.953,3.955,1.771,3.955,1.771,3.955
		s10.902,1.906,15.128,1.906c4.223,0,5.585-0.683,5.585-0.683S732.459,584.222,728.221,582.807"/>
	<path clip-path="url(#SVGID_4_)" fill="#2D2D2E" d="M644.359,584.244l-16.073,1.061l-0.461,0.029c0,0-1.12,2.066-0.183,5.814
		c0.909,3.635,3.637,2.362,3.637,2.362c0.544,0,12.898,0.183,13.625-1.635c0.727-1.819,1.272-4.726,0.907-5.635
		C645.449,585.334,644.359,584.244,644.359,584.244"/>
	<path clip-path="url(#SVGID_4_)" fill="#E9E8E5" d="M658.539,263.207c-0.027-0.844-0.064-1.696-0.109-2.53
		c-0.117-2.155-0.3-4.18-0.576-5.612c-0.017-0.08-0.031-0.162-0.048-0.237c-1.364-6.405-3.407-5.043-3.407-5.043
		c-0.004,0.071-0.011,0.133-0.016,0.202c-0.557,7.449-1.905,8.947-3.3,10.837c-0.138,0.188-0.279,0.389-0.421,0.603
		c-0.444,0.664-0.899,1.439-1.359,2.246c-1.672,2.931-3.381,6.281-4.58,6.281c-1.326,0-3.489-3.496-5.229-5.787
		c-0.404-0.533-0.786-1.001-1.13-1.344c-0.094-0.094-0.203-0.225-0.322-0.376c-1.98-2.527-7.12-12.479-8.764-13.34
		c-0.149-0.078-0.274-0.088-0.361-0.002c-0.584,0.583-1.4,2.301-1.951,4.022c-0.478,1.492-0.755,2.986-0.502,3.744
		c0.254,0.763,1.127,4.469,2.101,7.847c0.164,0.569,0.329,1.128,0.497,1.663c0.97,3.104,1.946,5.366,2.445,3.71
		c0.303-1.013,0.785-1.28,1.335-1.156c2.561,7.872,6.569,19.559,7.338,23.142c1.091,5.088,9.448,24.347,9.448,24.347
		s2.907-13.082,4.361-16.716c0.865-2.162,1.859-17.697,2.523-29.93c1.284,0.674,2.11,1.948,2.11,1.948
		S658.684,267.591,658.539,263.207"/>
	<path clip-path="url(#SVGID_4_)" fill="#F5C2B0" d="M653.734,216.374c-4.988-3.325-13.959-14.865-16.962-18.825
		c-0.582,0.172-1.148,0.36-1.701,0.563c-1.331,2.435-4.252,5.815-5.368,7.073c-1.467,1.65-1.285,8.805-2.936,12.106
		c-1.1,2.202-3.824,4.233-5.523,5.349c0.506,4.083,1.148,4.744,1.271,5.326c0.244,1.137,2.297,3.492,3.4,1.744
		c0.254-0.4,0.539,5.415,3.234,10.47c1.476,2.762,3.667,5.297,6.972,6.463c9.356,3.301,14.495,0.735,17.43-1.835
		c0.405-0.354,0.82-0.905,1.234-1.581c2.581-4.215,5.126-13.516,5.126-13.516s1.746,2.391,3.178-1.596
		c0.877-2.442-0.183-6.42-0.183-6.42S659.789,220.411,653.734,216.374"/>
	<path clip-path="url(#SVGID_4_)" fill="#474647" d="M127.441,576.501c0,0-8.75-0.25-16.25-0.25s-12.25-0.75-12.25-0.75
		l-5.673,8.812c0,0-1.043,4.169-2.607,5.731c-1.565,1.564,0.521,3.129,0.521,3.129s6.256,1.045,11.471,1.045
		c5.214,0,14.078-3.65,14.078-3.65h3.649l4.693-2.086C126.706,584.712,127.441,576.501,127.441,576.501"/>
	<path clip-path="url(#SVGID_4_)" fill="#474647" d="M191.638,576.228c0,0-9.946-1.227-14.446-0.977s-8.756,4.107-8.756,4.107
		c-0.523,0.779-0.523,4.953-0.523,4.953l0.523,3.127c0,0,3.389,1.303,5.734,1.303c2.347,0,2.347-0.26,3.651,0.783
		c1.303,1.043,5.214,4.432,10.428,4.693c5.214,0.26,11.47-0.783,11.993-1.564c0.52-0.783,0.52-1.303-0.261-2.869
		c-0.782-1.564-0.522-2.605-2.085-4.432c-1.566-1.824-4.173-6.518-5.215-7.82C191.638,576.228,192.942,577.791,191.638,576.228"/>
	<path clip-path="url(#SVGID_4_)" fill="#E2484A" d="M157.281,262.702c-0.936-0.978-1.943-1.937-2.959-2.825
		c-0.771-0.674-1.542-1.301-2.286-1.87c-0.726-0.555-1.425-1.055-2.065-1.467c-0.595,0.395-1.233,0.967-1.889,1.648
		c-0.189,0.196-0.377,0.399-0.569,0.613c-0.878,0.982-1.773,2.13-2.624,3.306l4.673,4.673l-5.469,15.845l2.946,12.625l3.022,12.951
		c0,0,0.455-1.587,1.206-4.228c1.597-5.605,4.534-15.969,7.332-26.109l-4.545-12.081L157.281,262.702z"/>
	<path clip-path="url(#SVGID_4_)" fill="#E2B4A4" d="M162.506,243.252l-1.041-11.171c-0.546,2.575-1.626,6.941-3.088,9.414
		c-2.162,3.66-10.81,6.487-14.971,5.821c-3.935-0.629-6.377-3.341-7.052-4.618l-0.198,4.182c0.033-0.094,0.057-0.151,0.057-0.151
		s7.238,9.631,13.998,9.392C156.884,255.884,161.806,246.093,162.506,243.252"/>
	<path clip-path="url(#SVGID_4_)" fill="#E2B4A4" d="M173.142,340.888c-2.245,0-2.37,0.125-3.742,0.125
		c-1.374,0-6.237,0.998-6.987,1.248c-0.749,0.249-2.371,1.746-3.369,1.746c-0.997,0-3.493,1.497-4.616,1.997
		c-1.123,0.499-2.744,0.499-4.49,0.248c-1.748-0.248-1.499,2.247-1.499,2.247h-0.747c-0.748,0-0.999,0.498-0.999,1.247
		s2.246,1.248,2.496,1.746c0.089,0.18,0.274,0.407,0.475,0.652c0.187,0.178,0.324,0.363,0.426,0.55
		c0.197,0.278,0.346,0.555,0.346,0.795c0,0.624,0.499,1.248,0.873,1.373c0.375,0.124,2.62,0.623,2.62,0.623s0.249,0.749,0.374,1.124
		c0.125,0.374,0.748,0.873,1.123,1.246c0.375,0.375,1.123,1.747,1.123,1.747s1.247,2.121,1.622,2.745
		c0.374,0.624,1.497,1.747,4.242,1.997c2.745,0.249,6.612-0.125,9.607-1.248c2.994-1.122,8.733-7.486,8.733-7.486
		s2.62,0,3.118-1.372c0.5-1.373-3.617-13.725-3.617-13.725S175.388,340.888,173.142,340.888"/>
	<path clip-path="url(#SVGID_4_)" fill="#F5C2B0" d="M150.09,352.694c-0.103-0.187-0.239-0.372-0.426-0.55
		c-0.736-0.702-2.003-1.336-2.845-1.899c-1.125-0.749,0.373-2.62,0.373-2.62s-3.743-1.373-4.493-1.995
		c-0.747-0.625-1.62-0.625-2.245-0.75c-0.623-0.124-2.869-0.374-4.366-0.499c-1.498-0.125-4.117-0.125-4.865-0.125
		c-0.749,0-1.373-0.374-6.239,1.622c-4.866,1.997-6.363,12.227-6.363,12.227s3.494,3.119,4.242,3.992
		c0.749,0.874,2.121,1.996,3.493,2.122c1.373,0.125,3.245,1.372,4.617,2.37c1.372,0.999,2.87,2.121,5.488,2.121
		c2.621,0,3.993,0,4.741-0.623c0.75-0.625,0.5-1.124,1.747-1.747c1.249-0.624-0.125-1.996,0.874-2.247
		c0.998-0.248,2.621-0.623,2.996-2.993c1.246,0,1.62-2.62,1.995-4.117c1.996-0.126,1.747-3.121,1.373-4.118
		C150.165,352.807,150.122,352.751,150.09,352.694"/>
	<path clip-path="url(#SVGID_4_)" fill="#F5C2B0" d="M164.421,216.241c-0.049,0.752-0.133,1.417-0.287,1.805
		c-0.355,0.885-0.355,1.592-1.593,3.892c-1.236,2.299-2.123,1.591-2.123,1.591s-0.178-3.538-0.352-4.245
		c-0.18-0.707-1.77-3.361-2.3-4.953c-0.532-1.591-1.77-6.721-2.3-6.897c-0.531-0.177-6.369,0.353-9.021,0.353
		c-2.654,0-6.72,0.53-10.966,0.353c-4.246-0.176-5.572-0.796-5.572-0.796s-0.62,4.157-0.795,5.219
		c-0.176,1.061-0.355,6.19-0.178,7.958c0.178,1.769,0.709,6.014,0.709,6.014s-1.241,0.354-1.77-0.176
		c-0.278-0.278-0.942-1.475-1.59-2.731c-0.109,0.126-0.179,0.367-0.179,0.786c0,0,0.355,2.121,0.885,4.244
		c0.532,2.123,1.945,5.484,2.298,6.192c0.356,0.706,1.594,2.122,2.123,1.767c0.532-0.353,3.716,6.015,4.246,7.253
		c0.029,0.066,0.067,0.142,0.106,0.218c0.719,1.358,3.314,4.241,7.5,4.91c4.423,0.709,13.619-2.297,15.918-6.189
		c1.553-2.63,2.701-7.272,3.283-10.01c0.28-1.314,0.431-2.194,0.431-2.194s3.891-0.354,4.069-2.831
		c0.176-2.476,0.176-8.49,0.176-9.021C167.139,218.232,166.455,215.504,164.421,216.241"/>
	<path clip-path="url(#SVGID_4_)" fill="#2D2D2E" d="M154.322,259.877c1.016,0.888,2.023,1.847,2.959,2.825
		c1.725,1.802,3.18,3.662,3.921,5.259c-0.411-1.13-1.888-3.318-3.691-5.48c-0.906-1.085-1.893-2.163-2.871-3.098
		c-0.551-0.527-1.099-1.009-1.629-1.42c-1.176-0.917-2.252-1.483-3.04-1.423c0.64,0.411,1.339,0.912,2.065,1.467
		C152.78,258.576,153.551,259.203,154.322,259.877"/>
	<path clip-path="url(#SVGID_4_)" fill="#2D2D2E" d="M98.662,574.784c0,3.35,2.393,2.632,4.785,2.632
		c2.393,0,14.117,0.479,17.946,0.718s5.503,3.59,5.503,2.872s1.197-4.786,3.112-8.614c1.914-3.829,2.587-9.678,2.587-9.678
		c0.998-5.49,3.493-16.468,4.491-23.455c0.998-6.988,4.491-51.401,4.491-57.391c0-5.987,6.487-58.887,6.487-58.887
		s2.496,8.482,2.496,12.476c0,3.991,4.991,37.926,4.991,41.42s3.493,42.919,3.493,49.406c0,6.488,1.497,28.943,2.495,33.438
		c0.998,4.49,3.993,11.975,3.993,11.975c0.111,4.091,1.324,10.507,3.718,8.354c2.392-2.154,9.81-2.633,13.878-2.633
		c4.067,0,8.853-0.718,8.853-0.718v-4.503c0,0,1.996-5.988,2.494-7.984c0.5-1.996-1.995-12.475-1.995-16.47
		c0-3.992-0.499-6.985-0.499-10.479c0-3.492-0.499-18.464-0.499-25.451v-51.402c0-1.496-0.5-42.916-0.5-42.916l8.485-1.497
		c0,0-0.499-8.485-0.499-10.48c0-1.996-3.993-46.911-3.993-46.911s3.993-3.493,6.489-4.491c2.493-0.999,14.471-11.977,14.471-13.974
		c0-1.996-2.994-17.465-3.993-22.956c-0.997-5.488-6.986-56.392-6.986-56.392s-6.986-5.614-22.456-8.109
		c-15.472-2.496-16.968-6.862-16.968-6.862s0.112,0.97,0.112,1.867s-0.06,3.53-0.06,5.264c0,0.838-0.531,3.395-1.309,6.309
		c-0.759,2.846-1.75,6.022-2.716,8.298c-0.088,0.206-0.174,0.412-0.262,0.6c-0.006,0.016-0.013,0.032-0.02,0.047
		c-0.004-0.021-0.014-0.047-0.021-0.068c-0.836,3.101-1.739,6.4-2.656,9.726c-2.799,10.141-5.736,20.505-7.333,26.109
		c-0.75,2.641-1.206,4.229-1.206,4.229l-3.022-12.951l-2.945-12.625l-3.321-14.227c0.841-1.404,2.385-3.898,4.117-6.291
		c0.85-1.176,1.746-2.324,2.624-3.307c0.191-0.213,0.379-0.416,0.568-0.612c0.656-0.681,1.294-1.253,1.89-1.648
		c-0.676,0.052-1.525,0.698-2.44,1.674c-0.099,0.104-0.198,0.216-0.298,0.329c-0.832,0.938-1.708,2.117-2.551,3.359
		c-1.615,2.378-3.104,4.965-3.923,6.436c-0.415,0.744-0.659,1.204-0.659,1.204c-0.861-0.809-1.701-4.737-2.392-8.979
		c-0.894-5.473-1.54-11.473-1.676-11.979c-0.016-0.063-0.023-0.126-0.034-0.189l-4.901,4.412c0,0-7.486,4.491-10.481,4.99
		c-2.994,0.499-13.475,5.49-17.965,6.488c-4.492,0.997-3.994,4.491-3.994,4.491v4.991c0,1.996-0.498,2.993-1.995,6.986
		c-1.496,3.993-4.99,17.467-5.988,22.956c-0.999,5.49-5.99,20.96-7.486,23.455c-1.498,2.495-1.498,5.49-0.5,8.983
		c0.999,3.493,6.987,13.974,10.481,15.969c3.493,1.997,13.972,11.977,13.972,11.977s-0.498,2.496-0.498,5.491
		c0,2.994,0.998,3.991,0.998,3.991l-2.994,34.434l1.496,13.475c0,0-0.499,8.984-0.499,14.972c0,5.988,0,77.851-0.498,85.338
		c-0.499,7.484-3.293,36.774-5.29,41.267C99.857,563.06,98.662,571.435,98.662,574.784 M183.871,354.238
		c-0.498,1.372-3.118,1.372-3.118,1.372s-5.739,6.364-8.734,7.485c-2.995,1.124-6.862,1.497-9.607,1.249
		c-2.744-0.251-3.867-1.373-4.241-1.997c-0.375-0.624-1.622-2.745-1.622-2.745s-0.748-1.372-1.123-1.747
		c-0.375-0.373-0.998-0.872-1.123-1.246c-0.125-0.375-0.374-1.124-0.374-1.124s-2.246-0.499-2.621-0.623
		c-0.374-0.125-0.873-0.749-0.873-1.374c0-0.239-0.149-0.516-0.345-0.794c0.032,0.057,0.075,0.113,0.096,0.171
		c0.374,0.998,0.623,3.992-1.373,4.118c-0.375,1.497-0.749,4.117-1.995,4.117c-0.375,2.37-1.997,2.745-2.995,2.993
		c-0.999,0.251,0.375,1.623-0.874,2.247c-1.247,0.623-0.997,1.122-1.747,1.747c-0.748,0.623-2.12,0.623-4.741,0.623
		c-2.618,0-4.116-1.122-5.488-2.121c-1.373-0.998-3.245-2.245-4.618-2.37c-1.372-0.126-2.743-1.248-3.492-2.122
		c-0.748-0.873-4.242-3.992-4.242-3.992s1.497-10.23,6.362-12.227c4.867-1.995,5.491-1.621,6.24-1.621c0.748,0,3.367,0,4.865,0.124
		c1.497,0.125,3.743,0.375,4.366,0.499c0.625,0.125,1.498,0.125,2.245,0.75c0.75,0.622,4.492,1.995,4.492,1.995
		s-1.497,1.871-0.373,2.62c0.843,0.563,2.11,1.197,2.846,1.899c-0.201-0.245-0.387-0.472-0.476-0.652
		c-0.25-0.498-2.496-0.997-2.496-1.746s0.251-1.247,0.999-1.247h0.747c0,0-0.249-2.495,1.499-2.247
		c1.746,0.251,3.368,0.251,4.491-0.248c1.123-0.5,3.619-1.997,4.616-1.997c0.998,0,2.62-1.498,3.368-1.746
		c0.75-0.251,5.613-1.249,6.987-1.249c1.372,0,1.497-0.124,3.743-0.124s7.112-0.375,7.112-0.375S184.37,352.865,183.871,354.238"/>
	<path clip-path="url(#SVGID_4_)" fill="#2D2D2E" d="M126.283,223.628c0.647,1.256,1.312,2.454,1.59,2.731
		c0.529,0.53,1.769,0.177,1.769,0.177s-0.53-4.245-0.709-6.014c-0.176-1.769,0.002-6.898,0.179-7.959
		c0.175-1.061,0.795-5.219,0.795-5.219s1.326,0.62,5.571,0.797c4.246,0.176,8.313-0.353,10.967-0.353
		c2.651,0,8.489-0.531,9.021-0.354c0.53,0.176,1.768,5.306,2.299,6.898c0.531,1.591,2.121,4.245,2.3,4.952
		c0.175,0.707,0.353,4.245,0.353,4.245s0.886,0.708,2.123-1.591c1.238-2.299,1.238-3.007,1.593-3.892
		c0.154-0.387,0.238-1.052,0.287-1.805c0.061-0.964,0.064-2.076,0.064-2.97c0-1.592-0.706-3.538-0.706-5.307s0.53-5.306-2.476-6.898
		c-3.007-1.591-4.069-3.36-5.837-4.245c-1.77-0.885-6.014-5.837-13.443-4.068c-7.428,1.769-12.558,7.959-13.621,8.49
		c-1.06,0.531-3.89,2.653-4.066,6.545c-0.179,3.891,0,11.673,0.531,12.911C125.12,221.29,125.695,222.483,126.283,223.628"/>
	<path clip-path="url(#SVGID_4_)" fill="#E9E8E5" d="M140.773,268.397l3.32,14.227l5.469-15.845l-4.673-4.673
		C143.158,264.5,141.614,266.994,140.773,268.397"/>
	<path clip-path="url(#SVGID_4_)" fill="#E9E8E5" d="M162.533,243.141c-0.007,0.034-0.02,0.075-0.027,0.112
		c-0.701,2.841-5.622,12.632-12.295,12.869c-6.76,0.239-13.998-9.392-13.998-9.392s-0.025,0.057-0.057,0.151
		c-0.096,0.275-0.262,0.89-0.157,1.514c0.011,0.063,0.017,0.126,0.034,0.189c0.136,0.506,0.782,6.506,1.676,11.979
		c0.691,4.242,1.531,8.17,2.392,8.979c0,0,0.244-0.46,0.659-1.204c0.819-1.471,2.308-4.058,3.923-6.436
		c0.843-1.241,1.719-2.421,2.551-3.359c0.1-0.112,0.199-0.225,0.298-0.329c0.915-0.976,1.764-1.621,2.439-1.674
		c0.789-0.06,1.864,0.506,3.041,1.423c0.529,0.411,1.077,0.894,1.628,1.421c0.978,0.935,1.965,2.012,2.872,3.097
		c1.802,2.162,3.279,4.35,3.69,5.48c-0.741-1.597-2.196-3.457-3.921-5.259l-3.227,3.081l4.545,12.081
		c0.918-3.327,1.821-6.626,2.657-9.727c0.006,0.022,0.017,0.048,0.021,0.068c0.007-0.015,0.014-0.031,0.02-0.046
		c0.088-0.189,0.174-0.395,0.261-0.601c0.967-2.275,1.957-5.452,2.717-8.297c0.778-2.915,1.309-5.472,1.309-6.31
		c0-1.734,0.06-4.367,0.06-5.264s-0.112-1.867-0.112-1.867S164.687,243.081,162.533,243.141"/>
	<path clip-path="url(#SVGID_4_)" fill="#E2484A" d="M287.013,243.341c-2.685,1.13-17.522,1.977-20.208,1.554
		c-2.685-0.424-5.794-1.413-6.924-2.262c-0.308-0.231-0.958-0.496-1.731-0.783c4.123,19.558,14.874,58.582,14.874,58.582
		s13.887-41.665,15.179-58.008l-0.369-0.02C287.617,242.872,287.346,243.2,287.013,243.341"/>
	<path clip-path="url(#SVGID_4_)" fill="#E2B4A4" d="M286.952,219.776c-0.211-0.786-0.362-1.308-0.362-1.308l0.815-10.886
		c-1.91,2.578-3.857,4.391-4.207,4.811c-0.708,0.848-1.696,3.674-8.62,3.39c-6.926-0.281-6.501-3.674-10.316-6.075
		c-1-0.63-1.863-1.585-2.603-2.703c-0.151,2.76-0.563,9.771-0.903,10.563c-0.016,0.034-0.047,0.061-0.067,0.093l-0.102,0.807
		c0,0-4.687,2.639-4.044,13.391c0.026,0.431,0.045,0.85,0.088,1.307c0.164,1.728,0.63,4.381,1.301,7.647
		c0.07,0.339,0.142,0.685,0.217,1.037c0.774,0.287,1.423,0.552,1.732,0.783c1.13,0.849,4.239,1.838,6.924,2.262
		c2.685,0.423,17.523-0.424,20.208-1.554c0.333-0.141,0.604-0.469,0.821-0.937c0.113-0.243,0.212-0.524,0.298-0.836
		c0.059-0.215,0.11-0.45,0.159-0.694c0.536-15.107-1.701-21.274-1.701-21.274C286.697,219.643,286.828,219.714,286.952,219.776"/>
	<path clip-path="url(#SVGID_4_)" fill="#E2B4A4" d="M321.447,356.769c0,0-2.261,2.261-3.768,2.261h-5.276
		c-1.886,0-1.884,1.885-4.521,3.017c-2.64,1.129-6.03,2.261-6.407,3.39c-0.377,1.132,1.884,2.638,4.899,2.638
		c3.014,0,5.276-1.884,5.276-1.884s3.014,4.146,4.523,7.161c1.245,2.491,1.716,8.056,1.843,9.919
		c0.028,0.393,0.039,0.631,0.039,0.631s3.016-3.392,4.9-4.898c1.886-1.506,2.26-4.9,4.523-7.161
		c1.062-1.062,1.455-3.203,1.537-5.333c0.095-2.405-0.208-4.796-0.408-5.595C328.231,359.408,321.447,356.769,321.447,356.769"/>
	<path clip-path="url(#SVGID_4_)" fill="#F5C2B0" d="M284.895,618.295c-0.398-0.03-0.84-0.066-1.312-0.106
		c-5.036-0.421-13.78-1.29-14.79-1.391c-0.585,3.091-1.71,8.961-1.987,9.789c-0.144,0.435-0.4,1.595-0.662,2.858
		c0.862,1.073,2.702,3.253,3.677,3.547c4.981,1.505,3.851,1.129,8.75,1.129c1.566,0,3.125-0.193,4.52-0.456
		c1.677-0.314,3.113-0.728,4.049-1.028c0.637-4.22,1.228-12.638,1.228-13.588c0-0.146-0.084-0.317-0.234-0.504
		C287.413,618.489,286.381,618.409,284.895,618.295"/>
	<path clip-path="url(#SVGID_4_)" fill="#F5C2B0" d="M199.729,615.658c-0.042-0.028-0.088-0.068-0.132-0.104
		c-0.712,3.448-2.959,14.714-2.869,19.092c0.281,0.436,1.396,0.984,5.263,0.984c6.405,0,12.434,0.376,12.434,0.376
		s1.508-7.536,1.508-10.551s1.884-7.915,1.884-7.915C211.411,620.178,200.859,616.41,199.729,615.658"/>
	<path clip-path="url(#SVGID_4_)" fill="#F5C2B0" d="M270.952,375.988c-1.131-0.376,3.014-1.884,3.014-3.768
		c2.638-1.508,4.146-5.276,2.638-5.651c1.507-1.886,1.507-5.277,0.377-6.032c-1.131-0.754,6.031,0,6.406-3.39
		c0.377-3.392-7.537-3.392-8.666-3.392c-1.131,0-5.278-1.13-6.408-1.508c-1.131-0.378-3.015-0.754-5.652-0.378
		c-2.638,0.378-6.028,2.262-8.667,2.262s-4.522-1.129-6.03-1.884c-1.507-0.754-7.913,2.261-9.421,12.058
		c0,0,12.059,10.93,15.828,12.814c3.768,1.885,8.666,2.262,11.682,2.262C269.067,379.381,272.082,376.365,270.952,375.988"/>
	<path clip-path="url(#SVGID_4_)" fill="#2D2D2E" d="M324.462,331.144c0-4.899-0.377-13.19-0.377-15.451
		c0-2.261-2.26-28.261-2.26-33.161c0-4.899,1.13-24.495,1.13-26.755c0-2.261-2.261-19.219-6.407-20.35
		c-4.145-1.13-4.145-1.507-7.537-2.261c-2.099-0.467-4.92-1.51-7.035-2.418c-1.567-4.659-3.929-11.305-4.283-15.388
		c-0.565-6.5-0.282-13.849-0.282-16.676c0-1.143-0.465-2.469-1.015-3.703c-0.061,0.443-0.123,0.882-0.197,1.302
		c-0.424,2.401-3.251,2.826-4.806,1.695c-0.141,3.563-2.046,6.981-3.988,9.603l-0.816,10.887c0,0,0.152,0.522,0.363,1.308
		c-0.124-0.063-0.255-0.133-0.363-0.176c0,0,2.238,6.166,1.702,21.273c-0.049,0.245-0.1,0.48-0.16,0.695
		c0.042-0.004,0.085-0.009,0.129-0.014c-0.014,0.281-0.033,0.57-0.057,0.869c-1.292,16.344-15.18,58.009-15.18,58.009
		s-10.751-39.024-14.874-58.583c-0.075-0.352-0.147-0.697-0.217-1.037c-0.672-3.266-1.138-5.919-1.302-7.647
		c-0.043-0.456-0.061-0.875-0.087-1.306c-0.643-10.752,4.043-13.391,4.043-13.391l0.103-0.807c0.02-0.033,0.051-0.059,0.066-0.093
		c0.34-0.792,0.752-7.803,0.904-10.563c-2.085-3.146-3.199-7.617-3.616-10.016c-2.338,0.624-3.426-0.602-3.935-2.04
		c-0.061,3.229-0.349,6.276-1.069,8.257c-2.262,6.219-2.545,7.915-2.545,11.306c0,1.673-0.412,5.201-0.83,8.348
		c-1.305,1.045-2.584,1.947-3.584,2.392c-3.392,1.508-19.219,2.638-22.233,6.406c-3.77-0.376-5.654,3.014-7.915,11.683
		c-2.261,8.666-12.433,47.481-12.811,50.872c-0.378,3.392-3.392,11.684-4.146,13.945c-0.754,2.261-1.508,5.274-0.754,7.535
		c0.754,2.261,0.378,5.277,0.754,8.291c0.376,3.015,3.768,9.798,5.653,12.436c1.884,2.637,7.159,11.682,9.419,13.566
		c2.262,1.883,7.162,7.536,7.162,7.536s3.014,9.421,3.014,13.19c0,3.768-5.653,16.58-6.407,20.349
		c-0.753,3.768-3.015,33.162-3.392,42.205c-0.377,9.045-4.522,31.278-4.522,38.438c0,7.161-0.376,16.58-0.376,19.219
		c0,2.64-3.393,18.842-4.146,27.511c-0.752,8.667-4.897,30.9-5.275,37.683c-0.377,6.783-2.261,29.395-2.261,36.177
		c0,6.783-0.377,7.161-0.754,13.19c-0.362,5.801,1.367,9.154,2.506,10.07c0.044,0.036,0.09,0.076,0.132,0.104
		c1.131,0.752,11.682,4.52,18.088,1.883c0,0-1.884,4.9-1.884,7.915c0,3.014-1.508,10.551-1.508,10.551s-6.029-0.376-12.434-0.376
		c-3.867,0-4.982-0.549-5.263-0.984c-0.098-0.151-0.1-0.29-0.076-0.386c-0.257,0.568-1.322,2.804-2.952,4.761
		c-1.885,2.261-1.803,2.261-1.803,4.144s2.934,3.017,4.439,3.394c1.508,0.375,16.583-0.377,19.22-1.884
		c2.638-1.508,0.377-7.161,1.508-10.176c1.13-3.013,0.753-6.406,2.638-9.421c1.884-3.015,2.636-4.522,4.522-7.537
		c1.005-1.606,0.614-3.423,0.032-4.773c3.322-3.615,5.62-8.173,5.62-11.055c0-4.521-1.13-13.941-1.13-21.103
		c0-7.16,2.638-40.32,3.015-44.842c0.376-4.522,1.13-15.075,1.506-17.712c0.377-2.639,1.886-5.277,2.261-9.046
		c0.377-3.769,5.653-9.042,5.653-15.448c0-6.407,0.376-10.176,2.262-15.827c1.885-5.653,11.304-45.596,13.565-49.367
		c2.262-3.768,4.147-11.68,5.654-13.564c1.507-1.885,6.029-6.783,6.029-6.783s4.899,14.695,6.03,25.624
		c1.13,10.929,2.261,51.25,2.261,58.032c0,6.783-0.378,15.828-0.378,20.351c0,4.521,0.001,7.914,0.378,11.683
		c0.376,3.768-0.378,9.797-0.755,16.58c-0.376,6.783-2.639,18.841-3.015,26.755c-0.376,7.915-2.638,18.842-3.391,25.248
		c-0.753,6.407-1.13,12.059-1.507,15.827c-0.377,3.77,0.377,8.668,0.377,8.668s0.039,0.004,0.103,0.01
		c1.009,0.101,9.753,0.97,14.789,1.391c0.472,0.04,0.914,0.076,1.312,0.106c1.487,0.114,2.518,0.194,3.239,0.25
		c0.15,0.188,0.234,0.358,0.234,0.504c0,0.95-0.591,9.368-1.228,13.588c-0.936,0.301-2.372,0.713-4.049,1.028
		c-1.395,0.263-2.954,0.456-4.52,0.456c-4.899,0-3.769,0.376-8.75-1.129c-0.975-0.294-2.815-2.474-3.677-3.547
		c-0.289-0.361-0.468-0.598-0.468-0.598s-3.014,6.405-3.014,9.798c0,1.131,0.376,4.899,2.26,5.653
		c1.884,0.751,4.605,3.577,7.242,3.577c2.638,0,10.094-2.448,11.6-2.448c1.508,0,3.768-0.375,4.146-2.261
		c0.352-1.765,0.376-5.506,0.376-5.979c0.416-3.298,0.984-7.623,1.211-8.531c0.363-1.45,0.9-11.438,0.941-12.197
		c1.882-6.536,7.269-25.728,7.269-31.327c0-6.784,4.522-30.899,6.029-41.074c1.509-10.176,3.016-15.827,3.016-19.973V510.52
		c0-5.277,0.753-25.25,2.26-33.162c1.506-7.914-0.754-25.626,1.506-33.916c2.263-8.29,5.277-23.362,5.654-27.131
		s3.015-12.06,3.015-16.583c0-4.522-0.376-12.812-1.131-15.826c-0.049-0.195-0.058-0.407-0.039-0.631
		c-0.127-1.864-0.598-7.429-1.844-9.92c-1.508-3.015-4.522-7.161-4.522-7.161s-2.262,1.884-5.276,1.884
		c-3.015,0-5.276-1.506-4.899-2.638c0.377-1.129,3.767-2.26,6.406-3.39c2.638-1.131,2.636-3.016,4.522-3.016h5.276
		c1.507,0,3.768-2.262,3.768-2.262s6.784,2.64,7.16,4.146c0.2,0.8,0.503,3.19,0.408,5.596c1.115-2.588,2.004-5.207,1.853-6.727
		C330.492,356.017,324.462,336.042,324.462,331.144 M276.981,360.537c1.13,0.755,1.13,4.146-0.377,6.031
		c1.508,0.376,0,4.144-2.639,5.652c0,1.883-4.144,3.392-3.013,3.768c1.13,0.377-1.885,3.392-4.9,3.392
		c-3.015,0-7.914-0.377-11.681-2.261c-3.769-1.885-15.828-12.814-15.828-12.814c1.507-9.797,7.914-12.812,9.42-12.058
		c1.508,0.754,3.392,1.884,6.031,1.884c2.638,0,6.029-1.884,8.667-2.262c2.636-0.376,4.521,0,5.652,0.378
		c1.13,0.378,5.276,1.507,6.407,1.507c1.13,0,9.043,0,8.666,3.392C283.011,360.537,275.851,359.783,276.981,360.537"/>
	<path clip-path="url(#SVGID_4_)" fill="#2D2D2E" d="M196.651,634.261c0.041-0.088,0.063-0.14,0.063-0.14
		S196.673,634.175,196.651,634.261"/>
	<path clip-path="url(#SVGID_4_)" fill="#F5C2B0" d="M296.752,188.185c-0.207,0.723-0.608,1.138-1.011,1.295
		c-0.768,0.301-1.54-0.362-0.946-1.747c0.903-2.108-0.752-5.72-2.408-6.473c-0.496-0.225-0.865-0.635-1.204-1.204
		c-0.79-1.332-1.384-3.64-2.861-7.226c-2.108-5.118-7.526-6.021-12.494-7.677c-2.657-0.885-4.661-2.801-5.957-4.395
		c-0.478,0.174-0.982,0.371-1.515,0.6c-0.08,1.852-0.492,3.729-1.411,4.096c-1.505,0.602-2.107,1.505-2.408,3.612
		c-0.302,2.108-3.764,7.527-6.473,9.183c-0.837,0.512-1.257,1.125-1.438,1.807c-0.404,1.525,0.385,3.397,0.385,5.269
		c0,2.709-1.205,4.516-1.205,4.516s-1.204-3.312-1.807-5.269c-0.253-0.826-0.777-1.462-1.318-2.048
		c-0.181,0.122-0.376,0.315-0.542,0.624c-0.262,0.487-0.453,1.256-0.397,2.477c0.15,3.312,0.451,5.42,0.451,6.775
		c0,0.607,0.035,2,0.475,3.245c0.541,1.532,1.701,2.839,4.191,2.174c0.446,2.556,1.631,7.318,3.852,10.67
		c0.788,1.191,1.707,2.208,2.771,2.879c4.066,2.558,3.615,6.172,10.99,6.472c7.377,0.302,8.43-2.708,9.183-3.612
		c0.373-0.447,2.447-2.378,4.484-5.125c2.068-2.794,4.095-6.435,4.248-10.23c1.656,1.204,4.666,0.752,5.119-1.806
		c0.078-0.447,0.144-0.915,0.209-1.387c0.297-2.229,0.444-4.597,0.693-5.839c0.149-0.747,0.483-2.419,0.506-3.768
		C298.198,186.291,297.138,186.834,296.752,188.185"/>
	<path clip-path="url(#SVGID_4_)" fill="#2D2D2E" d="M252.014,181.803c0.038,0.393,0.081,0.847,0.125,1.345
		c0.166-0.309,0.361-0.502,0.542-0.624c0.541,0.586,1.065,1.222,1.318,2.048c0.603,1.957,1.807,5.269,1.807,5.269
		s1.205-1.807,1.205-4.517c0-1.872-0.789-3.743-0.385-5.268c0.181-0.682,0.601-1.295,1.438-1.807
		c2.71-1.656,6.172-7.075,6.473-9.183c0.301-2.107,0.904-3.01,2.409-3.613c0.919-0.366,1.331-2.243,1.411-4.095
		c0.052-1.188-0.031-2.366-0.207-3.131c0,0,0.593,1.144,1.721,2.531c1.296,1.593,3.3,3.509,5.957,4.395
		c4.968,1.655,10.386,2.559,12.495,7.677c1.476,3.586,2.07,5.894,2.86,7.226c0.339,0.569,0.708,0.978,1.204,1.204
		c1.656,0.753,3.312,4.365,2.408,6.473c-0.593,1.385,0.178,2.048,0.947,1.747c0.402-0.157,0.803-0.572,1.01-1.295
		c0.386-1.351,1.447-1.894,2.162-2.112c0.401-0.123,0.698-0.146,0.698-0.146s3.011-4.366,1.355-10.689
		c-1.656-6.322-1.656-5.72-2.408-9.935c-0.753-4.215-3.914-8.129-6.774-9.183c-2.861-1.053-5.419-3.312-7.376-4.064
		c-1.958-0.753-6.172-1.506-8.281-1.356c-2.106,0.152-6.624,3.012-6.624,3.012s-1.956-2.258-5.719-0.904
		c-3.764,1.355-8.129,5.721-9.033,8.731c-0.903,3.011-2.258,9.033-2.86,11.743c-0.602,2.709-1.204,5.118-0.903,6.774
		C251.11,180.72,251.525,181.264,252.014,181.803"/>
	<path clip-path="url(#SVGID_4_)" fill="#E2B4A4" d="M514.484,227.149c0.155,4.007,0.46,9.186,0.46,9.186s2.014,0.916,3.662,2.564
		c1.649,1.647,8.424,15.198,8.424,15.198s5.676-8.606,7.69-12.635c2.014-4.028,5.492-4.395,6.043-6.775
		c0.375-1.625,0.792-5.383,1.02-9.177c0.105-1.764,0.17-3.537,0.17-5.106c0-4.606,0.045-7.743,0.051-8.151
		c0.002-0.03,0.002-0.049,0.002-0.049v0.002l0.025-4.036c-0.441,0.809-0.911,1.565-1.398,2.28
		c-4.164,6.112-9.677,8.855-10.856,8.855c-1.831,0-5.677-0.365-8.058-2.562c-2.381-2.198-4.395-3.846-4.761-4.579
		c-0.88-0.907-1.624-1.883-2.261-2.89c-0.112,1.879-0.242,4.14-0.37,6.537c0.027,2.073,0.068,5.652,0.068,7.889
		C514.396,224.542,514.432,225.778,514.484,227.149"/>
	<path clip-path="url(#SVGID_4_)" fill="#E2B4A4" d="M536.084,367.388c-3.723-1.744-8.96-3.454-11.984-4.887
		c-3.479-1.648-5.859-5.127-5.859-5.127c-11.536,0-14.282,7.692-14.282,7.692s4.943,2.928,5.31,3.66
		c0.366,0.734,2.197,4.213,3.846,7.875c1.447,3.218,4.309,6.857,6.1,8.439c3.954-4.982,11.199-12.817,14.042-14.848
		C534.229,369.496,535.189,368.495,536.084,367.388"/>
	<path clip-path="url(#SVGID_4_)" fill="#E2B4A4" d="M534.354,394.912c-0.174,0.277-0.338,0.516-0.503,0.754
		c1.191,0.316,2.162,0.528,2.518,0.528c1.099,0,1.28-2.929,2.746-2.929c1.465,0,0.732-3.663,2.563-3.846
		c1.832-0.184,3.479-4.029,3.479-4.029s2.38-0.916,3.112-1.649c0.465-0.464-0.324-1.959-1.478-3.271
		C543.492,384.227,537.088,390.539,534.354,394.912"/>
	<path clip-path="url(#SVGID_4_)" fill="#F5C2B0" d="M536.285,636.051c-0.561-1.679-2.266-3.771-2.847-4.739
		c-1.099-1.83-1.831-5.676-2.014-7.508c-0.036-0.37-0.167-0.879-0.352-1.477c-0.73-2.356-2.36-6.146-2.944-8.777
		c-0.733-3.297-0.733-4.76-1.648-7.141c-0.916-2.38-2.747-8.24-2.747-9.156s-1.098-28.566-1.098-39.92
		c3.479-15.564,0.182-26.551-0.733-31.494c-0.915-4.945,1.282-26.369,1.831-32.045c0.426-4.396,0.96-17.129,1.18-22.655
		c-7.331,0.252-28.444,0.004-32.254-0.044c0.501,8.541,1.043,18.251,1.043,20.318c0,3.846,1.466,14.1,1.466,25.818
		s2.38,26.736,2.93,33.145c0.549,6.408,12.269,46.145,14.282,51.271c2.016,5.127,1.1,4.762-0.182,9.521
		c-1.282,4.762,2.746,8.607,2.746,8.607s-0.184,5.676-0.184,6.773c0,0.737,0,1.401-0.056,3.795
		c-0.027,1.177-0.066,2.764-0.128,4.996c-0.182,6.775,4.029,4.395,4.944,3.662c0.917-0.732,7.69-1.099,13.917-0.549
		c2.632,0.232,3.231-0.683,2.968-1.952C536.366,636.353,536.326,636.201,536.285,636.051"/>
	<path clip-path="url(#SVGID_4_)" fill="#F5C2B0" d="M640.607,631.913c-0.955-0.624-2.277-1.325-3.893-2.248
		c-6.409-3.664-16.48-10.805-19.228-13.369c-2.746-2.563-5.127-5.309-5.858-10.438c-0.733-5.127-5.493-40.285-5.677-46.328
		s-6.593-42.48-7.691-44.678s-2.24-15.02-3.479-20.875c-1.225-5.791-4.073-16.181-6.119-23.438
		c-2.504,0.009-23.344,0.081-40.411,0.218c2.907,8.375,10.167,28.422,14.486,32.74c4.489,4.49,7.69,10.805,8.789,17.58
		c1.1,6.775,0.916,28.748,8.057,42.117c7.142,13.365,8.424,17.943,11.354,28.199c2.93,10.254,3.113,15.749,3.113,19.594v8.286v1.417
		c0,0,1.281,4.395,11.353,9.705s13.55,7.326,16.114,8.607c2.563,1.281,8.057,5.859,15.748,0.182
		C643.017,634.939,643.44,633.768,640.607,631.913"/>
	<path clip-path="url(#SVGID_4_)" fill="#F5C2B0" d="M553.948,366.714c0,0-11.537-6.96-13.186-6.777c0,0-2.044,4.187-4.679,7.451
		c-0.895,1.107-1.855,2.108-2.829,2.804c-2.843,2.031-10.088,9.866-14.042,14.848c-1.394,1.756-2.382,3.161-2.62,3.829
		c-0.916,2.564-3.664,10.805-2.197,11.169c1.465,0.367,3.661-2.197,3.661-2.197s-2.014,3.846,0.366,4.762s3.479-1.83,4.762-4.577
		l1.281-2.748c0,0-2.197,7.325,0.732,7.141c2.931-0.182,3.846-4.943,3.846-4.943s1.5,2.973,4.808-1.81
		c0.165-0.238,0.328-0.476,0.503-0.754c2.733-4.373,9.138-10.684,12.439-14.442c1.122-1.277,1.886-2.26,2.026-2.772
		C549.37,375.685,553.948,366.714,553.948,366.714"/>
	<path clip-path="url(#SVGID_4_)" fill="#2D2D2E" d="M536.406,636.502c0.264,1.271-0.336,2.186-2.968,1.952
		c-6.227-0.551-13-0.183-13.917,0.549c-0.915,0.732-5.126,3.113-4.944-3.662c0.06-2.232,0.1-3.818,0.128-4.996
		c-0.042-0.046-0.086-0.083-0.128-0.131c0,0-0.732,9.521-0.732,11.811c0,2.29-2.105,7.324,11.169,7.232
		c13.278-0.092,13.644-5.401,12.819-7.781C537.527,640.594,536.984,638.644,536.406,636.502"/>
	<path clip-path="url(#SVGID_4_)" fill="#2D2D2E" d="M536.285,636.051c-0.948-3.53-1.948-7.41-2.114-7.853
		c-0.274-0.732-2.838-6.316-2.838-6.316s-0.092,0.164-0.26,0.445c0.185,0.598,0.315,1.106,0.352,1.477
		c0.183,1.832,0.915,5.678,2.014,7.508C534.02,632.28,535.725,634.372,536.285,636.051"/>
	<path clip-path="url(#SVGID_4_)" fill="#2D2D2E" d="M640.835,631.952c-0.071-0.011-0.154-0.027-0.228-0.039
		c2.833,1.853,2.409,3.026-3.343,7.271c-7.691,5.678-13.185,1.1-15.748-0.182c-2.564-1.281-6.043-3.297-16.114-8.607
		s-11.353-9.705-11.353-9.705v-1.417c-0.294-0.09-0.458-0.14-0.458-0.14s-1.739,9.889,0.641,14.742
		c2.38,4.852,4.853,3.57,7.874,5.676s7.781,6.775,7.781,7.232c0,0.459,3.389-0.09,3.389-0.09l1.648-2.564l-1.557-4.578
		c0,0,9.338,1.464,12.359,4.486c3.021,3.021,3.938,5.127,10.163,5.494c6.227,0.365,18.861-4.578,20.325-9.613
		C657.681,634.884,651.913,633.692,640.835,631.952"/>
	<path clip-path="url(#SVGID_4_)" fill="#2D2D2E" d="M542.031,208.171l-0.025,4.035c0.011,0.01,3.145,3.058,6.832,6.623
		c-0.475-1.856-1.178-4.568-2.215-8.496c-1.432-5.418-1.663-8.893-1.59-10.908C544.459,202.797,543.377,205.706,542.031,208.171"/>
	<path clip-path="url(#SVGID_4_)" fill="#2D2D2E" d="M592.401,321.482c0-4.577-0.549-32.044-1.099-35.522
		c-0.549-3.481-5.311-34.426-6.775-40.469s-2.381-13.916-7.143-13.184c-4.885-3.316-18.906-5.299-20.216-5.479
		c1.838,1.744,3.155,2.968,3.371,3.099c4.668,2.837,3.569,3.57,3.569,3.57c-0.641,0.092-4.485,1.008-9.612-0.824
		c-5.127-1.831-6.592-0.184-5.86,1.099c0.733,1.281-1.647,3.295-3.295,4.211c-1.649,0.916-2.381,2.93-2.748,4.944
		c-0.366,2.015-1.464,2.93-2.746,4.578c-1.281,1.648-5.677,19.045-6.226,23.439c-0.549,4.395-4.03,24.17-4.03,24.17
		s-2.562-8.789-2.929-9.704c-0.365-0.915-7.142-22.89-7.508-25.819c-0.365-2.93-3.569-13.916-3.569-13.916s-6.869-7.326-9.798-8.79
		c-2.929-1.465,1.282-4.396,1.282-4.396s-8.697,3.571-12.177,3.571s-2.015-0.366-2.015-0.366s3.069-2.853,5.243-4.762
		c-8.691,4.448-21.112,13.586-23.829,16.756c-3.296,3.846-11.354,51.089-11.354,63.541c0,12.451,22.89,47.426,22.89,47.426
		l-6.592,24.537c-1.832,9.705,5.127,38.453,7.691,49.44c2.563,10.987,5.126,38.454,5.126,38.454s0.22,0.003,0.604,0.007
		c3.81,0.049,24.923,0.297,32.254,0.045c0.451-0.016,0.862-0.032,1.201-0.052c2.362-0.135,11.518-0.244,22.137-0.33
		c17.067-0.137,37.907-0.209,40.411-0.218c0.165-0.001,0.26-0.001,0.26-0.001s-2.014-12.635-2.014-15.016s-3.479-14.1-3.846-19.227
		s-3.846-18.678-3.846-24.537s-0.549-7.508-2.196-10.805c-1.648-3.295-1.282-3.661-1.282-9.154c0-5.495-4.029-11.171-4.029-11.171
		c0.733-2.747,0-9.521-1.83-10.988c0.549-0.548,2.379-3.662,2.379-3.662l-0.549-4.577c0,0,10.621-15.931,13.002-19.595
		C587.092,338.147,592.401,326.061,592.401,321.482 M548.82,377.698c-0.14,0.512-0.904,1.495-2.026,2.771
		c1.152,1.313,1.941,2.808,1.477,3.272c-0.732,0.733-3.112,1.648-3.112,1.648s-1.648,3.846-3.479,4.03
		c-1.831,0.183-1.099,3.845-2.563,3.845c-1.466,0-1.648,2.93-2.746,2.93c-0.355,0-1.326-0.212-2.518-0.528
		c-3.308,4.783-4.808,1.809-4.808,1.809s-0.915,4.762-3.846,4.944c-2.93,0.184-0.731-7.141-0.731-7.141l-1.282,2.747
		c-1.282,2.747-2.381,5.493-4.762,4.577c-2.38-0.916-0.365-4.761-0.365-4.761s-2.197,2.564-3.662,2.197
		c-1.466-0.364,1.28-8.606,2.196-11.169c0.239-0.668,1.228-2.073,2.621-3.829c-1.791-1.582-4.652-5.222-6.1-8.44
		c-1.648-3.662-3.48-7.14-3.846-7.875c-0.366-0.731-5.31-3.66-5.31-3.66s2.746-7.691,14.282-7.691c0,0,2.38,3.478,5.859,5.127
		c3.024,1.432,8.262,3.142,11.984,4.886c2.636-3.263,4.68-7.451,4.68-7.451c1.647-0.182,13.185,6.778,13.185,6.778
		S549.37,375.684,548.82,377.698"/>
	<path clip-path="url(#SVGID_4_)" fill="#E9E8E5" d="M560.54,229.927c-0.216-0.131-1.533-1.354-3.371-3.099
		c-2.328-2.21-5.491-5.255-8.331-7.999c-3.688-3.565-6.821-6.613-6.832-6.623l-0.001-0.002c0,0,0,0.02-0.001,0.049
		c-0.006,0.408-0.051,3.546-0.051,8.152c0,1.569-0.064,3.341-0.17,5.106c-0.228,3.794-0.645,7.552-1.02,9.177
		c-0.55,2.38-4.029,2.747-6.043,6.775c-2.015,4.028-7.69,12.635-7.69,12.635s-6.775-13.551-8.425-15.198
		c-1.647-1.649-3.661-2.565-3.661-2.565s-0.305-5.179-0.46-9.185c-0.053-1.371-0.09-2.608-0.09-3.45
		c0-2.236-0.041-5.815-0.067-7.888c-0.013-0.984-0.021-1.631-0.021-1.631s-2.291,4.76-4.488,6.957
		c-2.197,2.197-8.424,7.141-10.072,8.422c-0.383,0.299-0.964,0.794-1.623,1.373c-2.174,1.908-5.243,4.762-5.243,4.762
		s-1.465,0.366,2.015,0.366s12.177-3.571,12.177-3.571s-4.211,2.93-1.282,4.395c2.93,1.465,9.798,8.79,9.798,8.79
		s3.204,10.986,3.569,13.916s7.143,24.904,7.508,25.819c0.367,0.915,2.93,9.705,2.93,9.705s3.48-19.776,4.029-24.17
		c0.549-4.395,4.944-21.791,6.226-23.44c1.282-1.647,2.38-2.562,2.746-4.578c0.367-2.014,1.099-4.027,2.747-4.943
		s4.029-2.93,3.296-4.211c-0.731-1.283,0.733-2.931,5.86-1.1c5.127,1.832,8.972,0.916,9.612,0.824
		C564.109,233.497,565.208,232.765,560.54,229.927"/>
	<path clip-path="url(#SVGID_4_)" fill="#F5C2B0" d="M508.079,195.468c0.791,0.396,1.583,1.187,1.583,1.187
		s-0.287,7.873,3.887,14.482c0.688,1.088,1.492,2.143,2.442,3.122c0.396,0.792,2.571,2.571,5.143,4.946
		c2.571,2.373,6.726,2.768,8.704,2.768c1.273,0,7.229-2.963,11.727-9.566c0.526-0.772,1.035-1.588,1.511-2.462
		c1.454-2.663,2.622-5.805,3.243-9.448c0.136-0.797,0.253-1.612,0.332-2.458c5.144-3.56,4.945-4.945,5.538-6.329
		c0.594-1.385,4.154-8.902,1.582-9.89c-0.765-0.295-1.529-0.181-2.231,0.138c-0.565,2.093-5.69,7.444-5.877,6.884
		c-0.198-0.594,3.634-9.421,2.373-15.923c-0.188-0.972-4.154-2.177-7.912-3.165c-3.758-0.989-17.605-7.912-17.605-7.912
		c-3.955,2.374-8.505,4.154-9.295,6.131c-0.792,1.978-3.088,9.476-3.363,11.671c-0.297,2.373-0.197,4.302-0.321,8.307
		c-0.032,1.057-2.963-3.1-3.677-6.54c-0.896-0.017-3.951,0.303-1.738,5.749C506.299,195.468,507.288,195.072,508.079,195.468"/>
	<path clip-path="url(#SVGID_4_)" fill="#2D2D2E" d="M505.861,181.411c0.714,3.44,3.645,7.597,3.677,6.541
		c0.124-4.006,0.024-5.935,0.321-8.308c0.275-2.195,2.571-9.692,3.363-11.671c0.79-1.977,5.34-3.757,9.296-6.131
		c0,0,13.847,6.923,17.604,7.912c3.758,0.989,7.725,2.194,7.912,3.165c1.261,6.502-2.571,15.329-2.373,15.923
		c0.187,0.56,5.312-4.79,5.877-6.884c0.032-0.122,0.057-0.238,0.057-0.336c0-1.78,1.78-32.637-23.538-31.451
		c-25.319,1.187-22.352,26.308-22.352,29.868C505.706,180.472,505.764,180.935,505.861,181.411"/>
	<path clip-path="url(#SVGID_4_)" fill="#E2484A" d="M407.592,236.832c-1.117-4.871-4.875-21.52-4.494-23.233l0.447-2.012
		l3.195-5.489c-1.112-1.442-2.249-2.808-3.301-3.879c-0.949-0.968-1.826-1.69-2.547-2.006c-0.018-0.008-0.037-0.019-0.055-0.027
		h-0.022c-0.416-0.031-0.845-0.009-1.292,0.117c-0.135,0.038-0.262,0.088-0.393,0.132c-0.023,0.01-0.049,0.024-0.072,0.035
		c-0.045,0.021-0.09,0.042-0.137,0.066c-0.683,0.35-1.547,1.059-2.518,2.006c-1,0.976-2.107,2.198-3.232,3.515l3.334,6.088
		l-5.426,31.117l-0.095,0.549l6.73,40.684l10.186-46.322C407.9,238.173,407.784,237.674,407.592,236.832"/>
	<path clip-path="url(#SVGID_4_)" fill="#E2484A" d="M401.311,200.252c-0.116-0.024-0.232-0.047-0.353-0.061
		c-0.01-0.001-0.021,0-0.032-0.001c0.008,0,0.017,0.003,0.025,0.004C401.07,200.207,401.19,200.228,401.311,200.252"/>
	<path clip-path="url(#SVGID_4_)" fill="#E2B4A4" d="M418.59,172.292c0,0-9.613,8.927-12.635,9.751
		c-3.021,0.824-9.064,0.274-13.183-0.687c-4.121-0.961-11.995-10.644-11.995-10.644s-0.024,1.231-0.042,2.93
		c-0.016,1.494-0.028,3.349-0.016,5.058c0.023,0.099,0.05,0.199,0.08,0.302c1.71,5.748,14.307,17.736,14.307,17.736l0.925,0.874
		l2.996,2.827c0.049-0.005,0.104-0.024,0.154-0.028c-0.016,0.006-0.034,0.018-0.05,0.025c0.131-0.044,0.258-0.094,0.393-0.132
		c0.447-0.127,0.875-0.148,1.292-0.118l0.007-0.007c-0.006-0.002-0.012-0.006-0.018-0.008l0.014,0.003l2.757-2.841
		c0,0,10.688-12.206,13.844-17.155c0.015-0.023,0.031-0.048,0.046-0.071c0.352-0.557,0.61-1.024,0.736-1.36
		c0.092-0.245,0.172-0.342,0.242-0.341c0.226-2.693,0.187-4.934,0.16-5.764C418.596,172.418,418.59,172.292,418.59,172.292"/>
	<path clip-path="url(#SVGID_4_)" fill="#E2B4A4" d="M385.064,345.812c-3.054,2.943-11.337,10.998-11.337,11.745
		c0,0.778,1.985,6.163,4.825,7.774c0.971-0.892,2.998-1.157,4.879-2.098c2.931-1.464,11.171-8.239,11.721-9.339
		c0.549-1.099,0.549-6.957,0.549-6.957s-3.48-0.367-6.958-0.367C387.702,346.569,386.396,346.302,385.064,345.812"/>
	<path clip-path="url(#SVGID_4_)" fill="#F5C2B0" d="M377.283,156.084c0,0,1.65,8.702,1.65,11.102c0,0.97,0.025,3.412,0.054,5.976
		c0.021-1.857,0.047-3.201,0.047-3.201s8.601,10.577,13.103,11.627c4.5,1.051,11.101,1.651,14.402,0.751
		c3.301-0.901,13.803-10.652,13.803-10.652s0.006,0.138,0.015,0.381c0.084-0.603,0.136-0.982,0.136-0.982s2.25-11.702,2.25-14.852
		c3.3,0.6,4.8-3.151,5.101-5.551c0.3-2.401,3.15-13.803-0.45-12.602c-0.035,0.011-0.065,0.016-0.102,0.027
		c-1.413,3.415-4.859,9.997-5,9.574c-0.148-0.45-1.35-6.601-1.35-9.002c0-2.4-0.6-10.051-0.9-15.002
		c-0.299-4.951-3.75-4.951-6.752-3.901c-2.999,1.05-12.902,1.65-19.353,1.65s-12.752-1.05-12.752-1.05s-1.951,4.801-2.55,6.151
		c-0.601,1.35-0.601,10.352-0.451,14.403c0.151,4.05-0.6,10.952-1.501,9.152c-0.899-1.801-3.3-8.702-5.1-12.453
		c0,0-0.001-0.002-0.001-0.004c-0.881,0.343-1.552,1.149-1.499,2.854c0.149,4.802,1.65,7.952,1.65,10.653
		c0,2.701-0.28,3.236,2.55,4.651C375.182,156.234,377.283,156.084,377.283,156.084"/>
	<path clip-path="url(#SVGID_4_)" fill="#F5C2B0" d="M414.013,340.527c0,0-5.677-0.917-9.156-1.647
		c-3.479-0.733-4.761-2.381-8.057-0.917c-3.296,1.465-8.79,0.549-10.804,0.549s-8.24-4.028-7.69,0.549
		c0.386,3.207,3.644,5.601,6.759,6.75c1.331,0.49,2.636,0.758,3.678,0.758c3.479,0,6.958,0.367,6.958,0.367s0,5.859-0.548,6.957
		c-0.55,1.1-8.79,7.875-11.721,9.339c-1.881,0.941-3.908,1.206-4.879,2.098c-0.541,0.496-0.758,1.184-0.431,2.298
		c0.915,3.113,3.113,3.295,3.113,3.295s0.917,5.127,4.761,5.311c2.014,2.014,7.692,3.845,8.79,3.662
		c2.198,1.648,5.86,2.197,8.972,0.366c3.113-1.831,5.127-5.31,8.607-6.959c3.479-1.647,6.957-5.492,7.873-7.324
		c0.916-1.83,2.381-4.944,4.213-6.592c1.83-1.648,3.478-2.562,3.478-2.562S422.984,343.09,414.013,340.527"/>
	<path clip-path="url(#SVGID_4_)" fill="#2D2D2E" d="M331.658,636.001c0,0,2.75,1.25,5.5,1.75s4.75,6.75,14.75,8.5
		s17.5,2.75,17.5,2.75s4.25-6.5,6-10s0.607-8.146,0.607-8.146c-1.097-3.48-1.738-4.486-1.738-6.135s-1.465-5.312-3.205-10.621
		c-1.739-5.309-4.851-13.092-4.851-13.092s5.4-4.762,5.035-12.818c-0.367-8.057-1.191-25.361-0.367-28.564
		c0.825-3.205,3.388-23.623,3.022-25.637c-0.367-2.016,2.104-11.813,1.83-15.473c0,0,6.867-48.344,7.783-53.287
		c0.915-4.943,8.057-36.531,8.79-38.637c0.732-2.105,1.922-4.303,1.922-4.303s1.83-0.55,2.838,3.296
		c1.008,3.845,1.923,7.507,1.832,13.458c-0.093,5.951,3.662,35.066,4.395,44.314c0.731,9.246,3.57,32.777,4.395,35.797
		c0.824,3.021,1.556,3.572,1.739,5.13c0.184,1.556-1.464,4.302-0.55,7.14c0.916,2.838,1.19,3.205,0.641,5.86
		c-0.549,2.655,0.275,7.964,0.824,11.903c0.55,3.936-0.641,9.063-0.365,12.816c0.274,3.754-2.381,27.191-1.282,33.053
		c1.099,5.859,0.823,13.367,3.663,18.402c2.838,5.035,4.395,4.945,2.288,8.881c-2.106,3.938-2.014,5.035-3.296,5.859
		s-6.227,1.467-4.304,6.592c0,0,3.104,9.211,2.854,10.461s9.25,1.5,18.75,0.25s18.75-6.5,19.25-8s-1.209-8.203-1.209-8.203
		c0.64-4.213,1.555-2.838,0.73-7.051c-0.823-4.211,0.55-7.6,1.008-14.281c0.459-6.686,0.092-26.277-0.092-28.018
		c-0.183-1.74,2.564-24.17,2.655-31.404c0.093-7.232-0.274-19.136-0.824-23.164c-0.549-4.027-1.099-40.926-1.099-47.793
		c0-6.865,2.747-34.332,3.114-39.735c0.365-5.4,0-13.825,0.64-18.22c0.641-4.395,1.008-7.416,1.008-7.416s1.739,1.373,1.19-4.303
		c-0.55-5.676-1.832-16.938-1.832-22.249c0-5.31,0.458-4.121,0.642-8.24c0.183-4.121-1.008-13.002-1.831-17.213
		c-0.824-4.211-0.915-7.967-0.915-7.967s6.225-8.604,10.07-11.717c3.846-3.115,8.148-8.79,9.98-12.636
		c1.83-3.845,7.507-15.473,7.965-22.248c0.457-6.775,0.092-7.599,1.19-12.177c1.099-4.577,1.007-8.698,0.732-11.72
		c-0.274-3.021-3.57-22.705-3.845-27.741c-0.275-5.036-2.197-10.712-3.938-13.459s-1.1-5.127-1.465-7.874
		c-0.366-2.746-1.832-5.492-2.014-8.332c-0.184-2.838,0.457-4.668-0.824-6.592c-1.282-1.922-4.029-5.31-3.938-7.873
		c0.092-2.564,1.19-7.508-3.021-6.592c-5.127-2.747-28.199-10.438-29.572-10.896s-8.424-3.387-8.424-3.387l-4.761-7.646
		l-0.428-1.584c0.132,1.314,0.153,3.095,0.153,3.095s0.183,5.355-0.916,7.69c-1.1,2.335-4.532,16.343-5.082,18.54
		c-0.098,0.394-0.414,1.973-0.868,4.303c-2.736-5.25-5.36-9.393-7.878-11.565c-0.776-0.669-1.541-1.146-2.297-1.413
		c-0.072-0.025-0.145-0.052-0.217-0.074c-0.127-0.04-0.258-0.068-0.389-0.096c-0.12-0.024-0.24-0.045-0.359-0.058
		c-0.009,0-0.018-0.003-0.025-0.004c-0.033-0.003-0.066-0.013-0.1-0.016l-0.022-0.003c0.007,0.002,0.013,0.006,0.019,0.008
		c0.005,0.002,0.01,0.005,0.016,0.007c0.018,0.008,0.037,0.019,0.055,0.027c0.722,0.317,1.598,1.039,2.547,2.007
		c1.052,1.071,2.188,2.437,3.301,3.878c2.146,2.785,4.188,5.837,5.303,7.548c-1.061,5.447-2.841,14.803-4.451,23.186
		c0.192,0.842,0.309,1.341,0.309,1.341l-10.185,46.322l-6.731-40.683l0.096-0.55c-0.531-3.218-0.919-5.492-1.056-6.147
		c-0.417-2.001-2.655-12.703-4.534-21.206c1.461-2.009,4.629-6.279,7.682-9.852c1.125-1.317,2.232-2.539,3.232-3.515
		c0.971-0.946,1.835-1.656,2.518-2.006c0.047-0.024,0.091-0.045,0.136-0.066c0.024-0.011,0.049-0.025,0.073-0.035
		c0.015-0.006,0.034-0.018,0.049-0.024c-0.049,0.003-0.104,0.022-0.154,0.028c-0.18,0.021-0.362,0.048-0.554,0.101
		c-0.89,0.249-1.897,0.856-2.964,1.721c-3.247,2.628-7.075,7.748-10.086,13.34c-1.188-5.367-2.221-9.797-2.539-10.486
		c-0.825-1.786-2.61-10.163-3.022-12.635c-0.404-2.422-1.895-11.679,0.11-13.734c-0.485,0.357-1.526,1.185-1.94,2.015
		c-0.55,1.099-3.113,3.204-4.487,4.211c-1.373,1.008-3.388,2.015-4.577,2.472c-1.192,0.458-12.91,4.761-15.931,5.586
		c-3.022,0.823-18.495,5.127-18.495,5.127s-1.83-1.831-3.479,0.823c-1.648,2.656-1.466,7.508-2.839,10.621
		c-1.374,3.113-2.289,4.853-3.295,8.148c-1.007,3.297-5.311,19.045-6.319,23.989c-1.006,4.944-1.189,12.268-1.464,15.839
		c-0.274,3.571-2.106,21.516-2.106,24.72s-0.091,16.114,0.275,19.777c0.366,3.662,1.191,10.894,6.042,16.662
		c4.853,5.768,17.213,24.539,18.678,25.729c1.466,1.189,1.282,1.923,1.282,1.923s-1.739,14.922-1.739,20.233
		c0,5.31-1.19,13.734-1.74,16.023c-0.55,2.289-3.662,17.854-4.12,20.967c-0.457,3.112-1.099,5.311,0.091,6.134
		c-0.274,3.662-0.274,10.071-0.274,12.818s1.923,35.524,2.015,41.292c0.09,5.768,0.823,7.6,0.457,12.359
		c-0.367,4.762,0,9.889-0.183,13.275c-0.184,3.389-0.092,19.869-0.366,23.715c-0.275,3.846-3.022,17.854-3.022,20.965
		c0,3.114-0.824,20.418-0.274,25.545c0.55,5.129,0.731,17.305,0.915,19.502s0,14.924,0,17.67s0.184,13.826,0.274,14.832
		c0.092,1.008,1.558,3.664,2.747,5.037c1.19,1.373,1.74,2.653,1.74,2.653s-0.825,0.642-1.923,1.466
		C331.42,624.247,331.658,636.001,331.658,636.001 M424.45,359.388c-1.831,1.647-3.296,4.762-4.212,6.592
		c-0.916,1.832-4.395,5.677-7.873,7.324c-3.48,1.648-5.494,5.128-8.607,6.959c-3.112,1.831-6.774,1.281-8.972-0.366
		c-1.099,0.182-6.776-1.649-8.79-3.662c-3.845-0.184-4.762-5.312-4.762-5.312s-2.197-0.181-3.112-3.295
		c-0.327-1.113-0.11-1.802,0.431-2.298c-2.84-1.61-4.826-6.995-4.826-7.773c0-0.747,8.284-8.802,11.337-11.745
		c-3.115-1.15-6.373-3.543-6.759-6.75c-0.549-4.577,5.676-0.549,7.691-0.549c2.014,0,7.508,0.916,10.804-0.55
		c3.295-1.464,4.578,0.185,8.056,0.917c3.479,0.731,9.155,1.648,9.155,1.648c8.973,2.563,13.917,16.297,13.917,16.297
		S426.281,357.74,424.45,359.388"/>
	<path clip-path="url(#SVGID_4_)" fill="#2D2D2E" d="M371.582,137.63c1.8,3.75,4.201,10.652,5.101,12.452
		c0.9,1.8,1.651-5.101,1.501-9.152c-0.151-4.05-0.151-13.052,0.45-14.402c0.599-1.351,2.551-6.151,2.551-6.151s6.3,1.05,12.751,1.05
		c6.452,0,16.354-0.6,19.353-1.651c3.002-1.05,6.453-1.05,6.752,3.901c0.301,4.952,0.9,12.603,0.9,15.003
		c0,2.4,1.201,8.552,1.35,9.002c0.141,0.422,3.587-6.159,5-9.574c0.094-0.224,0.178-0.435,0.251-0.628
		c1.201-3.15,0.601-10.652-2.4-16.353c-2.999-5.702-5.399-6.452-5.399-6.452s-0.602-9.151-11.703-10.351
		c-11.102-1.2-26.105,0.45-29.855,8.551c-3.751,8.102-6.752,9.152-7.203,13.803c-0.45,4.649-1.198,7.2,0.6,10.948
		C371.581,137.628,371.581,137.629,371.582,137.63"/>
	<path clip-path="url(#SVGID_4_)" fill="#E9E8E5" d="M418.804,179.772c-0.077-0.765-0.191-1.366-0.36-1.367
		c-0.07-0.001-0.15,0.097-0.242,0.341c-0.127,0.337-0.385,0.803-0.736,1.36c-0.016,0.024-0.031,0.048-0.046,0.072
		c-3.155,4.949-13.845,17.154-13.845,17.154l-2.748,2.842c0.033,0.002,0.066,0.013,0.1,0.016c0.011,0.001,0.022,0,0.033,0.001
		c0.119,0.014,0.235,0.037,0.352,0.061c0.129,0.026,0.259,0.057,0.389,0.096c0.072,0.023,0.145,0.047,0.217,0.074
		c0.756,0.267,1.521,0.744,2.297,1.413c2.518,2.172,5.142,6.314,7.878,11.564c0.454-2.33,0.771-3.909,0.868-4.302
		c0.55-2.197,3.982-16.205,5.082-18.54c1.099-2.335,0.916-7.691,0.916-7.691S418.936,181.085,418.804,179.772"/>
	<path clip-path="url(#SVGID_4_)" fill="#E9E8E5" d="M403.545,211.587l-0.447,2.012c-0.381,1.714,3.377,18.362,4.494,23.233
		c1.61-8.384,3.39-17.739,4.451-23.186c-1.113-1.711-3.156-4.763-5.303-7.548L403.545,211.587z"/>
	<path clip-path="url(#SVGID_4_)" fill="#E9E8E5" d="M385.49,215.908c1.879,8.504,4.117,19.205,4.534,21.206
		c0.137,0.655,0.525,2.93,1.056,6.148l5.426-31.117l-3.334-6.089C390.119,209.63,386.951,213.899,385.49,215.908"/>
	<path clip-path="url(#SVGID_4_)" fill="#E9E8E5" d="M395.105,196.737c0,0-12.597-11.987-14.307-17.735
		c-0.03-0.103-0.056-0.203-0.08-0.303c-0.029-0.123-0.06-0.248-0.078-0.365l-0.412,0.229l-0.138,0.046
		c-0.044,0.036-0.078,0.094-0.12,0.137c-2.005,2.054-0.513,11.313-0.109,13.734c0.412,2.471,2.197,10.849,3.021,12.634
		c0.319,0.689,1.352,5.119,2.539,10.486c3.012-5.592,6.839-10.711,10.086-13.34c1.068-0.865,2.075-1.471,2.965-1.72
		c0.192-0.053,0.373-0.08,0.554-0.101l-2.995-2.827L395.105,196.737z"/>
	<polygon clip-path="url(#SVGID_4_)" fill="#E9E8E5" points="400.815,200.186 400.83,200.186 400.822,200.179 	"/>
</g>
</svg>
