<?xml version="1.0" encoding="utf-8"?>
<!-- Generator: Adobe Illustrator 15.1.0, SVG Export Plug-In . SVG Version: 6.00 Build 0)  -->
<!DOCTYPE svg PUBLIC "-//W3C//DTD SVG 1.1//EN" "http://www.w3.org/Graphics/SVG/1.1/DTD/svg11.dtd">
<svg version="1.1" id="Layer_1" xmlns="http://www.w3.org/2000/svg" xmlns:xlink="http://www.w3.org/1999/xlink" x="0px" y="0px"
	 width="600px" height="600px" viewBox="0 0 600 600" enable-background="new 0 0 600 600" xml:space="preserve">
<path fill-rule="evenodd" clip-rule="evenodd" fill="#181717" d="M146.188,20.515h312.721c59.173,0,107.563,49.638,107.563,110.313
	v320.646c0,60.68-48.391,110.286-107.563,110.286H146.188C87.01,561.759,38.6,512.152,38.6,451.473V130.827
	C38.6,70.153,87.01,20.515,146.188,20.515"/>
<polygon fill="#E8E4E4" points="452.113,41.869 159.304,56.06 247.079,524.784 378.139,501.092 "/>
<path fill="#C14927" d="M286.511,156.747l-28.167-41.298l32.138-40.55c5.44-1.534,10.401-1.808,14.516-1.534
	c7.083,0.466,11.603,2.542,11.603,2.542l28.273,39.886l-20.854,41.446l44.481,239.685l-43.909,164.835h-42.533l-42.035-146.57
	L286.511,156.747z"/>
<path fill="#E0BCA5" d="M290.483,75.684c0,0-47.711-16.462-75.611-55.169h176.003c-13.694,19.624-37.125,40.557-75.331,55.169
	C315.544,75.684,304.301,70.453,290.483,75.684"/>
<path fill="#FFFFFF" d="M186.126,20.515l3.872,79.41c0,0,36.065,31.252,47.308,35.449c11.268,4.17,53.176-59.689,53.176-59.689
	s-47.375-17.671-75.299-55.169H186.126z"/>
<path fill="#FFFFFF" d="M421.399,20.515l-5.34,79.41c0,0-36.066,31.252-47.308,35.449c-11.241,4.17-53.208-59.689-53.208-59.689
	s47.406-17.671,75.331-55.169H421.399z"/>
<path fill="#212020" d="M357.511,561.759c45.041-79.824,102.619-189.664,141.698-292.401c0,0,33.75-77.463,43.983-92.125
	l-52.873-25.172l26.269-47.079l-66.181-84.467h-28.933c-2.503,66.894-18.451,230.77-100.653,541.244H357.511z"/>
<path fill="#212020" d="M250.688,561.759c-41.046-70.438-99.831-179.446-142.783-292.401c0,0-33.774-77.463-44.008-92.125
	l52.867-25.172l-26.261-47.079l66.18-84.467h28.938l105.515,541.244H250.688z"/>
</svg>
