<?xml version="1.0" encoding="utf-8"?>
<!-- Generator: Adobe Illustrator 15.1.0, SVG Export Plug-In . SVG Version: 6.00 Build 0)  -->
<!DOCTYPE svg PUBLIC "-//W3C//DTD SVG 1.1//EN" "http://www.w3.org/Graphics/SVG/1.1/DTD/svg11.dtd">
<svg version="1.1" id="Layer_1" xmlns="http://www.w3.org/2000/svg" xmlns:xlink="http://www.w3.org/1999/xlink" x="0px" y="0px"
	 width="800px" height="800px" viewBox="0 0 800 800" enable-background="new 0 0 800 800" xml:space="preserve">
<rect y="565.27" fill="#69ABB2" width="800" height="234.73"/>
<g>
	<defs>
		<rect id="SVGID_1_" width="800" height="800"/>
	</defs>
	<clipPath id="SVGID_2_">
		<use xlink:href="#SVGID_1_"  overflow="visible"/>
	</clipPath>
	<path clip-path="url(#SVGID_2_)" fill="#36787F" d="M389.967,760.736c-0.002-0.005-0.002-0.01-0.002-0.018
		C389.965,760.727,389.965,760.731,389.967,760.736"/>
	<path clip-path="url(#SVGID_2_)" fill="#36787F" d="M390.098,761.565h0.003c-0.05-0.236-0.088-0.471-0.119-0.702
		C390.013,761.097,390.051,761.332,390.098,761.565"/>
	<path clip-path="url(#SVGID_2_)" fill="#36787F" d="M390.956,763.972c-0.006-0.01-0.011-0.021-0.017-0.033
		C390.945,763.951,390.95,763.962,390.956,763.972"/>
	<path clip-path="url(#SVGID_2_)" fill="#36787F" d="M390.874,763.812c-0.022-0.044-0.044-0.09-0.065-0.134
		C390.83,763.725,390.852,763.768,390.874,763.812"/>
	<path clip-path="url(#SVGID_2_)" fill="#36787F" d="M390.339,762.492c0.127,0.4,0.28,0.788,0.457,1.158
		c-0.18-0.378-0.33-0.767-0.454-1.158H390.339z"/>
	<path clip-path="url(#SVGID_2_)" fill="#36787F" d="M711.551,664.988c0,12.263-101.882,22.202-227.561,22.202
		c-125.677,0-227.559-9.939-227.559-22.202c0-12.262,101.882-22.202,227.559-22.202
		C609.669,642.786,711.551,652.727,711.551,664.988"/>
	<polygon clip-path="url(#SVGID_2_)" fill="#CCCECE" points="676.809,519.716 290.883,519.716 272.102,118.768 696.528,118.768 	"/>
	<polygon clip-path="url(#SVGID_2_)" fill="#F2F2F2" points="665.989,505.631 301.754,505.631 284.029,134.73 684.602,134.73 	"/>
	<path clip-path="url(#SVGID_2_)" fill="#F9B233" d="M626.718,444.268c0,3.812-3.09,6.902-6.902,6.902H348.167
		c-3.812,0-6.902-3.091-6.902-6.902c0-3.813,3.09-6.902,6.902-6.902h271.649C623.628,437.365,626.718,440.455,626.718,444.268"/>
	<path clip-path="url(#SVGID_2_)" fill="#F9E600" d="M484.314,185.794c29.098,0,55.461,11.682,74.673,30.606l18.591-18.591
		c-23.969-23.682-56.906-38.307-93.264-38.307c-0.156,0-0.312,0.006-0.469,0.006V185.8
		C484.003,185.799,484.158,185.794,484.314,185.794"/>
	<path clip-path="url(#SVGID_2_)" fill="#E26B1B" d="M483.846,185.8v-26.292c-36.409,0.127-69.364,14.911-93.269,38.764
		l18.591,18.591C428.314,197.767,454.696,185.926,483.846,185.8"/>
	<path clip-path="url(#SVGID_2_)" fill="#F7A334" d="M590.726,291.542h26.292c-0.183-36.67-15.235-69.819-39.439-93.733
		l-18.591,18.591C578.434,235.556,590.543,262.131,590.726,291.542"/>
	<path clip-path="url(#SVGID_2_)" fill="#F9E600" d="M484.314,398.632c-0.156,0-0.312-0.005-0.469-0.006v26.292
		c0.157,0,0.313,0.006,0.469,0.006c36.698,0,69.917-14.897,93.94-38.973l-18.591-18.591
		C540.397,386.678,513.753,398.632,484.314,398.632"/>
	<path clip-path="url(#SVGID_2_)" fill="#F9B233" d="M617.017,291.542h-26.292c0.002,0.224,0.01,0.447,0.01,0.672
		c0,29.335-11.871,55.897-31.07,75.147l18.591,18.591c23.957-24.008,38.771-57.143,38.771-93.738
		C617.025,291.988,617.018,291.766,617.017,291.542"/>
	<path clip-path="url(#SVGID_2_)" fill="#F7A334" d="M408.502,366.885l-18.591,18.591c23.957,24.248,57.184,39.313,93.935,39.44
		v-26.291C454.355,398.499,427.701,386.376,408.502,366.885"/>
	<path clip-path="url(#SVGID_2_)" fill="#E26B1B" d="M377.896,292.213c0-0.224,0.007-0.447,0.008-0.672h-26.291
		c-0.001,0.225-0.009,0.448-0.009,0.672c0,36.357,14.625,69.294,38.307,93.263l18.591-18.591
		C389.578,347.674,377.896,321.31,377.896,292.213"/>
	<path clip-path="url(#SVGID_2_)" fill="#F9B233" d="M409.168,216.863l-18.591-18.591c-23.928,23.877-38.783,56.837-38.964,93.269
		h26.292C378.085,262.371,389.998,235.982,409.168,216.863"/>
	<path clip-path="url(#SVGID_2_)" fill="#706F6F" d="M385.632,460.09c0,0.778-0.631,1.408-1.408,1.408h-30.439
		c-0.778,0-1.409-0.63-1.409-1.408c0-0.777,0.631-1.408,1.409-1.408h30.439C385.001,458.682,385.632,459.313,385.632,460.09"/>
	<path clip-path="url(#SVGID_2_)" fill="#706F6F" d="M385.632,469.506c0,0.778-0.631,1.408-1.408,1.408h-30.439
		c-0.778,0-1.409-0.63-1.409-1.408c0-0.777,0.631-1.407,1.409-1.407h30.439C385.001,468.099,385.632,468.729,385.632,469.506"/>
	<path clip-path="url(#SVGID_2_)" fill="#706F6F" d="M385.632,478.923c0,0.777-0.631,1.408-1.408,1.408h-30.439
		c-0.778,0-1.409-0.631-1.409-1.408c0-0.778,0.631-1.408,1.409-1.408h30.439C385.001,477.515,385.632,478.145,385.632,478.923"/>
	<path clip-path="url(#SVGID_2_)" fill="#706F6F" d="M385.632,488.339c0,0.777-0.631,1.408-1.408,1.408h-30.439
		c-0.778,0-1.409-0.631-1.409-1.408c0-0.778,0.631-1.409,1.409-1.409h30.439C385.001,486.93,385.632,487.561,385.632,488.339"/>
	<path clip-path="url(#SVGID_2_)" fill="#706F6F" d="M443.166,460.09c0,0.778-0.631,1.408-1.408,1.408h-30.438
		c-0.778,0-1.409-0.63-1.409-1.408c0-0.777,0.631-1.408,1.409-1.408h30.438C442.535,458.682,443.166,459.313,443.166,460.09"/>
	<path clip-path="url(#SVGID_2_)" fill="#706F6F" d="M443.166,469.506c0,0.778-0.631,1.408-1.408,1.408h-30.438
		c-0.778,0-1.409-0.63-1.409-1.408c0-0.777,0.631-1.407,1.409-1.407h30.438C442.535,468.099,443.166,468.729,443.166,469.506"/>
	<path clip-path="url(#SVGID_2_)" fill="#706F6F" d="M443.166,478.923c0,0.777-0.631,1.408-1.408,1.408h-30.438
		c-0.778,0-1.409-0.631-1.409-1.408c0-0.778,0.631-1.408,1.409-1.408h30.438C442.535,477.515,443.166,478.145,443.166,478.923"/>
	<path clip-path="url(#SVGID_2_)" fill="#706F6F" d="M443.166,488.339c0,0.777-0.631,1.408-1.408,1.408h-30.438
		c-0.778,0-1.409-0.631-1.409-1.408c0-0.778,0.631-1.409,1.409-1.409h30.438C442.535,486.93,443.166,487.561,443.166,488.339"/>
	<path clip-path="url(#SVGID_2_)" fill="#706F6F" d="M384.312,154.214c0,0.778-0.631,1.409-1.408,1.409h-30.439
		c-0.778,0-1.409-0.631-1.409-1.409c0-0.778,0.631-1.408,1.409-1.408h30.439C383.681,152.806,384.312,153.436,384.312,154.214"/>
	<path clip-path="url(#SVGID_2_)" fill="#706F6F" d="M384.312,163.63c0,0.778-0.631,1.409-1.408,1.409h-30.439
		c-0.778,0-1.409-0.631-1.409-1.409s0.631-1.409,1.409-1.409h30.439C383.681,162.221,384.312,162.852,384.312,163.63"/>
	<path clip-path="url(#SVGID_2_)" fill="#706F6F" d="M384.312,173.046c0,0.778-0.631,1.408-1.408,1.408h-30.439
		c-0.778,0-1.409-0.63-1.409-1.408c0-0.778,0.631-1.409,1.409-1.409h30.439C383.681,171.637,384.312,172.268,384.312,173.046"/>
	<path clip-path="url(#SVGID_2_)" fill="#706F6F" d="M384.312,182.462c0,0.778-0.631,1.409-1.408,1.409h-30.439
		c-0.778,0-1.409-0.631-1.409-1.409c0-0.778,0.631-1.408,1.409-1.408h30.439C383.681,181.054,384.312,181.684,384.312,182.462"/>
	<path clip-path="url(#SVGID_2_)" fill="#706F6F" d="M500.701,460.09c0,0.778-0.632,1.408-1.409,1.408h-30.438
		c-0.777,0-1.409-0.63-1.409-1.408c0-0.777,0.632-1.408,1.409-1.408h30.438C500.069,458.682,500.701,459.313,500.701,460.09"/>
	<path clip-path="url(#SVGID_2_)" fill="#706F6F" d="M500.701,469.506c0,0.778-0.632,1.408-1.409,1.408h-30.438
		c-0.777,0-1.409-0.63-1.409-1.408c0-0.777,0.632-1.407,1.409-1.407h30.438C500.069,468.099,500.701,468.729,500.701,469.506"/>
	<path clip-path="url(#SVGID_2_)" fill="#706F6F" d="M500.701,478.923c0,0.777-0.632,1.408-1.409,1.408h-30.438
		c-0.777,0-1.409-0.631-1.409-1.408c0-0.778,0.632-1.408,1.409-1.408h30.438C500.069,477.515,500.701,478.145,500.701,478.923"/>
	<path clip-path="url(#SVGID_2_)" fill="#706F6F" d="M500.701,488.339c0,0.777-0.632,1.408-1.409,1.408h-30.438
		c-0.777,0-1.409-0.631-1.409-1.408c0-0.778,0.632-1.409,1.409-1.409h30.438C500.069,486.93,500.701,487.561,500.701,488.339"/>
	<path clip-path="url(#SVGID_2_)" fill="#706F6F" d="M558.235,460.09c0,0.778-0.631,1.408-1.408,1.408h-30.439
		c-0.777,0-1.408-0.63-1.408-1.408c0-0.777,0.631-1.408,1.408-1.408h30.439C557.604,458.682,558.235,459.313,558.235,460.09"/>
	<path clip-path="url(#SVGID_2_)" fill="#706F6F" d="M558.235,469.506c0,0.778-0.631,1.408-1.408,1.408h-30.439
		c-0.777,0-1.408-0.63-1.408-1.408c0-0.777,0.631-1.407,1.408-1.407h30.439C557.604,468.099,558.235,468.729,558.235,469.506"/>
	<path clip-path="url(#SVGID_2_)" fill="#706F6F" d="M558.235,478.923c0,0.777-0.631,1.408-1.408,1.408h-30.439
		c-0.777,0-1.408-0.631-1.408-1.408c0-0.778,0.631-1.408,1.408-1.408h30.439C557.604,477.515,558.235,478.145,558.235,478.923"/>
	<path clip-path="url(#SVGID_2_)" fill="#706F6F" d="M558.235,488.339c0,0.777-0.631,1.408-1.408,1.408h-30.439
		c-0.777,0-1.408-0.631-1.408-1.408c0-0.778,0.631-1.409,1.408-1.409h30.439C557.604,486.93,558.235,487.561,558.235,488.339"/>
	<path clip-path="url(#SVGID_2_)" fill="#706F6F" d="M615.77,460.09c0,0.778-0.631,1.408-1.409,1.408h-30.438
		c-0.778,0-1.409-0.63-1.409-1.408c0-0.777,0.631-1.408,1.409-1.408h30.438C615.139,458.682,615.77,459.313,615.77,460.09"/>
	<path clip-path="url(#SVGID_2_)" fill="#706F6F" d="M615.77,469.506c0,0.778-0.631,1.408-1.409,1.408h-30.438
		c-0.778,0-1.409-0.63-1.409-1.408c0-0.777,0.631-1.407,1.409-1.407h30.438C615.139,468.099,615.77,468.729,615.77,469.506"/>
	<path clip-path="url(#SVGID_2_)" fill="#706F6F" d="M615.77,478.923c0,0.777-0.631,1.408-1.409,1.408h-30.438
		c-0.778,0-1.409-0.631-1.409-1.408c0-0.778,0.631-1.408,1.409-1.408h30.438C615.139,477.515,615.77,478.145,615.77,478.923"/>
	<path clip-path="url(#SVGID_2_)" fill="#706F6F" d="M615.77,488.339c0,0.777-0.631,1.408-1.409,1.408h-30.438
		c-0.778,0-1.409-0.631-1.409-1.408c0-0.778,0.631-1.409,1.409-1.409h30.438C615.139,486.93,615.77,487.561,615.77,488.339"/>
	<path clip-path="url(#SVGID_2_)" fill="#F9E600" d="M674.304,154.927c0,2.593-2.102,4.695-4.694,4.695h-50.705
		c-2.594,0-4.695-2.102-4.695-4.695v-8.302c0-2.593,2.102-4.695,4.695-4.695h50.705c2.593,0,4.694,2.102,4.694,4.695V154.927z"/>
	<path clip-path="url(#SVGID_2_)" fill="#F7A334" d="M674.304,179.176c0,2.593-2.102,4.695-4.694,4.695h-50.705
		c-2.594,0-4.695-2.102-4.695-4.695v-8.303c0-2.593,2.102-4.694,4.695-4.694h50.705c2.593,0,4.694,2.101,4.694,4.694V179.176z"/>
	<path clip-path="url(#SVGID_2_)" fill="#E26B1B" d="M674.304,203.425c0,2.593-2.102,4.695-4.694,4.695h-50.705
		c-2.594,0-4.695-2.102-4.695-4.695v-8.303c0-2.593,2.102-4.694,4.695-4.694h50.705c2.593,0,4.694,2.101,4.694,4.694V203.425z"/>
	
		<polyline clip-path="url(#SVGID_2_)" fill="none" stroke="#706F6F" stroke-width="4" stroke-linecap="round" stroke-miterlimit="10" points="
		620.469,261.859 644.257,248.828 644.257,216.192 	"/>
	<path clip-path="url(#SVGID_2_)" fill="#F7A334" d="M341.901,255.234c0,5.186-4.204,9.39-9.39,9.39h-13.772
		c-5.186,0-9.39-4.204-9.39-9.39v-95.151c0-5.186,4.204-9.39,9.39-9.39h13.772c5.186,0,9.39,4.204,9.39,9.39V255.234z"/>
	
		<polyline clip-path="url(#SVGID_2_)" fill="none" stroke="#706F6F" stroke-width="4" stroke-linecap="round" stroke-miterlimit="10" points="
		325.156,272.762 325.156,316.27 350.287,326.284 	"/>
	<path clip-path="url(#SVGID_2_)" fill="#2B2B2B" d="M720.002,114.072c0,4.667-3.784,8.451-8.451,8.451H257.08
		c-4.667,0-8.451-3.784-8.451-8.451s3.784-8.451,8.451-8.451h454.471C716.218,105.622,720.002,109.405,720.002,114.072"/>
	<path clip-path="url(#SVGID_2_)" fill="#2B2B2B" d="M510.138,89.659c0-5.186-4.204-9.39-9.391-9.39h-33.804
		c-5.185,0-9.389,4.204-9.389,9.39v15.024c0,5.186,4.204,9.39,9.389,9.39h33.804c5.187,0,9.391-4.204,9.391-9.39V89.659z"/>
	<path clip-path="url(#SVGID_2_)" fill="#2B2B2B" d="M629.771,666.198c0,0-82.542-135.214-83.48-135.214h-33.803l83.598,135.214
		H629.771z"/>
	<path clip-path="url(#SVGID_2_)" fill="#2B2B2B" d="M338.211,666.198c0,0,82.72-135.214,83.659-135.214h33.804l-83.777,135.214
		C371.897,666.198,349.335,665.963,338.211,666.198"/>
	<path clip-path="url(#SVGID_2_)" fill="#2B2B2B" d="M700.283,522.533c0,4.667-3.468,8.451-7.744,8.451H276.092
		c-4.277,0-7.744-3.784-7.744-8.451s3.467-8.451,7.744-8.451h416.447C696.815,514.082,700.283,517.866,700.283,522.533"/>
	<path clip-path="url(#SVGID_2_)" fill="#36787F" d="M366.666,687.19c0,12.262-65.592,22.202-146.505,22.202
		c-80.912,0-146.504-9.94-146.504-22.202c0-12.263,65.592-22.202,146.504-22.202C301.074,664.988,366.666,674.928,366.666,687.19"/>
	<path clip-path="url(#SVGID_2_)" fill="#F2CEAD" d="M395.972,350.321c0,0-11.816-3.59-15.258-3.484
		c-3.443,0.105-11.037,13.258-14.048,12.433c-3.011-0.826-13.008-2.704-13.878-8.572c-0.87-5.869,12.041-16.198,12.041-16.198
		S391.668,345.484,395.972,350.321"/>
	<path clip-path="url(#SVGID_2_)" fill="#141414" d="M325.156,387.304c0,0,175.122-180.955,188.268-190.708
		c0,0,2.348,1.985,4.226,3.863c0,0-168.079,182.164-181.225,194.371C336.424,394.83,327.035,394.332,325.156,387.304"/>
	<path clip-path="url(#SVGID_2_)" fill="#FFDCB8" d="M402.937,341.777c0,0-10.956-5.164-13.146-6.103s-6.111,6.572-4.933,9.389
		c1.177,2.817,11.506,5.634,13.384,5.634S402.937,341.777,402.937,341.777"/>
	<path clip-path="url(#SVGID_2_)" fill="#FFDCB8" d="M380.713,346.836c0,0,8.451,7.461,6.886,10.669
		c-1.565,3.208-10.211,2.592-14.398-6.498C369.015,341.918,378.417,344.614,380.713,346.836"/>
	<path clip-path="url(#SVGID_2_)" fill="#FFDCB8" d="M369.132,350.698c3.447-0.214,11.026,5.876,10.834,8.572
		c-0.192,2.696-3.253,7.078-7.826,3.948C367.567,360.088,364.125,351.008,369.132,350.698"/>
	<path clip-path="url(#SVGID_2_)" fill="#FFDCB8" d="M350.713,342.756c0,0,7.464-12.773,10.594-14.153s17.841,10.643,22.223,10.735
		c4.382,0.091-3.13,6.664-7.512,5.725s-10.955-5.725-10.955-5.725s1.015,9.168-8.1,11.359
		C347.849,352.889,350.713,342.756,350.713,342.756"/>
	<path clip-path="url(#SVGID_2_)" fill="#464B4C" d="M197.453,320.181c4.86-1.381,72.46,56.809,151.961,21.597
		c0,0,7.512,4.695,10.016,15.728c0,0-83.167,43.263-154.92-12.442C204.51,345.063,182.585,324.406,197.453,320.181"/>
	<path clip-path="url(#SVGID_2_)" fill="#725C2B" d="M192.376,196.704c0,0,18.067,21.597,3.356,46.01
		C181.021,267.127,176.5,193.417,192.376,196.704"/>
	<path clip-path="url(#SVGID_2_)" fill="#FFDCB8" d="M189.496,203.448c0,0,17.348,55.229,14.531,80.582
		c-2.817,25.352-52.083,27.7-62.897,18.31c-10.813-9.39-18.325-44.602-18.325-44.602s-8.921-45.071,4.695-56.339
		C141.115,190.131,179.66,182.492,189.496,203.448"/>
	<path clip-path="url(#SVGID_2_)" fill="#725C2B" d="M126.561,269.006l5.164-2.817c0,0,3.756-41.785-5.164-49.297
		c0,0,11.268,5.165,14.554,3.287c3.287-1.878-2.347-8.451-2.347-8.451s20.658,6.573,24.883,4.225c4.226-2.347-5.164-8.92-5.164-8.92
		s34.429,8.92,37.246,3.756c2.817-5.165-6.237-7.341-6.237-7.341s41.762-18.482,3.733-41.487c0,0-6.573-0.939-11.268,10.799
		c0,0-31.925-19.755-37.09-10.817c-5.164,8.939,6.104,15.042,6.104,15.042s-41.316-3.286-52.114,23.005
		c0,0-1.878-13.146-3.756-14.554c-1.878-1.409-10.329,3.756-7.043,16.902c0,0-13.615-5.165-13.615,5.634
		c0,10.798,9.39,11.506,9.39,11.506s-2.817,41.547,30.987,53.284L126.561,269.006z"/>
	<path clip-path="url(#SVGID_2_)" fill="#FFDCB8" d="M128.534,267.929c0,0-9.486-9.722-18.406-4.557
		c-8.92,5.164,2.786,37.504,22.629,25.987C141.13,284.499,128.534,267.929,128.534,267.929"/>
	<path clip-path="url(#SVGID_2_)" fill="#CB8F5E" d="M180.708,231.759c0,0-2.191,11.268,0,14.398s10.816-3.443,11.668,0
		c0.852,3.443-0.087,6.26-7.912,7.512c0,0,11.253-0.25,11.268-4.842c0.024-7.365-4.445-7.96-10.642-4.861
		C180.708,246.157,180.708,238.019,180.708,231.759"/>
	<path clip-path="url(#SVGID_2_)" fill="#190F08" d="M164.993,240.487c0.548,2.711-0.472,5.205-2.278,5.57
		c-1.807,0.366-3.716-1.536-4.265-4.247c-0.548-2.71,0.472-5.204,2.279-5.57C162.535,235.875,164.445,237.776,164.993,240.487"/>
	<path clip-path="url(#SVGID_2_)" fill="#190F08" d="M193.021,235.604c0.49,2.422-0.421,4.65-2.035,4.976
		c-1.614,0.327-3.32-1.372-3.81-3.794c-0.49-2.421,0.422-4.649,2.036-4.976C190.826,231.484,192.531,233.182,193.021,235.604"/>
	<path clip-path="url(#SVGID_2_)" fill="#DA9089" d="M149.629,285.772c6.023,7.338,14.866,14.77,25.289,13.281
		c3.454-0.493,6.218-1.969,8.449-4.044C174.767,284.126,158.383,284.589,149.629,285.772"/>
	<path clip-path="url(#SVGID_2_)" fill="#753427" d="M192.29,261.86c-19.719-0.104-51.16,10.902-51.16,10.902
		s3.129,6.468,8.499,13.011c8.754-1.184,25.138-1.646,33.738,9.237C193.875,285.236,192.29,261.86,192.29,261.86"/>
	<path clip-path="url(#SVGID_2_)" fill="#493918" d="M149.629,229.568c0,0,7.613-6.103,15.512-5.164
		C165.141,224.404,154.387,218.3,149.629,229.568"/>
	<path clip-path="url(#SVGID_2_)" fill="#493918" d="M179.735,222.753c0,0,9.244-3.12,12.64,0
		C192.375,222.753,185.021,214.53,179.735,222.753"/>
	<path clip-path="url(#SVGID_2_)" fill="#281D12" d="M234.09,664.988c0,0,2.97,9.06,7.298,10.502s14.757,0.461,18.559,3.477
		c3.802,3.016,0,9.508,0,9.508s-39.108,5.049-47.949,0c0,0-3.422-15.955,0-23.486C215.42,657.458,234.09,664.988,234.09,664.988"/>
	<path clip-path="url(#SVGID_2_)" fill="#382B19" d="M211.999,667.552c0,0,0.356,9.27,7.57,12.154
		c4.142,1.657,11.66,3.167,14.522,5.433c2.121,1.679,0.271,3.653,0,7.031c-0.637,7.936-40.629-0.09-50.207-3.695
		c0,0,0.52-15.157,2.323-20.923C188.01,661.785,211.999,667.552,211.999,667.552"/>
	<path clip-path="url(#SVGID_2_)" fill="#464B4C" d="M176.334,468.071c0,0,17.13,120.191,8.731,200.94
		c0,0,17.519,4.941,31.764-0.066c0,0,15.524-167.696,15.524-182.72c0-15.024,16.276-30.048,16.276-30.048
		S183.542,452.422,176.334,468.071"/>
	<path clip-path="url(#SVGID_2_)" fill="#464B4C" d="M253.637,456.175c0,0,4.621,114.431-18.541,211.391
		c0,0-13.698,3.623-24.618-2.577c0,0,4.973-106.773,4.973-126.806s6.241-72.917,8.138-77.623
		C225.487,455.853,242.369,449.289,253.637,456.175"/>
	<path clip-path="url(#SVGID_2_)" fill="#232728" d="M237.874,469.506c0,0-5.424,7.383-6.22,24.857s-7.599,126.751-11.663,153.994
		c0,0,9.433-139.909,8.941-153.056C228.441,482.156,235.721,472.788,237.874,469.506"/>
	<path clip-path="url(#SVGID_2_)" fill="#464B4C" d="M151.667,322.919c0,0-22.29,4.773-26.985,6.182
		c-4.695,1.408,9.421,19.718,16.448,35.681c7.027,15.963,27.005,89.674,29.223,114.088c0,0,54.801-14.085,64.191-14.085v-9.859
		c0,0,2.817,4.694,4.225,8.45c0,0,18.78-0.469,24.414,0c0,0-47.593-114.083-65.73-143.196
		C197.453,320.18,163.44,320.347,151.667,322.919"/>
	<path clip-path="url(#SVGID_2_)" fill="#FFDCB8" d="M170.693,304.688c0,0,8.264,15.537,11.268,17.841
		c2.49,30.795-16.902,3.756-16.902,3.756s-5.164-14.555-6.573-21.597C157.078,297.646,170.693,304.688,170.693,304.688"/>
	<path clip-path="url(#SVGID_2_)" fill="#E5E5E5" d="M170.353,320.181l9.382,15.493l-3.878-15.493h11.877
		c0,0,19.155,49.297,21.48,71.833c0,0-46.056-53.725-57.547-62.31L170.353,320.181z"/>
	<path clip-path="url(#SVGID_2_)" fill="#FFFFFF" d="M149.629,316.894l20.724,3.286v15.494c0,0-19.722-5.634-20.724-7.043V316.894z"
		/>
	<path clip-path="url(#SVGID_2_)" fill="#141414" d="M173.51,338.021c0,0,7.347-5.466,13.534-4.225l3.055,7.981l-6.732,3.286
		L173.51,338.021z"/>
	<path clip-path="url(#SVGID_2_)" fill="#141414" d="M186.055,365.542l-2.688-20.478l6.732-3.287c0,0,12.989,21.597,16.745,27.231
		l4.695,25.822L186.055,365.542z"/>
	<path clip-path="url(#SVGID_2_)" fill="#676B6B" d="M149.629,320.181c0,0-5.667,15.024-8.499,24.883c0,0,11.823,4.226,25.623,5.634
		c0,0-5.193,23.005-4.617,24.883c0,0,34.379,10.799,49.403,19.25c-10.037-11.733-49.789-56.34-59.872-65.73L149.629,320.181z"/>
	<path clip-path="url(#SVGID_2_)" fill="#676B6B" d="M186.055,316.27c0,0,9.67,9.075,18.281,13.301c0,0-1.915,7.578-4.534,12.206
		c0,0,13.146,8.921,18.779,14.32c0,0-7.042,19.953-7.042,38.733C211.539,394.83,191.088,323.627,186.055,316.27"/>
	<path clip-path="url(#SVGID_2_)" fill="#232728" d="M212.481,397.647c0,0,18.776,38.5,21.593,53.522
		C234.075,451.169,214.833,406.567,212.481,397.647"/>
	<path clip-path="url(#SVGID_2_)" fill="#232728" d="M223.03,438.259c0.774,1.878,0.04,3.961-1.639,4.653
		c-1.679,0.69-3.667-0.271-4.44-2.149c-0.774-1.878-0.04-3.961,1.639-4.653C220.27,435.419,222.256,436.381,223.03,438.259"/>
	<path clip-path="url(#SVGID_2_)" fill="#232728" d="M214.579,412.845c0.774,1.878,0.04,3.961-1.639,4.653
		c-1.679,0.691-3.667-0.271-4.44-2.148c-0.774-1.879-0.04-3.962,1.639-4.653C211.817,410.005,213.805,410.967,214.579,412.845"/>
	<path clip-path="url(#SVGID_2_)" fill="#FFFFFF" d="M175.857,320.181l11.186,11.737c0,0,1.769-11.737,0.691-15.023l-5.765-4.461
		L175.857,320.181z"/>
	<path clip-path="url(#SVGID_2_)" fill="#232728" d="M186.055,474.937c0,0,21.18-7.1,47.003-10.872l1.486-10.872
		c0,0,2.896,6.976,4.226,10.184c0,0,18.023-0.686,22.509-0.107c0,0-21.014,1.752-23.405,2.221l-1.921-4.225
		c0,0-0.528,3.578-0.704,4.929C234.544,466.898,197.192,470.063,186.055,474.937"/>
	<path clip-path="url(#SVGID_2_)" fill="#464B4C" d="M124.682,329.101c0,0-45.384,57.061-50.236,84.557
		c-4.851,27.496,12.05,42.124,67.384,24.992c0,0,14.778-18.059,4.136-24.992c0,0-38.186,23.114-47.576,6.212
		c-9.39-16.902,17.575-41.394,35.426-69.172C133.816,350.698,143.462,324.719,124.682,329.101"/>
	<path clip-path="url(#SVGID_2_)" fill="#FFDCB8" d="M153.74,435.391c-6.329,2.429-15.638,4.602-24.507-6.313
		c-8.869-10.914-9.077-25.666-2.512-29.108c4.237-2.222,5.359,1.252,5.501,8.451c0.141,7.198,4.334,7.311,4.334,7.311
		s-3.002-16.026,1.875-22.022c4.328-5.321,10.978-2.491,8.643,2.191s0.687,15.784,1.389,18.472c0,0,0.495-15.13,6.301-17.35
		c4.986-1.904,6.708,1.851,6.395,4.355c-0.313,2.504-2.756,3.923-3.569,12.994c-0.813,9.072,4.852,7.508,5.775,6.256
		c0.924-1.252,10.677-6.261,13.782-4.383c3.104,1.878,4.043,6.887,4.043,6.887s-9.389,4.382-14.241,6.886
		C162.098,432.521,158.01,433.752,153.74,435.391"/>
	<path clip-path="url(#SVGID_2_)" fill="#CB8F5E" d="M140.911,423.131c0,0,10.068-2.816,11.245,9.077
		C152.156,432.208,152.589,417.185,140.911,423.131"/>
</g>
</svg>
