<?xml version="1.0" encoding="utf-8"?>
<!-- Generator: Adobe Illustrator 15.1.0, SVG Export Plug-In . SVG Version: 6.00 Build 0)  -->
<!DOCTYPE svg PUBLIC "-//W3C//DTD SVG 1.1//EN" "http://www.w3.org/Graphics/SVG/1.1/DTD/svg11.dtd">
<svg version="1.1" id="Layer_1" xmlns="http://www.w3.org/2000/svg" xmlns:xlink="http://www.w3.org/1999/xlink" x="0px" y="0px"
	 width="800px" height="800px" viewBox="0 0 800 800" enable-background="new 0 0 800 800" xml:space="preserve">
<g>
	<defs>
		<rect id="SVGID_1_" width="800" height="800"/>
	</defs>
	<clipPath id="SVGID_2_">
		<use xlink:href="#SVGID_1_"  overflow="visible"/>
	</clipPath>
	<g clip-path="url(#SVGID_2_)">
		<defs>
			<rect id="SVGID_3_" width="800" height="800"/>
		</defs>
		<clipPath id="SVGID_4_">
			<use xlink:href="#SVGID_3_"  overflow="visible"/>
		</clipPath>
		<defs>
			<filter id="Adobe_OpacityMaskFilter" filterUnits="userSpaceOnUse" x="0" y="0" width="800" height="800">
				<feColorMatrix  type="matrix" values="1 0 0 0 0  0 1 0 0 0  0 0 1 0 0  0 0 0 1 0"/>
			</filter>
		</defs>
		<mask maskUnits="userSpaceOnUse" x="0" y="0" width="800" height="800" id="SVGID_5_">
			<g filter="url(#Adobe_OpacityMaskFilter)">
				
					<linearGradient id="SVGID_6_" gradientUnits="userSpaceOnUse" x1="0" y1="800" x2="1" y2="800" gradientTransform="matrix(-3.520000e-005 805.3044 805.3044 3.520000e-005 -643843.5625 7.4969)">
					<stop  offset="0" style="stop-color:#999999"/>
					<stop  offset="0.4838" style="stop-color:#999999"/>
					<stop  offset="0.5086" style="stop-color:#A1A1A1"/>
					<stop  offset="0.5477" style="stop-color:#B8B8B8"/>
					<stop  offset="0.596" style="stop-color:#DCDCDC"/>
					<stop  offset="0.6067" style="stop-color:#E5E5E5"/>
					<stop  offset="0.6822" style="stop-color:#CFCFCF"/>
					<stop  offset="0.8045" style="stop-color:#B2B2B2"/>
					<stop  offset="0.9095" style="stop-color:#A0A0A0"/>
					<stop  offset="0.9845" style="stop-color:#999999"/>
					<stop  offset="0.9868" style="stop-color:#999999"/>
					<stop  offset="1" style="stop-color:#999999"/>
				</linearGradient>
				<rect clip-path="url(#SVGID_4_)" fill="url(#SVGID_6_)" width="800" height="800"/>
			</g>
		</mask>
		
			<linearGradient id="SVGID_7_" gradientUnits="userSpaceOnUse" x1="0" y1="800" x2="1" y2="800" gradientTransform="matrix(-3.520000e-005 805.3044 805.3044 3.520000e-005 -643843.5625 7.4969)">
			<stop  offset="0" style="stop-color:#FFFFFF"/>
			<stop  offset="0.4838" style="stop-color:#F9E0D6"/>
			<stop  offset="0.6067" style="stop-color:#F9DFD5"/>
			<stop  offset="0.9845" style="stop-color:#F9DFD5"/>
			<stop  offset="1" style="stop-color:#F9DFD5"/>
		</linearGradient>
		<rect clip-path="url(#SVGID_4_)" mask="url(#SVGID_5_)" fill="url(#SVGID_7_)" width="800" height="800"/>
	</g>
	<g clip-path="url(#SVGID_2_)">
		<defs>
			<rect id="SVGID_8_" width="800" height="800"/>
		</defs>
		<clipPath id="SVGID_9_">
			<use xlink:href="#SVGID_8_"  overflow="visible"/>
		</clipPath>
	</g>
	<g clip-path="url(#SVGID_2_)">
		<defs>
			<path id="SVGID_10_" d="M432.336,277.543C381.518,365.563,400,494.13,400,494.13s120.582-48.28,171.401-136.299
				c50.817-88.021,32.338-216.588,32.338-216.588S483.156,189.522,432.336,277.543"/>
		</defs>
		<clipPath id="SVGID_11_">
			<use xlink:href="#SVGID_10_"  overflow="visible"/>
		</clipPath>
		<defs>
			<filter id="Adobe_OpacityMaskFilter_1_" filterUnits="userSpaceOnUse" x="228.711" y="37.015" width="546.314" height="561.344">
				<feColorMatrix  type="matrix" values="1 0 0 0 0  0 1 0 0 0  0 0 1 0 0  0 0 0 1 0"/>
			</filter>
		</defs>
		<mask maskUnits="userSpaceOnUse" x="228.711" y="37.015" width="546.314" height="561.344" id="SVGID_12_">
			<g filter="url(#Adobe_OpacityMaskFilter_1_)">
				
					<linearGradient id="SVGID_13_" gradientUnits="userSpaceOnUse" x1="0" y1="800" x2="1" y2="800" gradientTransform="matrix(-204.2202 353.7093 353.7093 204.2202 -282362.7813 -163236.2969)">
					<stop  offset="0" style="stop-color:#999999"/>
					<stop  offset="0.5833" style="stop-color:#FFFFFF"/>
					<stop  offset="1" style="stop-color:#999999"/>
				</linearGradient>
				<polygon clip-path="url(#SVGID_11_)" fill="url(#SVGID_13_)" points="775.025,229.469 562.041,598.358 228.711,405.904 
					441.696,37.015 				"/>
			</g>
		</mask>
		
			<linearGradient id="SVGID_14_" gradientUnits="userSpaceOnUse" x1="0" y1="800" x2="1" y2="800" gradientTransform="matrix(-204.2202 353.7093 353.7093 204.2202 -282362.7813 -163236.2969)">
			<stop  offset="0" style="stop-color:#FFFFFF"/>
			<stop  offset="0.5833" style="stop-color:#EDC5C2"/>
			<stop  offset="1" style="stop-color:#FFFFFF"/>
		</linearGradient>
		<polygon clip-path="url(#SVGID_11_)" mask="url(#SVGID_12_)" fill="url(#SVGID_14_)" points="775.025,229.469 562.041,598.358 
			228.711,405.904 441.696,37.015 		"/>
	</g>
	<g clip-path="url(#SVGID_2_)">
		<defs>
			<path id="SVGID_15_" d="M228.597,357.831C279.417,445.85,400,494.13,400,494.13s18.48-128.567-32.338-216.589
				C316.844,189.522,196.26,141.243,196.26,141.243S177.78,269.81,228.597,357.831"/>
		</defs>
		<clipPath id="SVGID_16_">
			<use xlink:href="#SVGID_15_"  overflow="visible"/>
		</clipPath>
		<defs>
			<filter id="Adobe_OpacityMaskFilter_2_" filterUnits="userSpaceOnUse" x="24.973" y="37.015" width="546.314" height="561.342">
				<feColorMatrix  type="matrix" values="1 0 0 0 0  0 1 0 0 0  0 0 1 0 0  0 0 0 1 0"/>
			</filter>
		</defs>
		<mask maskUnits="userSpaceOnUse" x="24.973" y="37.015" width="546.314" height="561.342" id="SVGID_17_">
			<g filter="url(#Adobe_OpacityMaskFilter_2_)">
				
					<linearGradient id="SVGID_18_" gradientUnits="userSpaceOnUse" x1="0" y1="800" x2="1" y2="800" gradientTransform="matrix(204.2199 353.7089 353.7089 -204.2199 -282771.875 163515.5313)">
					<stop  offset="0" style="stop-color:#999999"/>
					<stop  offset="0.5833" style="stop-color:#FFFFFF"/>
					<stop  offset="1" style="stop-color:#999999"/>
				</linearGradient>
				<polygon clip-path="url(#SVGID_16_)" fill="url(#SVGID_18_)" points="358.302,37.015 571.287,405.904 237.958,598.357 
					24.973,229.469 				"/>
			</g>
		</mask>
		
			<linearGradient id="SVGID_19_" gradientUnits="userSpaceOnUse" x1="0" y1="800" x2="1" y2="800" gradientTransform="matrix(204.2199 353.7089 353.7089 -204.2199 -282771.875 163515.5313)">
			<stop  offset="0" style="stop-color:#FFFFFF"/>
			<stop  offset="0.5833" style="stop-color:#EDC5C2"/>
			<stop  offset="1" style="stop-color:#FFFFFF"/>
		</linearGradient>
		<polygon clip-path="url(#SVGID_16_)" mask="url(#SVGID_17_)" fill="url(#SVGID_19_)" points="358.302,37.015 571.287,405.904 
			237.958,598.357 24.973,229.469 		"/>
	</g>
	<g clip-path="url(#SVGID_2_)">
		<defs>
			<path id="SVGID_20_" d="M199.161,406.835C271.03,478.705,400,494.13,400,494.13s-15.424-128.97-87.293-200.84
				c-71.869-71.867-200.838-87.292-200.838-87.292S127.293,334.969,199.161,406.835"/>
		</defs>
		<clipPath id="SVGID_21_">
			<use xlink:href="#SVGID_20_"  overflow="visible"/>
		</clipPath>
		<defs>
			<filter id="Adobe_OpacityMaskFilter_3_" filterUnits="userSpaceOnUse" x="-32.197" y="61.933" width="576.264" height="576.263">
				<feColorMatrix  type="matrix" values="1 0 0 0 0  0 1 0 0 0  0 0 1 0 0  0 0 0 1 0"/>
			</filter>
		</defs>
		<mask maskUnits="userSpaceOnUse" x="-32.197" y="61.933" width="576.264" height="576.263" id="SVGID_22_">
			<g filter="url(#Adobe_OpacityMaskFilter_3_)">
				
					<linearGradient id="SVGID_23_" gradientUnits="userSpaceOnUse" x1="0" y1="800" x2="1" y2="800" gradientTransform="matrix(288.806 288.8061 288.8061 -288.806 -230934.3438 231249.5)">
					<stop  offset="0" style="stop-color:#999999"/>
					<stop  offset="0.5833" style="stop-color:#FFFFFF"/>
					<stop  offset="1" style="stop-color:#999999"/>
				</linearGradient>
				<polygon clip-path="url(#SVGID_21_)" fill="url(#SVGID_23_)" points="255.935,61.933 544.066,350.064 255.935,638.195 
					-32.197,350.064 				"/>
			</g>
		</mask>
		
			<linearGradient id="SVGID_24_" gradientUnits="userSpaceOnUse" x1="0" y1="800" x2="1" y2="800" gradientTransform="matrix(288.806 288.8061 288.8061 -288.806 -230934.3438 231249.5)">
			<stop  offset="0" style="stop-color:#FFFFFF"/>
			<stop  offset="0.5833" style="stop-color:#EDC5C2"/>
			<stop  offset="1" style="stop-color:#FFFFFF"/>
		</linearGradient>
		<polygon clip-path="url(#SVGID_21_)" mask="url(#SVGID_22_)" fill="url(#SVGID_24_)" points="255.935,61.933 544.066,350.064 
			255.935,638.195 -32.197,350.064 		"/>
	</g>
	<g clip-path="url(#SVGID_2_)">
		<defs>
			<path id="SVGID_25_" d="M487.292,293.293C415.424,365.16,400,494.13,400,494.13s128.97-15.425,200.838-87.293
				c71.869-71.868,87.293-200.839,87.293-200.839S559.16,221.423,487.292,293.293"/>
		</defs>
		<clipPath id="SVGID_26_">
			<use xlink:href="#SVGID_25_"  overflow="visible"/>
		</clipPath>
		<defs>
			<filter id="Adobe_OpacityMaskFilter_4_" filterUnits="userSpaceOnUse" x="255.934" y="61.933" width="576.263" height="576.263">
				<feColorMatrix  type="matrix" values="1 0 0 0 0  0 1 0 0 0  0 0 1 0 0  0 0 0 1 0"/>
			</filter>
		</defs>
		<mask maskUnits="userSpaceOnUse" x="255.934" y="61.933" width="576.263" height="576.263" id="SVGID_27_">
			<g filter="url(#Adobe_OpacityMaskFilter_4_)">
				
					<linearGradient id="SVGID_28_" gradientUnits="userSpaceOnUse" x1="0" y1="800" x2="1" y2="800" gradientTransform="matrix(-288.8054 288.8054 288.8054 288.8054 -230354.8438 -230839.5469)">
					<stop  offset="0" style="stop-color:#999999"/>
					<stop  offset="0.5833" style="stop-color:#FFFFFF"/>
					<stop  offset="1" style="stop-color:#999999"/>
				</linearGradient>
				<polygon clip-path="url(#SVGID_26_)" fill="url(#SVGID_28_)" points="832.197,350.064 544.065,638.195 255.934,350.064 
					544.065,61.933 				"/>
			</g>
		</mask>
		
			<linearGradient id="SVGID_29_" gradientUnits="userSpaceOnUse" x1="0" y1="800" x2="1" y2="800" gradientTransform="matrix(-288.8054 288.8054 288.8054 288.8054 -230354.8438 -230839.5469)">
			<stop  offset="0" style="stop-color:#FFFFFF"/>
			<stop  offset="0.5833" style="stop-color:#EDC5C2"/>
			<stop  offset="1" style="stop-color:#FFFFFF"/>
		</linearGradient>
		<polygon clip-path="url(#SVGID_26_)" mask="url(#SVGID_27_)" fill="url(#SVGID_29_)" points="832.197,350.064 544.065,638.195 
			255.934,350.064 544.065,61.933 		"/>
	</g>
	<g clip-path="url(#SVGID_2_)">
		<defs>
			<path id="SVGID_30_" d="M333.977,326.59c0,83.578,66.023,167.54,66.023,167.54s66.024-83.962,66.024-167.54
				c0-83.578-66.024-167.539-66.024-167.539S333.977,243.012,333.977,326.59"/>
		</defs>
		<clipPath id="SVGID_31_">
			<use xlink:href="#SVGID_30_"  overflow="visible"/>
		</clipPath>
		<defs>
			
				<filter id="Adobe_OpacityMaskFilter_5_" filterUnits="userSpaceOnUse" x="333.977" y="159.051" width="132.047" height="335.079">
				<feColorMatrix  type="matrix" values="1 0 0 0 0  0 1 0 0 0  0 0 1 0 0  0 0 0 1 0"/>
			</filter>
		</defs>
		<mask maskUnits="userSpaceOnUse" x="333.977" y="159.051" width="132.047" height="335.079" id="SVGID_32_">
			<g filter="url(#Adobe_OpacityMaskFilter_5_)">
				
					<linearGradient id="SVGID_33_" gradientUnits="userSpaceOnUse" x1="0" y1="799.999" x2="1" y2="799.999" gradientTransform="matrix(-1.470000e-005 335.8641 335.8641 1.470000e-005 -268291.2813 157.4602)">
					<stop  offset="0" style="stop-color:#999999"/>
					<stop  offset="0.5833" style="stop-color:#FFFFFF"/>
					<stop  offset="1" style="stop-color:#999999"/>
				</linearGradient>
				<rect x="333.977" y="159.05" clip-path="url(#SVGID_31_)" fill="url(#SVGID_33_)" width="132.047" height="335.079"/>
			</g>
		</mask>
		
			<linearGradient id="SVGID_34_" gradientUnits="userSpaceOnUse" x1="0" y1="800" x2="1" y2="800" gradientTransform="matrix(-1.470000e-005 335.8642 335.8642 1.470000e-005 -268291.2813 157.448)">
			<stop  offset="0" style="stop-color:#FFFFFF"/>
			<stop  offset="0.5833" style="stop-color:#EDC5C2"/>
			<stop  offset="1" style="stop-color:#FFFFFF"/>
		</linearGradient>
		
			<rect x="333.977" y="159.051" clip-path="url(#SVGID_31_)" mask="url(#SVGID_32_)" fill="url(#SVGID_34_)" width="132.047" height="335.079"/>
	</g>
	<g clip-path="url(#SVGID_2_)">
		<defs>
			<path id="SVGID_35_" d="M426.592,316.024C384.801,388.407,400,494.13,400,494.13s99.157-39.699,140.948-112.08
				c41.789-72.383,26.591-178.107,26.591-178.107S468.38,243.643,426.592,316.024"/>
		</defs>
		<clipPath id="SVGID_36_">
			<use xlink:href="#SVGID_35_"  overflow="visible"/>
		</clipPath>
		<defs>
			
				<filter id="Adobe_OpacityMaskFilter_6_" filterUnits="userSpaceOnUse" x="259.145" y="118.233" width="449.249" height="461.607">
				<feColorMatrix  type="matrix" values="1 0 0 0 0  0 1 0 0 0  0 0 1 0 0  0 0 0 1 0"/>
			</filter>
		</defs>
		<mask maskUnits="userSpaceOnUse" x="259.145" y="118.233" width="449.249" height="461.607" id="SVGID_37_">
			<g filter="url(#Adobe_OpacityMaskFilter_6_)">
				
					<linearGradient id="SVGID_38_" gradientUnits="userSpaceOnUse" x1="0" y1="800" x2="1" y2="800" gradientTransform="matrix(-167.935 290.8635 290.8635 167.935 -232122.5 -134145.3906)">
					<stop  offset="0" style="stop-color:#999999"/>
					<stop  offset="0.5833" style="stop-color:#FFFFFF"/>
					<stop  offset="1" style="stop-color:#999999"/>
				</linearGradient>
				<polygon clip-path="url(#SVGID_36_)" fill="url(#SVGID_38_)" points="708.394,276.493 533.251,579.84 259.145,421.58 
					434.287,118.233 				"/>
			</g>
		</mask>
		
			<linearGradient id="SVGID_39_" gradientUnits="userSpaceOnUse" x1="0" y1="800" x2="1" y2="800" gradientTransform="matrix(-167.935 290.8635 290.8635 167.935 -232122.5 -134145.3906)">
			<stop  offset="0" style="stop-color:#FFFFFF"/>
			<stop  offset="0.5833" style="stop-color:#EDC5C2"/>
			<stop  offset="1" style="stop-color:#FFFFFF"/>
		</linearGradient>
		<polygon clip-path="url(#SVGID_36_)" mask="url(#SVGID_37_)" fill="url(#SVGID_39_)" points="708.394,276.493 533.251,579.84 
			259.145,421.58 434.287,118.233 		"/>
	</g>
	<g clip-path="url(#SVGID_2_)">
		<defs>
			<path id="SVGID_40_" d="M259.051,382.05C300.841,454.431,400,494.13,400,494.13s15.196-105.723-26.592-178.106
				c-41.79-72.381-140.948-112.081-140.948-112.081S217.262,309.667,259.051,382.05"/>
		</defs>
		<clipPath id="SVGID_41_">
			<use xlink:href="#SVGID_40_"  overflow="visible"/>
		</clipPath>
		<defs>
			<filter id="Adobe_OpacityMaskFilter_7_" filterUnits="userSpaceOnUse" x="91.605" y="118.234" width="449.247" height="461.605">
				<feColorMatrix  type="matrix" values="1 0 0 0 0  0 1 0 0 0  0 0 1 0 0  0 0 0 1 0"/>
			</filter>
		</defs>
		<mask maskUnits="userSpaceOnUse" x="91.605" y="118.234" width="449.247" height="461.605" id="SVGID_42_">
			<g filter="url(#Adobe_OpacityMaskFilter_7_)">
				
					<linearGradient id="SVGID_43_" gradientUnits="userSpaceOnUse" x1="0" y1="800" x2="1" y2="800" gradientTransform="matrix(167.935 290.8635 290.8635 -167.935 -232459.1406 134550.6094)">
					<stop  offset="0" style="stop-color:#999999"/>
					<stop  offset="0.5833" style="stop-color:#FFFFFF"/>
					<stop  offset="1" style="stop-color:#999999"/>
				</linearGradient>
				<polygon clip-path="url(#SVGID_41_)" fill="url(#SVGID_43_)" points="365.71,118.234 540.853,421.58 266.748,579.839 
					91.605,276.493 				"/>
			</g>
		</mask>
		
			<linearGradient id="SVGID_44_" gradientUnits="userSpaceOnUse" x1="0" y1="800" x2="1" y2="800" gradientTransform="matrix(167.935 290.8635 290.8635 -167.935 -232459.1406 134550.6094)">
			<stop  offset="0" style="stop-color:#FFFFFF"/>
			<stop  offset="0.5833" style="stop-color:#EDC5C2"/>
			<stop  offset="1" style="stop-color:#FFFFFF"/>
		</linearGradient>
		<polygon clip-path="url(#SVGID_41_)" mask="url(#SVGID_42_)" fill="url(#SVGID_44_)" points="365.71,118.234 540.853,421.58 
			266.748,579.839 91.605,276.493 		"/>
	</g>
	<g clip-path="url(#SVGID_2_)">
		<defs>
			<path id="SVGID_45_" d="M234.846,422.347C293.945,481.446,400,494.13,400,494.13s-12.683-106.055-71.784-165.154
				c-59.098-59.099-165.152-71.783-165.152-71.783S175.746,363.247,234.846,422.347"/>
		</defs>
		<clipPath id="SVGID_46_">
			<use xlink:href="#SVGID_45_"  overflow="visible"/>
		</clipPath>
		<defs>
			<filter id="Adobe_OpacityMaskFilter_8_" filterUnits="userSpaceOnUse" x="44.596" y="138.725" width="473.873" height="473.873">
				<feColorMatrix  type="matrix" values="1 0 0 0 0  0 1 0 0 0  0 0 1 0 0  0 0 0 1 0"/>
			</filter>
		</defs>
		<mask maskUnits="userSpaceOnUse" x="44.596" y="138.725" width="473.873" height="473.873" id="SVGID_47_">
			<g filter="url(#Adobe_OpacityMaskFilter_8_)">
				
					<linearGradient id="SVGID_48_" gradientUnits="userSpaceOnUse" x1="0" y1="800" x2="1" y2="800" gradientTransform="matrix(237.492 237.492 237.492 -237.492 -189831.5625 190249.6719)">
					<stop  offset="0" style="stop-color:#999999"/>
					<stop  offset="0.5833" style="stop-color:#FFFFFF"/>
					<stop  offset="1" style="stop-color:#999999"/>
				</linearGradient>
				<polygon clip-path="url(#SVGID_46_)" fill="url(#SVGID_48_)" points="281.534,138.725 518.471,375.662 281.534,612.598 
					44.598,375.662 				"/>
			</g>
		</mask>
		
			<linearGradient id="SVGID_49_" gradientUnits="userSpaceOnUse" x1="0" y1="800" x2="1" y2="800" gradientTransform="matrix(237.4919 237.492 237.492 -237.4919 -189831.5625 190249.6563)">
			<stop  offset="0" style="stop-color:#FFFFFF"/>
			<stop  offset="0.5833" style="stop-color:#EDC5C2"/>
			<stop  offset="1" style="stop-color:#FFFFFF"/>
		</linearGradient>
		<polygon clip-path="url(#SVGID_46_)" mask="url(#SVGID_47_)" fill="url(#SVGID_49_)" points="281.532,138.725 518.469,375.662 
			281.532,612.598 44.596,375.662 		"/>
	</g>
	<g clip-path="url(#SVGID_2_)">
		<defs>
			<path id="SVGID_50_" d="M471.781,328.976C412.682,388.075,400,494.13,400,494.13s106.055-12.684,165.153-71.783
				s71.781-165.154,71.781-165.154S530.881,269.877,471.781,328.976"/>
		</defs>
		<clipPath id="SVGID_51_">
			<use xlink:href="#SVGID_50_"  overflow="visible"/>
		</clipPath>
		<defs>
			
				<filter id="Adobe_OpacityMaskFilter_9_" filterUnits="userSpaceOnUse" x="281.531" y="138.726" width="473.872" height="473.872">
				<feColorMatrix  type="matrix" values="1 0 0 0 0  0 1 0 0 0  0 0 1 0 0  0 0 0 1 0"/>
			</filter>
		</defs>
		<mask maskUnits="userSpaceOnUse" x="281.531" y="138.726" width="473.872" height="473.872" id="SVGID_52_">
			<g filter="url(#Adobe_OpacityMaskFilter_9_)">
				
					<linearGradient id="SVGID_53_" gradientUnits="userSpaceOnUse" x1="0" y1="800" x2="1" y2="800" gradientTransform="matrix(-237.4906 237.4906 237.4906 237.4906 -189354.4375 -189736.3438)">
					<stop  offset="0" style="stop-color:#999999"/>
					<stop  offset="0.5833" style="stop-color:#FFFFFF"/>
					<stop  offset="1" style="stop-color:#999999"/>
				</linearGradient>
				<polygon clip-path="url(#SVGID_51_)" fill="url(#SVGID_53_)" points="755.403,375.662 518.468,612.598 281.531,375.662 
					518.468,138.726 				"/>
			</g>
		</mask>
		
			<linearGradient id="SVGID_54_" gradientUnits="userSpaceOnUse" x1="0" y1="800" x2="1" y2="800" gradientTransform="matrix(-237.4906 237.4906 237.4906 237.4906 -189354.4375 -189736.3438)">
			<stop  offset="0" style="stop-color:#FFFFFF"/>
			<stop  offset="0.5833" style="stop-color:#EDC5C2"/>
			<stop  offset="1" style="stop-color:#FFFFFF"/>
		</linearGradient>
		<polygon clip-path="url(#SVGID_51_)" mask="url(#SVGID_52_)" fill="url(#SVGID_54_)" points="755.403,375.662 518.468,612.598 
			281.531,375.662 518.468,138.726 		"/>
	</g>
	<g clip-path="url(#SVGID_2_)">
		<defs>
			<path id="SVGID_55_" d="M348.97,364.518c0,64.6,51.03,129.493,51.03,129.493s51.03-64.893,51.03-129.493
				c0-64.599-51.03-129.494-51.03-129.494S348.97,299.919,348.97,364.518"/>
		</defs>
		<clipPath id="SVGID_56_">
			<use xlink:href="#SVGID_55_"  overflow="visible"/>
		</clipPath>
		<defs>
			
				<filter id="Adobe_OpacityMaskFilter_10_" filterUnits="userSpaceOnUse" x="348.97" y="235.024" width="102.061" height="258.987">
				<feColorMatrix  type="matrix" values="1 0 0 0 0  0 1 0 0 0  0 0 1 0 0  0 0 0 1 0"/>
			</filter>
		</defs>
		<mask maskUnits="userSpaceOnUse" x="348.97" y="235.024" width="102.061" height="258.987" id="SVGID_57_">
			<g filter="url(#Adobe_OpacityMaskFilter_10_)">
				
					<linearGradient id="SVGID_58_" gradientUnits="userSpaceOnUse" x1="0" y1="800" x2="1" y2="800" gradientTransform="matrix(-1.130000e-005 259.5928 259.5928 1.130000e-005 -207274.2188 233.8293)">
					<stop  offset="0" style="stop-color:#999999"/>
					<stop  offset="0.5833" style="stop-color:#FFFFFF"/>
					<stop  offset="1" style="stop-color:#999999"/>
				</linearGradient>
				<rect x="348.97" y="235.024" clip-path="url(#SVGID_56_)" fill="url(#SVGID_58_)" width="102.061" height="258.987"/>
			</g>
		</mask>
		
			<linearGradient id="SVGID_59_" gradientUnits="userSpaceOnUse" x1="0" y1="800" x2="1" y2="800" gradientTransform="matrix(-1.130000e-005 259.5928 259.5928 1.130000e-005 -207274.2188 233.8293)">
			<stop  offset="0" style="stop-color:#FFFFFF"/>
			<stop  offset="0.5833" style="stop-color:#EDC5C2"/>
			<stop  offset="1" style="stop-color:#FFFFFF"/>
		</linearGradient>
		
			<rect x="348.97" y="235.024" clip-path="url(#SVGID_56_)" mask="url(#SVGID_57_)" fill="url(#SVGID_59_)" width="102.061" height="258.987"/>
	</g>
	<g clip-path="url(#SVGID_2_)">
		<defs>
			<path id="SVGID_60_" d="M420.553,356.353C388.253,412.297,400,494.011,400,494.011s76.642-30.684,108.941-86.627
				c32.299-55.946,20.553-137.661,20.553-137.661S452.852,300.407,420.553,356.353"/>
		</defs>
		<clipPath id="SVGID_61_">
			<use xlink:href="#SVGID_60_"  overflow="visible"/>
		</clipPath>
		<defs>
			
				<filter id="Adobe_OpacityMaskFilter_11_" filterUnits="userSpaceOnUse" x="291.132" y="203.477" width="347.229" height="356.78">
				<feColorMatrix  type="matrix" values="1 0 0 0 0  0 1 0 0 0  0 0 1 0 0  0 0 0 1 0"/>
			</filter>
		</defs>
		<mask maskUnits="userSpaceOnUse" x="291.132" y="203.477" width="347.229" height="356.78" id="SVGID_62_">
			<g filter="url(#Adobe_OpacityMaskFilter_11_)">
				
					<linearGradient id="SVGID_63_" gradientUnits="userSpaceOnUse" x1="0" y1="800" x2="1" y2="800" gradientTransform="matrix(-129.7991 224.8121 224.8121 129.7991 -179319.5469 -103570.4688)">
					<stop  offset="0" style="stop-color:#999999"/>
					<stop  offset="0.5833" style="stop-color:#FFFFFF"/>
					<stop  offset="1" style="stop-color:#999999"/>
				</linearGradient>
				<polygon clip-path="url(#SVGID_61_)" fill="url(#SVGID_63_)" points="638.361,325.797 502.991,560.257 291.132,437.937 
					426.501,203.477 				"/>
			</g>
		</mask>
		
			<linearGradient id="SVGID_64_" gradientUnits="userSpaceOnUse" x1="0" y1="800" x2="1" y2="800" gradientTransform="matrix(-129.7991 224.8121 224.8121 129.7991 -179319.5469 -103570.4688)">
			<stop  offset="0" style="stop-color:#FFFFFF"/>
			<stop  offset="0.5833" style="stop-color:#EDC5C2"/>
			<stop  offset="1" style="stop-color:#FFFFFF"/>
		</linearGradient>
		<polygon clip-path="url(#SVGID_61_)" mask="url(#SVGID_62_)" fill="url(#SVGID_64_)" points="638.361,325.797 502.991,560.257 
			291.132,437.937 426.501,203.477 		"/>
	</g>
	<g clip-path="url(#SVGID_2_)">
		<defs>
			<path id="SVGID_65_" d="M291.06,407.384C323.358,463.327,400,494.011,400,494.011s11.745-81.714-20.554-137.658
				c-32.3-55.946-108.94-86.63-108.94-86.63S258.759,351.438,291.06,407.384"/>
		</defs>
		<clipPath id="SVGID_66_">
			<use xlink:href="#SVGID_65_"  overflow="visible"/>
		</clipPath>
		<defs>
			
				<filter id="Adobe_OpacityMaskFilter_12_" filterUnits="userSpaceOnUse" x="161.638" y="203.477" width="347.228" height="356.78">
				<feColorMatrix  type="matrix" values="1 0 0 0 0  0 1 0 0 0  0 0 1 0 0  0 0 0 1 0"/>
			</filter>
		</defs>
		<mask maskUnits="userSpaceOnUse" x="161.638" y="203.477" width="347.228" height="356.78" id="SVGID_67_">
			<g filter="url(#Adobe_OpacityMaskFilter_12_)">
				
					<linearGradient id="SVGID_68_" gradientUnits="userSpaceOnUse" x1="0" y1="800" x2="1" y2="800" gradientTransform="matrix(129.7991 224.8121 224.8121 -129.7991 -179579.7031 104108)">
					<stop  offset="0" style="stop-color:#999999"/>
					<stop  offset="0.5833" style="stop-color:#FFFFFF"/>
					<stop  offset="1" style="stop-color:#999999"/>
				</linearGradient>
				<polygon clip-path="url(#SVGID_66_)" fill="url(#SVGID_68_)" points="373.497,203.477 508.866,437.937 297.007,560.257 
					161.638,325.797 				"/>
			</g>
		</mask>
		
			<linearGradient id="SVGID_69_" gradientUnits="userSpaceOnUse" x1="0" y1="800" x2="1" y2="800" gradientTransform="matrix(129.7991 224.8121 224.8121 -129.7991 -179579.7031 104108)">
			<stop  offset="0" style="stop-color:#FFFFFF"/>
			<stop  offset="0.5833" style="stop-color:#EDC5C2"/>
			<stop  offset="1" style="stop-color:#FFFFFF"/>
		</linearGradient>
		<polygon clip-path="url(#SVGID_66_)" mask="url(#SVGID_67_)" fill="url(#SVGID_69_)" points="373.497,203.477 508.866,437.937 
			297.007,560.257 161.638,325.797 		"/>
	</g>
	<g clip-path="url(#SVGID_2_)">
		<defs>
			<path id="SVGID_70_" d="M272.35,438.531C318.029,484.207,400,494.011,400,494.011s-9.804-81.969-55.484-127.65
				c-45.677-45.678-127.648-55.481-127.648-55.481S226.669,392.852,272.35,438.531"/>
		</defs>
		<clipPath id="SVGID_71_">
			<use xlink:href="#SVGID_70_"  overflow="visible"/>
		</clipPath>
		<defs>
			
				<filter id="Adobe_OpacityMaskFilter_13_" filterUnits="userSpaceOnUse" x="125.303" y="219.314" width="366.263" height="366.263">
				<feColorMatrix  type="matrix" values="1 0 0 0 0  0 1 0 0 0  0 0 1 0 0  0 0 0 1 0"/>
			</filter>
		</defs>
		<mask maskUnits="userSpaceOnUse" x="125.303" y="219.314" width="366.263" height="366.263" id="SVGID_72_">
			<g filter="url(#Adobe_OpacityMaskFilter_13_)">
				
					<linearGradient id="SVGID_73_" gradientUnits="userSpaceOnUse" x1="0" y1="800" x2="1" y2="800" gradientTransform="matrix(183.5602 183.5602 183.5602 -183.5602 -146632.125 147158.1563)">
					<stop  offset="0" style="stop-color:#999999"/>
					<stop  offset="0.5833" style="stop-color:#FFFFFF"/>
					<stop  offset="1" style="stop-color:#999999"/>
				</linearGradient>
				<polygon clip-path="url(#SVGID_71_)" fill="url(#SVGID_73_)" points="308.434,219.314 491.565,402.445 308.434,585.577 
					125.303,402.445 				"/>
			</g>
		</mask>
		
			<linearGradient id="SVGID_74_" gradientUnits="userSpaceOnUse" x1="0" y1="800" x2="1" y2="800" gradientTransform="matrix(183.5602 183.5602 183.5602 -183.5602 -146632.125 147158.1563)">
			<stop  offset="0" style="stop-color:#FFFFFF"/>
			<stop  offset="0.5833" style="stop-color:#EDC5C2"/>
			<stop  offset="1" style="stop-color:#FFFFFF"/>
		</linearGradient>
		<polygon clip-path="url(#SVGID_71_)" mask="url(#SVGID_72_)" fill="url(#SVGID_74_)" points="308.434,219.314 491.565,402.445 
			308.434,585.577 125.303,402.445 		"/>
	</g>
	<g clip-path="url(#SVGID_2_)">
		<defs>
			<path id="SVGID_75_" d="M455.481,366.363C409.801,412.042,400,494.011,400,494.011s81.971-9.804,127.649-55.479
				c45.678-45.679,55.482-127.651,55.482-127.651S501.16,320.683,455.481,366.363"/>
		</defs>
		<clipPath id="SVGID_76_">
			<use xlink:href="#SVGID_75_"  overflow="visible"/>
		</clipPath>
		<defs>
			
				<filter id="Adobe_OpacityMaskFilter_14_" filterUnits="userSpaceOnUse" x="308.435" y="219.314" width="366.263" height="366.263">
				<feColorMatrix  type="matrix" values="1 0 0 0 0  0 1 0 0 0  0 0 1 0 0  0 0 0 1 0"/>
			</filter>
		</defs>
		<mask maskUnits="userSpaceOnUse" x="308.435" y="219.314" width="366.263" height="366.263" id="SVGID_77_">
			<g filter="url(#Adobe_OpacityMaskFilter_14_)">
				
					<linearGradient id="SVGID_78_" gradientUnits="userSpaceOnUse" x1="0" y1="800" x2="1" y2="800" gradientTransform="matrix(-183.5595 183.5594 183.5594 183.5595 -146263.5781 -146537.4375)">
					<stop  offset="0" style="stop-color:#999999"/>
					<stop  offset="0.5833" style="stop-color:#FFFFFF"/>
					<stop  offset="1" style="stop-color:#999999"/>
				</linearGradient>
				<polygon clip-path="url(#SVGID_76_)" fill="url(#SVGID_78_)" points="674.697,402.445 491.566,585.577 308.435,402.445 
					491.566,219.314 				"/>
			</g>
		</mask>
		
			<linearGradient id="SVGID_79_" gradientUnits="userSpaceOnUse" x1="0" y1="800" x2="1" y2="800" gradientTransform="matrix(-183.5595 183.5594 183.5594 183.5595 -146263.5938 -146537.5781)">
			<stop  offset="0" style="stop-color:#FFFFFF"/>
			<stop  offset="0.5833" style="stop-color:#EDC5C2"/>
			<stop  offset="1" style="stop-color:#FFFFFF"/>
		</linearGradient>
		<polygon clip-path="url(#SVGID_76_)" mask="url(#SVGID_77_)" fill="url(#SVGID_79_)" points="674.697,402.445 491.566,585.577 
			308.435,402.445 491.566,219.314 		"/>
	</g>
	<g clip-path="url(#SVGID_2_)">
		<defs>
			<rect id="SVGID_80_" width="800" height="800"/>
		</defs>
		<clipPath id="SVGID_81_">
			<use xlink:href="#SVGID_80_"  overflow="visible"/>
		</clipPath>
		<g opacity="0.6" clip-path="url(#SVGID_81_)">
			<g>
				<defs>
					<rect id="SVGID_82_" x="293.863" y="105.225" width="217.045" height="384.149"/>
				</defs>
				<clipPath id="SVGID_83_">
					<use xlink:href="#SVGID_82_"  overflow="visible"/>
				</clipPath>
				<path clip-path="url(#SVGID_83_)" fill="#D6A5BE" d="M510.184,405.517c-0.979-4.241-7.176-9.052-10.52-10.927
					c-3.343-1.875-8.888-1.631-11.172-0.327c-2.282,1.304-7.828,3.344-11.09,4.241s-7.91,2.691-10.03,4.241
					c-2.12,1.548-5.3,5.137-5.3,5.137s-5.302,2.61-9.134,5.382c-3.833,2.773-10.193,8.972-10.765,8.972
					c-0.57,0-0.57-0.654-0.815-1.469c-0.245-0.816,0.164-1.793,0.407-2.283c0.246-0.489,1.143-1.794,1.224-3.668
					c0.083-1.877,0.326-2.938-0.571-4.242c-0.896-1.304-2.039-4.241-2.039-4.241s0.326-1.061,0.489-2.282
					c0.164-1.224,0.408-3.67,0.408-5.138s0.163-1.305,0.571-2.284s-0.163-1.223,0.408-6.034c0.57-4.812,2.446-22.018,4.158-27.401
					c1.712-5.381,3.915-18.673,4.404-22.342c0.489-3.67-0.57-3.834-0.57-3.834s0.57-2.202,1.385-5.79
					c0.816-3.588,1.468-8.725,2.039-15.494c0.57-6.768,1.549-10.764,3.588-15.168c2.039-4.403,9.052-21.936,11.906-30.009
					c2.854-8.073,4.73-18.837,5.952-27.155c1.224-8.318,2.61-23.567,2.447-26.095s-1.468-3.343-3.996-6.442
					c-2.527-3.099-14.76-15.005-14.76-15.005s-23.894-19.735-29.602-24.627c-5.709-4.893-11.009-10.031-13.456-13.863
					c-2.445-3.833-2.119-5.791-2.527-7.339c-0.408-1.549-1.386-7.258-1.957-10.519c-0.57-3.263-1.632-4.813-1.956-6.117
					c-0.327-1.304-0.49-8.073-0.653-9.705c-0.164-1.631-0.979-4.403-1.061-5.789c-0.082-1.386-0.653-3.099-0.734-5.464
					c-0.081-2.365,0.162-6.278,0.162-6.278s-0.488-1.143-1.711-0.897c-1.223,0.244-2.283,2.201-2.283,2.201
					s-0.599-1.196-1.467-1.631c-0.871-0.435-1.523,0-1.959,1.522c-0.434,1.522-0.652,5.437-0.869,7.394
					c-0.218,1.957-1.087,5.219-1.739,7.177c-0.653,1.956-1.088,4.348-1.305,6.958c-0.218,2.609-2.609,7.393-3.697,9.568
					c-1.087,2.174-0.219,5.001-1.087,6.741c-0.87,1.74-0.436,5.437-1.74,9.351c-1.305,3.913-5.001,7.611-7.393,10.438
					c-2.393,2.827-16.527,11.961-19.789,15.223c-3.263,3.262-18.267,15.44-21.529,18.484c-3.262,3.044-9.133,9.35-10.873,11.09
					c-1.74,1.74-3.914,3.698-4.784,4.785c-0.87,1.086,1.088,12.83,1.088,17.18c0,4.349,2.826,20.223,5.219,29.355
					c2.392,9.134,8.481,21.311,10.655,25.226c2.175,3.915,7.611,19.571,7.611,19.571s0.435,11.091,1.088,16.962
					c0.652,5.872,2.174,13.7,2.174,13.7l-0.217,0.653c-0.218,0.652,1.739,7.176,1.739,7.176s6.524,34.576,6.959,39.578
					c0.434,5.001,2.391,15.656,2.391,15.656s-1.304,3.916-1.739,7.612s1.304,5.218-0.218,6.958
					c-1.523,1.738-3.044,5.437-3.044,5.437s-3.479-3.044-6.959-6.524c-3.478-3.478-10.003-6.958-10.003-6.958
					s-1.087-1.739-2.174-3.479c-1.088-1.739-5.002-4.567-7.177-5.437c-2.174-0.869-8.263-4.131-11.307-6.306
					c-3.045-2.174-7.829-3.044-12.395-2.611c-4.567,0.437-10.439,5.22-13.265,10.874c-2.827,5.655-0.653,11.961,1.087,17.832
					c1.739,5.873,3.914,14.569,8.698,21.746c4.785,7.176,13.391,20.509,17.832,25.442c5.871,6.524,22.103,18.141,31.531,22.182
					c15.223,6.524,37.234,0.167,50.885,1.305c15.657,1.306,41.752,3.48,55.235-5.652c11.387-7.716,26.693-22.943,26.693-22.943
					c3.588-4.894,12.476-15.739,15.005-20.06c2.526-4.323,3.424-7.096,4.647-10.195c1.223-3.098,2.201-8.563,3.262-12.068
					C511.163,413.263,511.163,409.756,510.184,405.517 M432.442,278.928c-1.087,1.521-4.131,5.871-5.437,7.61
					c-1.304,1.741-1.957,3.045-3.045,3.263c-1.087,0.217-4.783,0.652-6.523-0.653c-1.739-1.305-0.869-2.827-0.652-6.088
					c0.218-3.263,1.957-12.179,2.608-14.135c0.654-1.958,3.698-8.264,3.698-8.264s1.088,0.653,2.175,0.653s1.958-0.87,2.174-1.958
					c0.218-1.088,1.523-4.132,1.74-5.871c0.218-1.74,1.739-5.872,1.305-8.481c-0.436-2.61-1.087-1.957-1.087-1.957
					s-0.435-5.654-2.609-14.352c-2.175-8.699-11.308-17.615-14.353-20.007c-3.044-2.392-5.002-1.087-7.611-1.087
					s-4.784-1.305-8.916-1.74c-4.133-0.435-8.046,1.304-14.571,6.524c-6.522,5.219-9.567,13.265-10.872,18.05
					c-1.304,4.783,0.871,15.439,0.871,15.439s-1.305,1.087-1.088,4.131c0.217,3.045,1.739,3.914,2.609,5.873
					c0.871,1.956,1.523,4.783,2.392,6.305c0.871,1.522,3.48,1.305,3.48,1.305l0.87,1.087c0.87,1.087,3.206,4.35,3.206,4.35
					s3.753,15.004,4.187,16.526c0.435,1.522-0.653,3.262-0.653,3.262l-5.87,0.435c0,0-1.74-2.827-4.349-6.742
					c-2.611-3.914-5.872-7.176-9.134-10.437c-3.262-3.262-6.306-7.828-7.828-10.874c-1.523-3.044-4.785-14.569-6.524-20.44
					c-1.74-5.872-5.438-12.613-5.22-15.005c0.218-2.391,4.35-8.481,8.481-13.483c4.131-5.002,16.528-19.136,20.878-24.572
					c4.349-5.437,17.83-19.137,18.918-20.224c1.087-1.088,3.261-2.175,4.131-3.045c0.87-0.87,1.957-4.784,1.957-4.784
					s0.652,1.305,1.088,2.392c0.435,1.087,0.87,2.392,2.175,3.262s2.827,2.609,4.131,3.697c1.306,1.087,6.959,6.959,11.962,12.395
					c5.001,5.436,25.659,31.532,27.616,34.142c1.957,2.608,5.872,8.481,5.872,10.656c0,2.174-3.48,11.959-4.785,16.744
					c-1.305,4.783-3.913,17.831-5.218,19.788c-1.306,1.957-4.783,6.741-6.742,8.699
					C435.922,273.274,433.529,277.406,432.442,278.928"/>
			</g>
		</g>
		<g opacity="0.4" clip-path="url(#SVGID_81_)">
			<g>
				<defs>
					<rect id="SVGID_84_" x="296.443" y="478.073" width="211.886" height="226.433"/>
				</defs>
				<clipPath id="SVGID_85_">
					<use xlink:href="#SVGID_84_"  overflow="visible"/>
				</clipPath>
				<g clip-path="url(#SVGID_85_)">
					<defs>
						<path id="SVGID_86_" d="M507.925,548.923c-1.221-2.442-8.273-7.19-11.257-7.73c-2.984-0.544-10.853,1.763-10.988,1.356
							c-0.135-0.408,1.447-0.543,3.798-3.847c2.352-3.301,2.17-7.277,0.406-14.06c-1.763-6.782-16.821-15.734-22.381-18.449
							c-5.561-2.712-16.007-4.883-15.6-6.374c0.407-1.492,7.188-2.578,8.411-5.154c1.221-2.577-2.984-9.768-3.799-10.986
							c-0.813-1.223,1.22-6.106-3.391-5.563c-4.612,0.544-13.837,4.884-19.263,5.429c-5.425,0.539-15.734-2.445-21.431-0.818
							c-5.4,1.547-8.053,5.094-10.048,5.094c-1.993,0-4.644-3.547-10.042-5.094c-5.697-1.627-16.007,1.357-21.434,0.818
							c-5.425-0.545-14.649-4.885-19.261-5.429c-4.612-0.543-2.577,4.341-3.391,5.563c-0.814,1.219-5.019,8.409-3.798,10.986
							c1.221,2.576,8.004,3.662,8.41,5.154c0.407,1.491-10.038,3.662-15.599,6.374c-5.562,2.715-20.619,11.667-22.381,18.449
							c-1.764,6.782-1.946,10.759,0.406,14.06c2.351,3.304,3.934,3.438,3.798,3.847c-0.135,0.406-8.003-1.9-10.988-1.356
							c-2.984,0.54-10.037,5.288-11.257,7.73c-1.221,2.443,0.677,9.766,1.085,11.124c0.406,1.354,0.135,5.696,2.034,5.832
							c1.899,0.136,5.019-3.799,6.376-3.934c1.355-0.135,9.222-0.814,11.123-1.898c1.898-1.086,4.747-3.257,6.782-2.983
							c2.034,0.269,11.529,7.188,15.192,8.815c3.663,1.627,7.596,3.12,8.411,4.204c0.813,1.086,0.949,13.295,1.627,16.551
							c0.678,3.256,3.121,12.072,2.985,16.414c-0.137,4.34-0.679,20.076,1.627,25.364c2.306,5.289,8.139,8.953,12.344,9.089
							s2.804,6.689,2.215,9.176c-0.588,2.489,0.317,9.677,3.436,15.915c3.12,6.24,7.189,14.561,7.597,18.087
							c0.406,3.526,3.708,18.133,10.354,21.524c6.014,3.07,18.687,3.07,24.7,0c6.647-3.392,9.949-17.998,10.356-21.524
							s4.477-11.847,7.596-18.087c3.121-6.238,4.023-13.426,3.436-15.915c-0.587-2.486-1.989-9.04,2.215-9.176
							c4.207-0.136,10.039-3.8,12.345-9.089c2.308-5.288,1.764-21.024,1.628-25.364c-0.136-4.342,2.307-13.158,2.984-16.414
							c0.68-3.256,0.813-15.465,1.627-16.551c0.813-1.084,4.749-2.577,8.411-4.204c3.663-1.628,13.158-8.547,15.192-8.815
							c2.034-0.273,4.884,1.897,6.781,2.983c1.899,1.084,9.769,1.764,11.123,1.898c1.355,0.135,4.477,4.069,6.375,3.934
							c1.899-0.136,1.628-4.479,2.036-5.832C507.246,558.688,509.147,551.366,507.925,548.923 M371.857,583.785
							c-1.219,4.204-1.085,12.072-2.576,12.207c-1.492,0.139-1.086-4.477-1.356-7.731c-0.272-3.256-3.391-12.887-4.613-15.734
							c-1.22-2.85-2.034-7.19-2.847-11.938c-0.815-4.748-7.325-9.223-9.903-10.58s-11.666-1.762-11.801-2.713
							c-0.135-0.948,10.174-2.036,14.785-4.478c4.612-2.439,11.394-6.78,12.887-7.053c1.492-0.271,0.813,3.528,3.39,10.31
							c2.578,6.781,4.884,3.798,5.563,12.208C376.063,566.692,373.079,579.578,371.857,583.785 M466.012,547.296
							c-0.138,0.951-9.226,1.355-11.802,2.713c-2.577,1.357-9.089,5.832-9.902,10.58c-0.814,4.747-1.628,9.088-2.849,11.938
							c-1.221,2.848-4.342,12.479-4.613,15.734c-0.27,3.255,0.137,7.87-1.355,7.731c-1.49-0.135-1.356-8.003-2.577-12.207
							c-1.222-4.207-4.205-17.093-3.526-25.502c0.678-8.41,2.984-5.427,5.561-12.208c2.579-6.781,1.898-10.58,3.391-10.31
							c1.493,0.272,8.276,4.613,12.889,7.053C455.836,545.26,466.146,546.348,466.012,547.296"/>
					</defs>
					<clipPath id="SVGID_87_">
						<use xlink:href="#SVGID_86_"  overflow="visible"/>
					</clipPath>
					<defs>
						
							<filter id="Adobe_OpacityMaskFilter_15_" filterUnits="userSpaceOnUse" x="294.47" y="476.488" width="215.833" height="229.868">
							<feColorMatrix  type="matrix" values="1 0 0 0 0  0 1 0 0 0  0 0 1 0 0  0 0 0 1 0"/>
						</filter>
					</defs>
					<mask maskUnits="userSpaceOnUse" x="294.47" y="476.488" width="215.833" height="229.868" id="SVGID_88_">
						<g filter="url(#Adobe_OpacityMaskFilter_15_)">
							
								<linearGradient id="SVGID_89_" gradientUnits="userSpaceOnUse" x1="0" y1="799.999" x2="1" y2="799.999" gradientTransform="matrix(1.5 -295.4841 -295.4841 -1.5 236788.6094 1938.6456)">
								<stop  offset="0" style="stop-color:#000000"/>
								<stop  offset="0.1231" style="stop-color:#000000"/>
								<stop  offset="0.1785" style="stop-color:#121212"/>
								<stop  offset="0.4381" style="stop-color:#606060"/>
								<stop  offset="0.5573" style="stop-color:#808080"/>
								<stop  offset="0.668" style="stop-color:#9E9E9E"/>
								<stop  offset="0.849" style="stop-color:#CCCCCC"/>
								<stop  offset="1" style="stop-color:#E5E5E5"/>
							</linearGradient>
							<polygon clip-path="url(#SVGID_87_)" fill="url(#SVGID_89_)" points="294.47,705.268 295.631,476.488 510.303,477.578 
								509.142,706.356 							"/>
						</g>
					</mask>
					
						<linearGradient id="SVGID_90_" gradientUnits="userSpaceOnUse" x1="0" y1="799.999" x2="1" y2="799.999" gradientTransform="matrix(1.5 -295.4841 -295.4841 -1.5 236788.6094 1938.6456)">
						<stop  offset="0" style="stop-color:#FFFFFF"/>
						<stop  offset="0.1231" style="stop-color:#FFFFFF"/>
						<stop  offset="0.3791" style="stop-color:#E0CBD7"/>
						<stop  offset="0.5573" style="stop-color:#CDACBF"/>
						<stop  offset="0.849" style="stop-color:#B4839F"/>
						<stop  offset="0.9308" style="stop-color:#8A677A"/>
						<stop  offset="1" style="stop-color:#6B535F"/>
					</linearGradient>
					<polygon clip-path="url(#SVGID_87_)" mask="url(#SVGID_88_)" fill="url(#SVGID_90_)" points="294.47,705.268 295.631,476.488 
						510.303,477.578 509.142,706.356 					"/>
				</g>
			</g>
		</g>
		<g opacity="0.9" clip-path="url(#SVGID_81_)">
			<g>
				<defs>
					<rect id="SVGID_91_" x="283.929" y="240.954" width="236.914" height="253.176"/>
				</defs>
				<clipPath id="SVGID_92_">
					<use xlink:href="#SVGID_91_"  overflow="visible"/>
				</clipPath>
				<path clip-path="url(#SVGID_92_)" fill="#713C5D" d="M519.178,402.476c-0.455-1.517-0.152-6.37-2.275-6.523
					c-2.123-0.15-5.612,4.248-7.129,4.399c-1.515,0.153-10.313,0.91-12.437,2.124c-2.122,1.213-5.308,3.64-7.583,3.338
					c-2.274-0.305-12.891-8.04-16.987-9.861c-4.093-1.819-8.493-3.487-9.403-4.699c-0.909-1.214-1.06-14.865-1.818-18.505
					c-0.758-3.641-3.489-13.498-3.338-18.352s0.761-22.448-1.82-28.361c-2.578-5.916-9.099-10.011-13.802-10.162
					c-4.702-0.153-3.134-7.481-2.477-10.261c0.657-2.783-0.353-10.819-3.843-17.795c-3.487-6.978-8.038-16.278-8.492-20.222
					c-0.455-3.944-4.146-20.276-11.58-24.068c-6.724-3.432-20.892-3.432-27.617,0c-7.432,3.792-11.123,20.124-11.578,24.068
					c-0.454,3.944-5.005,13.244-8.493,20.222c-3.488,6.976-4.499,15.012-3.841,17.795c0.658,2.78,2.224,10.108-2.478,10.261
					c-4.702,0.151-11.224,4.246-13.802,10.162c-2.578,5.913-1.972,23.507-1.82,28.361c0.153,4.854-2.578,14.711-3.337,18.352
					c-0.758,3.64-0.909,17.291-1.819,18.505c-0.91,1.212-5.309,2.88-9.404,4.699c-4.096,1.821-14.711,9.557-16.987,9.861
					c-2.275,0.302-5.459-2.125-7.584-3.338c-2.123-1.214-10.919-1.971-12.436-2.124c-1.517-0.151-5.005-4.549-7.128-4.399
					c-2.123,0.153-1.82,5.007-2.275,6.523c-0.454,1.516-2.578,9.705-1.213,12.437c1.365,2.73,9.251,8.039,12.588,8.645
					c3.337,0.607,12.133-1.973,12.285-1.517c0.151,0.456-1.618,0.607-4.247,4.298c-2.629,3.693-2.426,8.139-0.454,15.723
					c1.97,7.582,18.805,17.594,25.024,20.626c6.22,3.035,17.897,5.462,17.442,7.13s-8.038,2.882-9.403,5.765
					c-1.365,2.879,3.336,10.918,4.247,12.281c0.909,1.367-1.365,6.828,3.791,6.221c5.156-0.607,15.47-5.459,21.536-6.067
					c6.068-0.606,17.595,2.731,23.965,0.91c6.036-1.726,8.999-5.692,11.229-5.692c2.23,0,5.195,3.967,11.233,5.692
					c6.369,1.821,17.896-1.517,23.964-0.91c6.066,0.608,16.38,5.46,21.537,6.067c5.155,0.607,2.88-4.854,3.792-6.221
					c0.91-1.363,5.611-9.402,4.246-12.281c-1.367-2.883-8.949-4.097-9.404-5.765s11.225-4.095,17.441-7.13
					c6.219-3.032,23.055-13.044,25.024-20.626c1.973-7.584,2.175-12.029-0.453-15.723c-2.629-3.69-4.398-3.842-4.248-4.298
					c0.152-0.456,8.95,2.124,12.287,1.517c3.337-0.605,11.222-5.914,12.587-8.645C521.758,412.181,519.632,403.991,519.178,402.476
					 M372.196,404.446c-0.759,9.403-3.337,6.067-6.219,13.651c-2.881,7.583-2.123,11.831-3.791,11.526
					c-1.669-0.305-9.253-5.157-14.409-7.887c-5.156-2.729-16.682-3.944-16.531-5.006s10.313-1.515,13.194-3.032
					c2.883-1.519,10.162-6.521,11.073-11.83c0.91-5.308,1.82-10.161,3.184-13.348c1.365-3.185,4.854-13.953,5.157-17.593
					c0.303-3.64-0.151-8.797,1.517-8.644c1.668,0.15,1.517,8.947,2.881,13.648C369.617,380.635,372.954,395.044,372.196,404.446
					 M456.995,421.737c-5.157,2.729-12.74,7.582-14.41,7.887c-1.669,0.305-0.909-3.943-3.792-11.526
					c-2.881-7.584-5.459-4.248-6.218-13.651c-0.758-9.402,2.578-23.811,3.942-28.514c1.365-4.701,1.216-13.498,2.883-13.648
					c1.668-0.153,1.214,5.004,1.516,8.644c0.304,3.64,3.793,14.408,5.158,17.593c1.364,3.187,2.274,8.04,3.185,13.348
					c0.91,5.309,8.19,10.312,11.071,11.83c2.883,1.518,13.043,1.971,13.196,3.032C473.676,417.793,462.149,419.008,456.995,421.737"
					/>
			</g>
		</g>
	</g>
	<g clip-path="url(#SVGID_2_)">
		<defs>
			<rect id="SVGID_93_" width="800" height="800"/>
		</defs>
		<clipPath id="SVGID_94_">
			<use xlink:href="#SVGID_93_"  overflow="visible"/>
		</clipPath>
	</g>
</g>
</svg>
